{"glyphs":{"0":{"ha":1818,"x_min":51,"x_max":1800,"o":"m 58 642 l 733 642 q 795 772 739 719 q 929 825 851 825 q 1063 772 1007 825 q 1125 642 1119 719 l 1800 642 l 1800 374 l 58 374 l 58 642 m 108 164 l 58 164 l 58 207 l 188 207 l 131 99 l 183 99 l 183 56 l 51 56 l 108 164 m 57 343 l 126 343 l 126 328 l 74 328 l 74 292 l 119 292 l 119 276 l 74 276 l 74 236 l 57 236 l 57 343 m 131 544 l 131 425 l 185 425 l 185 544 l 224 544 l 224 593 l 90 593 l 90 544 l 131 544 m 140 343 l 157 343 l 157 278 q 165 258 157 265 q 183 250 172 250 q 203 258 194 250 q 211 278 211 267 l 211 343 l 228 343 l 228 278 q 215 247 228 258 q 183 235 203 235 q 153 247 165 235 q 140 278 140 260 l 140 343 m 197 207 l 307 207 l 307 165 l 246 165 l 246 153 l 299 153 l 299 111 l 246 111 l 246 97 l 308 97 l 308 56 l 197 56 l 197 207 m 288 425 l 288 474 l 299 474 l 319 425 l 376 425 l 347 489 q 367 533 367 506 q 348 576 367 558 q 303 593 329 593 l 233 593 l 233 425 l 288 425 m 249 343 l 265 343 l 265 251 l 314 251 l 314 236 l 249 236 l 249 343 m 288 547 l 301 547 q 309 543 306 547 q 313 533 313 539 q 309 523 313 528 q 301 518 306 518 l 288 518 l 288 547 m 314 207 l 435 207 l 435 164 l 399 164 l 399 56 l 350 56 l 350 164 l 314 164 l 314 207 m 329 343 l 346 343 l 346 251 l 396 251 l 396 236 l 329 236 l 329 343 m 438 425 l 438 593 l 385 593 l 385 425 l 438 425 m 469 207 l 525 207 l 576 56 l 524 56 l 518 79 l 475 79 l 468 56 l 418 56 l 469 207 m 460 343 l 490 264 l 521 343 l 540 343 l 496 236 l 485 236 l 440 343 l 460 343 m 504 425 l 511 451 l 558 451 l 565 425 l 624 425 l 567 593 l 504 593 l 447 425 l 504 425 m 507 119 l 497 156 l 496 156 l 486 119 l 507 119 m 533 536 l 535 536 l 546 496 l 522 496 l 533 536 m 554 343 l 624 343 l 624 328 l 571 328 l 571 297 l 617 297 l 617 283 l 571 283 l 571 251 l 624 251 l 624 236 l 554 236 l 554 343 m 585 207 l 694 207 l 694 165 l 633 165 l 633 143 l 685 143 l 685 103 l 633 103 l 633 56 l 585 56 l 585 207 m 747 425 l 747 471 l 688 471 l 688 593 l 633 593 l 633 425 l 747 425 m 642 343 l 682 343 q 707 333 697 343 q 717 308 717 324 q 700 279 717 289 l 721 236 l 701 236 l 683 275 l 658 275 l 658 236 l 642 236 l 642 343 m 682 289 q 694 294 689 289 q 700 308 700 300 q 694 322 700 317 q 682 328 689 328 l 658 328 l 658 289 l 682 289 m 700 132 q 724 188 700 165 q 782 211 747 211 q 840 188 817 211 q 864 132 864 165 q 840 74 864 97 q 782 51 817 51 q 724 74 747 51 q 700 132 700 97 m 729 263 q 765 250 747 250 q 785 267 785 250 q 761 283 785 276 q 738 297 744 290 q 731 315 731 303 q 740 338 731 329 q 767 346 750 346 q 794 339 781 346 l 794 321 q 767 331 782 331 q 753 326 758 331 q 747 315 747 322 q 752 305 747 308 q 769 297 757 301 q 801 267 801 285 q 791 243 801 251 q 765 235 781 235 q 729 244 746 235 l 729 263 m 749 132 q 758 106 749 117 q 782 96 768 96 q 806 106 796 96 q 815 132 815 117 q 806 157 815 147 q 782 167 796 167 q 758 157 768 167 q 749 132 749 147 m 751 628 q 797 510 751 560 l 1029 740 l 792 740 q 751 628 751 692 m 811 496 q 929 451 863 451 q 1047 496 996 451 l 811 496 m 1047 760 q 929 806 994 806 q 811 760 861 806 l 1047 760 m 818 343 l 835 343 l 835 236 l 818 236 l 818 343 m 1065 515 q 1106 628 1106 564 q 1061 746 1106 694 l 831 515 l 1065 515 m 853 290 q 869 330 853 314 q 908 346 885 346 q 948 330 932 346 q 964 290 964 314 q 948 251 964 267 q 908 235 932 235 q 869 251 885 235 q 853 290 853 267 m 869 290 q 881 261 869 272 q 908 250 892 250 q 935 261 924 250 q 946 290 946 272 q 935 318 946 307 q 908 329 924 329 q 881 318 892 329 q 869 290 869 307 m 875 207 l 925 207 l 971 126 l 971 207 l 1019 207 l 1019 56 l 969 56 l 922 129 l 924 56 l 875 56 l 875 207 m 981 344 l 989 344 l 1057 268 l 1057 343 l 1074 343 l 1074 233 l 1065 233 l 997 308 l 997 236 l 981 236 l 981 344 m 1028 207 l 1147 207 l 1147 164 l 1113 164 l 1113 56 l 1064 56 l 1064 164 l 1028 164 l 1028 207 m 1121 296 l 1757 296 l 1739 311 l 1750 321 l 1785 288 l 1750 254 l 1739 264 l 1757 279 l 1121 279 l 1121 296 m 1140 510 q 1166 446 1140 471 q 1231 421 1192 421 q 1296 446 1269 421 q 1322 510 1322 471 q 1296 572 1322 547 q 1231 597 1269 597 q 1166 572 1192 597 q 1140 510 1140 547 m 1151 164 q 1168 199 1151 186 q 1214 211 1185 211 q 1258 200 1233 211 l 1258 153 q 1237 164 1250 160 q 1214 168 1224 168 q 1199 163 1199 168 q 1202 156 1199 158 q 1210 153 1206 154 q 1218 151 1214 153 q 1268 103 1268 140 q 1251 65 1268 79 q 1207 51 1233 51 q 1154 65 1176 51 l 1154 117 q 1207 94 1189 94 q 1219 103 1219 94 q 1210 111 1219 108 q 1196 115 1200 114 q 1162 134 1172 124 q 1151 164 1151 144 m 1193 510 q 1204 538 1193 526 q 1231 549 1215 549 q 1258 538 1247 549 q 1268 510 1268 526 q 1258 481 1268 492 q 1231 469 1247 469 q 1204 481 1215 469 q 1193 510 1193 492 m 1275 75 q 1282 91 1275 85 q 1300 97 1289 97 q 1317 91 1310 97 q 1324 75 1324 85 q 1317 58 1324 65 q 1300 51 1310 51 q 1282 58 1289 51 q 1275 75 1275 65 m 1332 132 q 1356 188 1332 165 q 1414 211 1379 211 q 1446 203 1432 211 l 1446 157 q 1415 167 1429 167 q 1391 157 1401 167 q 1381 132 1381 147 q 1390 106 1381 117 q 1415 96 1400 96 q 1450 110 1436 96 l 1449 61 q 1413 51 1429 51 q 1356 74 1379 51 q 1332 132 1332 97 m 1388 425 l 1386 507 l 1439 425 l 1494 425 l 1494 593 l 1440 593 l 1440 504 l 1389 593 l 1333 593 l 1333 425 l 1388 425 m 1454 132 q 1478 188 1454 165 q 1538 211 1503 211 q 1596 188 1572 211 q 1619 132 1619 165 q 1596 74 1619 97 q 1538 51 1572 51 q 1478 74 1501 51 q 1454 132 1454 97 m 1503 132 q 1513 106 1503 117 q 1538 96 1522 96 q 1561 106 1551 96 q 1571 132 1571 117 q 1561 156 1571 146 q 1538 167 1551 167 q 1513 157 1524 167 q 1503 132 1503 147 m 1625 425 l 1625 471 l 1565 471 l 1565 593 l 1511 593 l 1511 425 l 1625 425 m 1656 492 l 1656 425 l 1710 425 l 1710 492 l 1767 593 l 1704 593 l 1682 543 l 1661 593 l 1597 593 l 1656 492 m 1629 207 l 1678 207 l 1714 138 l 1750 207 l 1799 207 l 1799 56 l 1751 56 l 1751 115 l 1732 78 l 1697 78 l 1678 115 l 1678 56 l 1629 56 l 1629 207 z "},"1":{"ha":1818,"x_min":51,"x_max":1800,"o":"m 58 642 l 733 642 q 795 772 739 719 q 929 825 851 825 q 1063 772 1007 825 q 1125 642 1119 719 l 1800 642 l 1800 374 l 58 374 l 58 642 m 108 164 l 58 164 l 58 207 l 188 207 l 131 99 l 183 99 l 183 56 l 51 56 l 108 164 m 57 343 l 126 343 l 126 328 l 74 328 l 74 292 l 119 292 l 119 276 l 74 276 l 74 236 l 57 236 l 57 343 m 131 544 l 131 425 l 185 425 l 185 544 l 224 544 l 224 593 l 90 593 l 90 544 l 131 544 m 140 343 l 157 343 l 157 278 q 165 258 157 265 q 183 250 172 250 q 203 258 194 250 q 211 278 211 267 l 211 343 l 228 343 l 228 278 q 215 247 228 258 q 183 235 203 235 q 153 247 165 235 q 140 278 140 260 l 140 343 m 197 207 l 307 207 l 307 165 l 246 165 l 246 153 l 299 153 l 299 111 l 246 111 l 246 97 l 308 97 l 308 56 l 197 56 l 197 207 m 288 425 l 288 474 l 299 474 l 319 425 l 376 425 l 347 489 q 367 533 367 506 q 348 576 367 558 q 303 593 329 593 l 233 593 l 233 425 l 288 425 m 249 343 l 265 343 l 265 251 l 314 251 l 314 236 l 249 236 l 249 343 m 288 547 l 301 547 q 309 543 306 547 q 313 533 313 539 q 309 523 313 528 q 301 518 306 518 l 288 518 l 288 547 m 314 207 l 435 207 l 435 164 l 399 164 l 399 56 l 350 56 l 350 164 l 314 164 l 314 207 m 329 343 l 346 343 l 346 251 l 396 251 l 396 236 l 329 236 l 329 343 m 438 425 l 438 593 l 385 593 l 385 425 l 438 425 m 469 207 l 525 207 l 576 56 l 524 56 l 518 79 l 475 79 l 468 56 l 418 56 l 469 207 m 460 343 l 490 264 l 521 343 l 540 343 l 496 236 l 485 236 l 440 343 l 460 343 m 504 425 l 511 451 l 558 451 l 565 425 l 624 425 l 567 593 l 504 593 l 447 425 l 504 425 m 507 119 l 497 156 l 496 156 l 486 119 l 507 119 m 533 536 l 535 536 l 546 496 l 522 496 l 533 536 m 554 343 l 624 343 l 624 328 l 571 328 l 571 297 l 617 297 l 617 283 l 571 283 l 571 251 l 624 251 l 624 236 l 554 236 l 554 343 m 585 207 l 694 207 l 694 165 l 633 165 l 633 143 l 685 143 l 685 103 l 633 103 l 633 56 l 585 56 l 585 207 m 747 425 l 747 471 l 688 471 l 688 593 l 633 593 l 633 425 l 747 425 m 642 343 l 682 343 q 707 333 697 343 q 717 308 717 324 q 700 279 717 289 l 721 236 l 701 236 l 683 275 l 658 275 l 658 236 l 642 236 l 642 343 m 682 289 q 694 294 689 289 q 700 308 700 300 q 694 322 700 317 q 682 328 689 328 l 658 328 l 658 289 l 682 289 m 700 132 q 724 188 700 165 q 782 211 747 211 q 840 188 817 211 q 864 132 864 165 q 840 74 864 97 q 782 51 817 51 q 724 74 747 51 q 700 132 700 97 m 729 263 q 765 250 747 250 q 785 267 785 250 q 761 283 785 276 q 738 297 744 290 q 731 315 731 303 q 740 338 731 329 q 767 346 750 346 q 794 339 781 346 l 794 321 q 767 331 782 331 q 753 326 758 331 q 747 315 747 322 q 752 305 747 308 q 769 297 757 301 q 801 267 801 285 q 791 243 801 251 q 765 235 781 235 q 729 244 746 235 l 729 263 m 749 132 q 758 106 749 117 q 782 96 768 96 q 806 106 796 96 q 815 132 815 117 q 806 157 815 147 q 782 167 796 167 q 758 157 768 167 q 749 132 749 147 m 751 628 q 797 510 751 560 l 1029 740 l 792 740 q 751 628 751 692 m 811 496 q 929 451 863 451 q 1047 496 996 451 l 811 496 m 1047 760 q 929 806 994 806 q 811 760 861 806 l 1047 760 m 818 343 l 835 343 l 835 236 l 818 236 l 818 343 m 1065 515 q 1106 628 1106 564 q 1061 746 1106 694 l 831 515 l 1065 515 m 853 290 q 869 330 853 314 q 908 346 885 346 q 948 330 932 346 q 964 290 964 314 q 948 251 964 267 q 908 235 932 235 q 869 251 885 235 q 853 290 853 267 m 869 290 q 881 261 869 272 q 908 250 892 250 q 935 261 924 250 q 946 290 946 272 q 935 318 946 307 q 908 329 924 329 q 881 318 892 329 q 869 290 869 307 m 875 207 l 925 207 l 971 126 l 971 207 l 1019 207 l 1019 56 l 969 56 l 922 129 l 924 56 l 875 56 l 875 207 m 981 344 l 989 344 l 1057 268 l 1057 343 l 1074 343 l 1074 233 l 1065 233 l 997 308 l 997 236 l 981 236 l 981 344 m 1028 207 l 1147 207 l 1147 164 l 1113 164 l 1113 56 l 1064 56 l 1064 164 l 1028 164 l 1028 207 m 1121 296 l 1757 296 l 1739 311 l 1750 321 l 1785 288 l 1750 254 l 1739 264 l 1757 279 l 1121 279 l 1121 296 m 1140 510 q 1166 446 1140 471 q 1231 421 1192 421 q 1296 446 1269 421 q 1322 510 1322 471 q 1296 572 1322 547 q 1231 597 1269 597 q 1166 572 1192 597 q 1140 510 1140 547 m 1151 164 q 1168 199 1151 186 q 1214 211 1185 211 q 1258 200 1233 211 l 1258 153 q 1237 164 1250 160 q 1214 168 1224 168 q 1199 163 1199 168 q 1202 156 1199 158 q 1210 153 1206 154 q 1218 151 1214 153 q 1268 103 1268 140 q 1251 65 1268 79 q 1207 51 1233 51 q 1154 65 1176 51 l 1154 117 q 1207 94 1189 94 q 1219 103 1219 94 q 1210 111 1219 108 q 1196 115 1200 114 q 1162 134 1172 124 q 1151 164 1151 144 m 1193 510 q 1204 538 1193 526 q 1231 549 1215 549 q 1258 538 1247 549 q 1268 510 1268 526 q 1258 481 1268 492 q 1231 469 1247 469 q 1204 481 1215 469 q 1193 510 1193 492 m 1275 75 q 1282 91 1275 85 q 1300 97 1289 97 q 1317 91 1310 97 q 1324 75 1324 85 q 1317 58 1324 65 q 1300 51 1310 51 q 1282 58 1289 51 q 1275 75 1275 65 m 1332 132 q 1356 188 1332 165 q 1414 211 1379 211 q 1446 203 1432 211 l 1446 157 q 1415 167 1429 167 q 1391 157 1401 167 q 1381 132 1381 147 q 1390 106 1381 117 q 1415 96 1400 96 q 1450 110 1436 96 l 1449 61 q 1413 51 1429 51 q 1356 74 1379 51 q 1332 132 1332 97 m 1388 425 l 1386 507 l 1439 425 l 1494 425 l 1494 593 l 1440 593 l 1440 504 l 1389 593 l 1333 593 l 1333 425 l 1388 425 m 1454 132 q 1478 188 1454 165 q 1538 211 1503 211 q 1596 188 1572 211 q 1619 132 1619 165 q 1596 74 1619 97 q 1538 51 1572 51 q 1478 74 1501 51 q 1454 132 1454 97 m 1503 132 q 1513 106 1503 117 q 1538 96 1522 96 q 1561 106 1551 96 q 1571 132 1571 117 q 1561 156 1571 146 q 1538 167 1551 167 q 1513 157 1524 167 q 1503 132 1503 147 m 1625 425 l 1625 471 l 1565 471 l 1565 593 l 1511 593 l 1511 425 l 1625 425 m 1656 492 l 1656 425 l 1710 425 l 1710 492 l 1767 593 l 1704 593 l 1682 543 l 1661 593 l 1597 593 l 1656 492 m 1629 207 l 1678 207 l 1714 138 l 1750 207 l 1799 207 l 1799 56 l 1751 56 l 1751 115 l 1732 78 l 1697 78 l 1678 115 l 1678 56 l 1629 56 l 1629 207 z "},"2":{"ha":1818,"x_min":51,"x_max":1800,"o":"m 58 642 l 733 642 q 795 772 739 719 q 929 825 851 825 q 1063 772 1007 825 q 1125 642 1119 719 l 1800 642 l 1800 374 l 58 374 l 58 642 m 108 164 l 58 164 l 58 207 l 188 207 l 131 99 l 183 99 l 183 56 l 51 56 l 108 164 m 57 343 l 126 343 l 126 328 l 74 328 l 74 292 l 119 292 l 119 276 l 74 276 l 74 236 l 57 236 l 57 343 m 131 544 l 131 425 l 185 425 l 185 544 l 224 544 l 224 593 l 90 593 l 90 544 l 131 544 m 140 343 l 157 343 l 157 278 q 165 258 157 265 q 183 250 172 250 q 203 258 194 250 q 211 278 211 267 l 211 343 l 228 343 l 228 278 q 215 247 228 258 q 183 235 203 235 q 153 247 165 235 q 140 278 140 260 l 140 343 m 197 207 l 307 207 l 307 165 l 246 165 l 246 153 l 299 153 l 299 111 l 246 111 l 246 97 l 308 97 l 308 56 l 197 56 l 197 207 m 288 425 l 288 474 l 299 474 l 319 425 l 376 425 l 347 489 q 367 533 367 506 q 348 576 367 558 q 303 593 329 593 l 233 593 l 233 425 l 288 425 m 249 343 l 265 343 l 265 251 l 314 251 l 314 236 l 249 236 l 249 343 m 288 547 l 301 547 q 309 543 306 547 q 313 533 313 539 q 309 523 313 528 q 301 518 306 518 l 288 518 l 288 547 m 314 207 l 435 207 l 435 164 l 399 164 l 399 56 l 350 56 l 350 164 l 314 164 l 314 207 m 329 343 l 346 343 l 346 251 l 396 251 l 396 236 l 329 236 l 329 343 m 438 425 l 438 593 l 385 593 l 385 425 l 438 425 m 469 207 l 525 207 l 576 56 l 524 56 l 518 79 l 475 79 l 468 56 l 418 56 l 469 207 m 460 343 l 490 264 l 521 343 l 540 343 l 496 236 l 485 236 l 440 343 l 460 343 m 504 425 l 511 451 l 558 451 l 565 425 l 624 425 l 567 593 l 504 593 l 447 425 l 504 425 m 507 119 l 497 156 l 496 156 l 486 119 l 507 119 m 533 536 l 535 536 l 546 496 l 522 496 l 533 536 m 554 343 l 624 343 l 624 328 l 571 328 l 571 297 l 617 297 l 617 283 l 571 283 l 571 251 l 624 251 l 624 236 l 554 236 l 554 343 m 585 207 l 694 207 l 694 165 l 633 165 l 633 143 l 685 143 l 685 103 l 633 103 l 633 56 l 585 56 l 585 207 m 747 425 l 747 471 l 688 471 l 688 593 l 633 593 l 633 425 l 747 425 m 642 343 l 682 343 q 707 333 697 343 q 717 308 717 324 q 700 279 717 289 l 721 236 l 701 236 l 683 275 l 658 275 l 658 236 l 642 236 l 642 343 m 682 289 q 694 294 689 289 q 700 308 700 300 q 694 322 700 317 q 682 328 689 328 l 658 328 l 658 289 l 682 289 m 700 132 q 724 188 700 165 q 782 211 747 211 q 840 188 817 211 q 864 132 864 165 q 840 74 864 97 q 782 51 817 51 q 724 74 747 51 q 700 132 700 97 m 729 263 q 765 250 747 250 q 785 267 785 250 q 761 283 785 276 q 738 297 744 290 q 731 315 731 303 q 740 338 731 329 q 767 346 750 346 q 794 339 781 346 l 794 321 q 767 331 782 331 q 753 326 758 331 q 747 315 747 322 q 752 305 747 308 q 769 297 757 301 q 801 267 801 285 q 791 243 801 251 q 765 235 781 235 q 729 244 746 235 l 729 263 m 749 132 q 758 106 749 117 q 782 96 768 96 q 806 106 796 96 q 815 132 815 117 q 806 157 815 147 q 782 167 796 167 q 758 157 768 167 q 749 132 749 147 m 751 628 q 797 510 751 560 l 1029 740 l 792 740 q 751 628 751 692 m 811 496 q 929 451 863 451 q 1047 496 996 451 l 811 496 m 1047 760 q 929 806 994 806 q 811 760 861 806 l 1047 760 m 818 343 l 835 343 l 835 236 l 818 236 l 818 343 m 1065 515 q 1106 628 1106 564 q 1061 746 1106 694 l 831 515 l 1065 515 m 853 290 q 869 330 853 314 q 908 346 885 346 q 948 330 932 346 q 964 290 964 314 q 948 251 964 267 q 908 235 932 235 q 869 251 885 235 q 853 290 853 267 m 869 290 q 881 261 869 272 q 908 250 892 250 q 935 261 924 250 q 946 290 946 272 q 935 318 946 307 q 908 329 924 329 q 881 318 892 329 q 869 290 869 307 m 875 207 l 925 207 l 971 126 l 971 207 l 1019 207 l 1019 56 l 969 56 l 922 129 l 924 56 l 875 56 l 875 207 m 981 344 l 989 344 l 1057 268 l 1057 343 l 1074 343 l 1074 233 l 1065 233 l 997 308 l 997 236 l 981 236 l 981 344 m 1028 207 l 1147 207 l 1147 164 l 1113 164 l 1113 56 l 1064 56 l 1064 164 l 1028 164 l 1028 207 m 1121 296 l 1757 296 l 1739 311 l 1750 321 l 1785 288 l 1750 254 l 1739 264 l 1757 279 l 1121 279 l 1121 296 m 1140 510 q 1166 446 1140 471 q 1231 421 1192 421 q 1296 446 1269 421 q 1322 510 1322 471 q 1296 572 1322 547 q 1231 597 1269 597 q 1166 572 1192 597 q 1140 510 1140 547 m 1151 164 q 1168 199 1151 186 q 1214 211 1185 211 q 1258 200 1233 211 l 1258 153 q 1237 164 1250 160 q 1214 168 1224 168 q 1199 163 1199 168 q 1202 156 1199 158 q 1210 153 1206 154 q 1218 151 1214 153 q 1268 103 1268 140 q 1251 65 1268 79 q 1207 51 1233 51 q 1154 65 1176 51 l 1154 117 q 1207 94 1189 94 q 1219 103 1219 94 q 1210 111 1219 108 q 1196 115 1200 114 q 1162 134 1172 124 q 1151 164 1151 144 m 1193 510 q 1204 538 1193 526 q 1231 549 1215 549 q 1258 538 1247 549 q 1268 510 1268 526 q 1258 481 1268 492 q 1231 469 1247 469 q 1204 481 1215 469 q 1193 510 1193 492 m 1275 75 q 1282 91 1275 85 q 1300 97 1289 97 q 1317 91 1310 97 q 1324 75 1324 85 q 1317 58 1324 65 q 1300 51 1310 51 q 1282 58 1289 51 q 1275 75 1275 65 m 1332 132 q 1356 188 1332 165 q 1414 211 1379 211 q 1446 203 1432 211 l 1446 157 q 1415 167 1429 167 q 1391 157 1401 167 q 1381 132 1381 147 q 1390 106 1381 117 q 1415 96 1400 96 q 1450 110 1436 96 l 1449 61 q 1413 51 1429 51 q 1356 74 1379 51 q 1332 132 1332 97 m 1388 425 l 1386 507 l 1439 425 l 1494 425 l 1494 593 l 1440 593 l 1440 504 l 1389 593 l 1333 593 l 1333 425 l 1388 425 m 1454 132 q 1478 188 1454 165 q 1538 211 1503 211 q 1596 188 1572 211 q 1619 132 1619 165 q 1596 74 1619 97 q 1538 51 1572 51 q 1478 74 1501 51 q 1454 132 1454 97 m 1503 132 q 1513 106 1503 117 q 1538 96 1522 96 q 1561 106 1551 96 q 1571 132 1571 117 q 1561 156 1571 146 q 1538 167 1551 167 q 1513 157 1524 167 q 1503 132 1503 147 m 1625 425 l 1625 471 l 1565 471 l 1565 593 l 1511 593 l 1511 425 l 1625 425 m 1656 492 l 1656 425 l 1710 425 l 1710 492 l 1767 593 l 1704 593 l 1682 543 l 1661 593 l 1597 593 l 1656 492 m 1629 207 l 1678 207 l 1714 138 l 1750 207 l 1799 207 l 1799 56 l 1751 56 l 1751 115 l 1732 78 l 1697 78 l 1678 115 l 1678 56 l 1629 56 l 1629 207 z "},"3":{"ha":1818,"x_min":51,"x_max":1800,"o":"m 58 642 l 733 642 q 795 772 739 719 q 929 825 851 825 q 1063 772 1007 825 q 1125 642 1119 719 l 1800 642 l 1800 374 l 58 374 l 58 642 m 108 164 l 58 164 l 58 207 l 188 207 l 131 99 l 183 99 l 183 56 l 51 56 l 108 164 m 57 343 l 126 343 l 126 328 l 74 328 l 74 292 l 119 292 l 119 276 l 74 276 l 74 236 l 57 236 l 57 343 m 131 544 l 131 425 l 185 425 l 185 544 l 224 544 l 224 593 l 90 593 l 90 544 l 131 544 m 140 343 l 157 343 l 157 278 q 165 258 157 265 q 183 250 172 250 q 203 258 194 250 q 211 278 211 267 l 211 343 l 228 343 l 228 278 q 215 247 228 258 q 183 235 203 235 q 153 247 165 235 q 140 278 140 260 l 140 343 m 197 207 l 307 207 l 307 165 l 246 165 l 246 153 l 299 153 l 299 111 l 246 111 l 246 97 l 308 97 l 308 56 l 197 56 l 197 207 m 288 425 l 288 474 l 299 474 l 319 425 l 376 425 l 347 489 q 367 533 367 506 q 348 576 367 558 q 303 593 329 593 l 233 593 l 233 425 l 288 425 m 249 343 l 265 343 l 265 251 l 314 251 l 314 236 l 249 236 l 249 343 m 288 547 l 301 547 q 309 543 306 547 q 313 533 313 539 q 309 523 313 528 q 301 518 306 518 l 288 518 l 288 547 m 314 207 l 435 207 l 435 164 l 399 164 l 399 56 l 350 56 l 350 164 l 314 164 l 314 207 m 329 343 l 346 343 l 346 251 l 396 251 l 396 236 l 329 236 l 329 343 m 438 425 l 438 593 l 385 593 l 385 425 l 438 425 m 469 207 l 525 207 l 576 56 l 524 56 l 518 79 l 475 79 l 468 56 l 418 56 l 469 207 m 460 343 l 490 264 l 521 343 l 540 343 l 496 236 l 485 236 l 440 343 l 460 343 m 504 425 l 511 451 l 558 451 l 565 425 l 624 425 l 567 593 l 504 593 l 447 425 l 504 425 m 507 119 l 497 156 l 496 156 l 486 119 l 507 119 m 533 536 l 535 536 l 546 496 l 522 496 l 533 536 m 554 343 l 624 343 l 624 328 l 571 328 l 571 297 l 617 297 l 617 283 l 571 283 l 571 251 l 624 251 l 624 236 l 554 236 l 554 343 m 585 207 l 694 207 l 694 165 l 633 165 l 633 143 l 685 143 l 685 103 l 633 103 l 633 56 l 585 56 l 585 207 m 747 425 l 747 471 l 688 471 l 688 593 l 633 593 l 633 425 l 747 425 m 642 343 l 682 343 q 707 333 697 343 q 717 308 717 324 q 700 279 717 289 l 721 236 l 701 236 l 683 275 l 658 275 l 658 236 l 642 236 l 642 343 m 682 289 q 694 294 689 289 q 700 308 700 300 q 694 322 700 317 q 682 328 689 328 l 658 328 l 658 289 l 682 289 m 700 132 q 724 188 700 165 q 782 211 747 211 q 840 188 817 211 q 864 132 864 165 q 840 74 864 97 q 782 51 817 51 q 724 74 747 51 q 700 132 700 97 m 729 263 q 765 250 747 250 q 785 267 785 250 q 761 283 785 276 q 738 297 744 290 q 731 315 731 303 q 740 338 731 329 q 767 346 750 346 q 794 339 781 346 l 794 321 q 767 331 782 331 q 753 326 758 331 q 747 315 747 322 q 752 305 747 308 q 769 297 757 301 q 801 267 801 285 q 791 243 801 251 q 765 235 781 235 q 729 244 746 235 l 729 263 m 749 132 q 758 106 749 117 q 782 96 768 96 q 806 106 796 96 q 815 132 815 117 q 806 157 815 147 q 782 167 796 167 q 758 157 768 167 q 749 132 749 147 m 751 628 q 797 510 751 560 l 1029 740 l 792 740 q 751 628 751 692 m 811 496 q 929 451 863 451 q 1047 496 996 451 l 811 496 m 1047 760 q 929 806 994 806 q 811 760 861 806 l 1047 760 m 818 343 l 835 343 l 835 236 l 818 236 l 818 343 m 1065 515 q 1106 628 1106 564 q 1061 746 1106 694 l 831 515 l 1065 515 m 853 290 q 869 330 853 314 q 908 346 885 346 q 948 330 932 346 q 964 290 964 314 q 948 251 964 267 q 908 235 932 235 q 869 251 885 235 q 853 290 853 267 m 869 290 q 881 261 869 272 q 908 250 892 250 q 935 261 924 250 q 946 290 946 272 q 935 318 946 307 q 908 329 924 329 q 881 318 892 329 q 869 290 869 307 m 875 207 l 925 207 l 971 126 l 971 207 l 1019 207 l 1019 56 l 969 56 l 922 129 l 924 56 l 875 56 l 875 207 m 981 344 l 989 344 l 1057 268 l 1057 343 l 1074 343 l 1074 233 l 1065 233 l 997 308 l 997 236 l 981 236 l 981 344 m 1028 207 l 1147 207 l 1147 164 l 1113 164 l 1113 56 l 1064 56 l 1064 164 l 1028 164 l 1028 207 m 1121 296 l 1757 296 l 1739 311 l 1750 321 l 1785 288 l 1750 254 l 1739 264 l 1757 279 l 1121 279 l 1121 296 m 1140 510 q 1166 446 1140 471 q 1231 421 1192 421 q 1296 446 1269 421 q 1322 510 1322 471 q 1296 572 1322 547 q 1231 597 1269 597 q 1166 572 1192 597 q 1140 510 1140 547 m 1151 164 q 1168 199 1151 186 q 1214 211 1185 211 q 1258 200 1233 211 l 1258 153 q 1237 164 1250 160 q 1214 168 1224 168 q 1199 163 1199 168 q 1202 156 1199 158 q 1210 153 1206 154 q 1218 151 1214 153 q 1268 103 1268 140 q 1251 65 1268 79 q 1207 51 1233 51 q 1154 65 1176 51 l 1154 117 q 1207 94 1189 94 q 1219 103 1219 94 q 1210 111 1219 108 q 1196 115 1200 114 q 1162 134 1172 124 q 1151 164 1151 144 m 1193 510 q 1204 538 1193 526 q 1231 549 1215 549 q 1258 538 1247 549 q 1268 510 1268 526 q 1258 481 1268 492 q 1231 469 1247 469 q 1204 481 1215 469 q 1193 510 1193 492 m 1275 75 q 1282 91 1275 85 q 1300 97 1289 97 q 1317 91 1310 97 q 1324 75 1324 85 q 1317 58 1324 65 q 1300 51 1310 51 q 1282 58 1289 51 q 1275 75 1275 65 m 1332 132 q 1356 188 1332 165 q 1414 211 1379 211 q 1446 203 1432 211 l 1446 157 q 1415 167 1429 167 q 1391 157 1401 167 q 1381 132 1381 147 q 1390 106 1381 117 q 1415 96 1400 96 q 1450 110 1436 96 l 1449 61 q 1413 51 1429 51 q 1356 74 1379 51 q 1332 132 1332 97 m 1388 425 l 1386 507 l 1439 425 l 1494 425 l 1494 593 l 1440 593 l 1440 504 l 1389 593 l 1333 593 l 1333 425 l 1388 425 m 1454 132 q 1478 188 1454 165 q 1538 211 1503 211 q 1596 188 1572 211 q 1619 132 1619 165 q 1596 74 1619 97 q 1538 51 1572 51 q 1478 74 1501 51 q 1454 132 1454 97 m 1503 132 q 1513 106 1503 117 q 1538 96 1522 96 q 1561 106 1551 96 q 1571 132 1571 117 q 1561 156 1571 146 q 1538 167 1551 167 q 1513 157 1524 167 q 1503 132 1503 147 m 1625 425 l 1625 471 l 1565 471 l 1565 593 l 1511 593 l 1511 425 l 1625 425 m 1656 492 l 1656 425 l 1710 425 l 1710 492 l 1767 593 l 1704 593 l 1682 543 l 1661 593 l 1597 593 l 1656 492 m 1629 207 l 1678 207 l 1714 138 l 1750 207 l 1799 207 l 1799 56 l 1751 56 l 1751 115 l 1732 78 l 1697 78 l 1678 115 l 1678 56 l 1629 56 l 1629 207 z "},"4":{"ha":1818,"x_min":51,"x_max":1800,"o":"m 58 642 l 733 642 q 795 772 739 719 q 929 825 851 825 q 1063 772 1007 825 q 1125 642 1119 719 l 1800 642 l 1800 374 l 58 374 l 58 642 m 108 164 l 58 164 l 58 207 l 188 207 l 131 99 l 183 99 l 183 56 l 51 56 l 108 164 m 57 343 l 126 343 l 126 328 l 74 328 l 74 292 l 119 292 l 119 276 l 74 276 l 74 236 l 57 236 l 57 343 m 131 544 l 131 425 l 185 425 l 185 544 l 224 544 l 224 593 l 90 593 l 90 544 l 131 544 m 140 343 l 157 343 l 157 278 q 165 258 157 265 q 183 250 172 250 q 203 258 194 250 q 211 278 211 267 l 211 343 l 228 343 l 228 278 q 215 247 228 258 q 183 235 203 235 q 153 247 165 235 q 140 278 140 260 l 140 343 m 197 207 l 307 207 l 307 165 l 246 165 l 246 153 l 299 153 l 299 111 l 246 111 l 246 97 l 308 97 l 308 56 l 197 56 l 197 207 m 288 425 l 288 474 l 299 474 l 319 425 l 376 425 l 347 489 q 367 533 367 506 q 348 576 367 558 q 303 593 329 593 l 233 593 l 233 425 l 288 425 m 249 343 l 265 343 l 265 251 l 314 251 l 314 236 l 249 236 l 249 343 m 288 547 l 301 547 q 309 543 306 547 q 313 533 313 539 q 309 523 313 528 q 301 518 306 518 l 288 518 l 288 547 m 314 207 l 435 207 l 435 164 l 399 164 l 399 56 l 350 56 l 350 164 l 314 164 l 314 207 m 329 343 l 346 343 l 346 251 l 396 251 l 396 236 l 329 236 l 329 343 m 438 425 l 438 593 l 385 593 l 385 425 l 438 425 m 469 207 l 525 207 l 576 56 l 524 56 l 518 79 l 475 79 l 468 56 l 418 56 l 469 207 m 460 343 l 490 264 l 521 343 l 540 343 l 496 236 l 485 236 l 440 343 l 460 343 m 504 425 l 511 451 l 558 451 l 565 425 l 624 425 l 567 593 l 504 593 l 447 425 l 504 425 m 507 119 l 497 156 l 496 156 l 486 119 l 507 119 m 533 536 l 535 536 l 546 496 l 522 496 l 533 536 m 554 343 l 624 343 l 624 328 l 571 328 l 571 297 l 617 297 l 617 283 l 571 283 l 571 251 l 624 251 l 624 236 l 554 236 l 554 343 m 585 207 l 694 207 l 694 165 l 633 165 l 633 143 l 685 143 l 685 103 l 633 103 l 633 56 l 585 56 l 585 207 m 747 425 l 747 471 l 688 471 l 688 593 l 633 593 l 633 425 l 747 425 m 642 343 l 682 343 q 707 333 697 343 q 717 308 717 324 q 700 279 717 289 l 721 236 l 701 236 l 683 275 l 658 275 l 658 236 l 642 236 l 642 343 m 682 289 q 694 294 689 289 q 700 308 700 300 q 694 322 700 317 q 682 328 689 328 l 658 328 l 658 289 l 682 289 m 700 132 q 724 188 700 165 q 782 211 747 211 q 840 188 817 211 q 864 132 864 165 q 840 74 864 97 q 782 51 817 51 q 724 74 747 51 q 700 132 700 97 m 729 263 q 765 250 747 250 q 785 267 785 250 q 761 283 785 276 q 738 297 744 290 q 731 315 731 303 q 740 338 731 329 q 767 346 750 346 q 794 339 781 346 l 794 321 q 767 331 782 331 q 753 326 758 331 q 747 315 747 322 q 752 305 747 308 q 769 297 757 301 q 801 267 801 285 q 791 243 801 251 q 765 235 781 235 q 729 244 746 235 l 729 263 m 749 132 q 758 106 749 117 q 782 96 768 96 q 806 106 796 96 q 815 132 815 117 q 806 157 815 147 q 782 167 796 167 q 758 157 768 167 q 749 132 749 147 m 751 628 q 797 510 751 560 l 1029 740 l 792 740 q 751 628 751 692 m 811 496 q 929 451 863 451 q 1047 496 996 451 l 811 496 m 1047 760 q 929 806 994 806 q 811 760 861 806 l 1047 760 m 818 343 l 835 343 l 835 236 l 818 236 l 818 343 m 1065 515 q 1106 628 1106 564 q 1061 746 1106 694 l 831 515 l 1065 515 m 853 290 q 869 330 853 314 q 908 346 885 346 q 948 330 932 346 q 964 290 964 314 q 948 251 964 267 q 908 235 932 235 q 869 251 885 235 q 853 290 853 267 m 869 290 q 881 261 869 272 q 908 250 892 250 q 935 261 924 250 q 946 290 946 272 q 935 318 946 307 q 908 329 924 329 q 881 318 892 329 q 869 290 869 307 m 875 207 l 925 207 l 971 126 l 971 207 l 1019 207 l 1019 56 l 969 56 l 922 129 l 924 56 l 875 56 l 875 207 m 981 344 l 989 344 l 1057 268 l 1057 343 l 1074 343 l 1074 233 l 1065 233 l 997 308 l 997 236 l 981 236 l 981 344 m 1028 207 l 1147 207 l 1147 164 l 1113 164 l 1113 56 l 1064 56 l 1064 164 l 1028 164 l 1028 207 m 1121 296 l 1757 296 l 1739 311 l 1750 321 l 1785 288 l 1750 254 l 1739 264 l 1757 279 l 1121 279 l 1121 296 m 1140 510 q 1166 446 1140 471 q 1231 421 1192 421 q 1296 446 1269 421 q 1322 510 1322 471 q 1296 572 1322 547 q 1231 597 1269 597 q 1166 572 1192 597 q 1140 510 1140 547 m 1151 164 q 1168 199 1151 186 q 1214 211 1185 211 q 1258 200 1233 211 l 1258 153 q 1237 164 1250 160 q 1214 168 1224 168 q 1199 163 1199 168 q 1202 156 1199 158 q 1210 153 1206 154 q 1218 151 1214 153 q 1268 103 1268 140 q 1251 65 1268 79 q 1207 51 1233 51 q 1154 65 1176 51 l 1154 117 q 1207 94 1189 94 q 1219 103 1219 94 q 1210 111 1219 108 q 1196 115 1200 114 q 1162 134 1172 124 q 1151 164 1151 144 m 1193 510 q 1204 538 1193 526 q 1231 549 1215 549 q 1258 538 1247 549 q 1268 510 1268 526 q 1258 481 1268 492 q 1231 469 1247 469 q 1204 481 1215 469 q 1193 510 1193 492 m 1275 75 q 1282 91 1275 85 q 1300 97 1289 97 q 1317 91 1310 97 q 1324 75 1324 85 q 1317 58 1324 65 q 1300 51 1310 51 q 1282 58 1289 51 q 1275 75 1275 65 m 1332 132 q 1356 188 1332 165 q 1414 211 1379 211 q 1446 203 1432 211 l 1446 157 q 1415 167 1429 167 q 1391 157 1401 167 q 1381 132 1381 147 q 1390 106 1381 117 q 1415 96 1400 96 q 1450 110 1436 96 l 1449 61 q 1413 51 1429 51 q 1356 74 1379 51 q 1332 132 1332 97 m 1388 425 l 1386 507 l 1439 425 l 1494 425 l 1494 593 l 1440 593 l 1440 504 l 1389 593 l 1333 593 l 1333 425 l 1388 425 m 1454 132 q 1478 188 1454 165 q 1538 211 1503 211 q 1596 188 1572 211 q 1619 132 1619 165 q 1596 74 1619 97 q 1538 51 1572 51 q 1478 74 1501 51 q 1454 132 1454 97 m 1503 132 q 1513 106 1503 117 q 1538 96 1522 96 q 1561 106 1551 96 q 1571 132 1571 117 q 1561 156 1571 146 q 1538 167 1551 167 q 1513 157 1524 167 q 1503 132 1503 147 m 1625 425 l 1625 471 l 1565 471 l 1565 593 l 1511 593 l 1511 425 l 1625 425 m 1656 492 l 1656 425 l 1710 425 l 1710 492 l 1767 593 l 1704 593 l 1682 543 l 1661 593 l 1597 593 l 1656 492 m 1629 207 l 1678 207 l 1714 138 l 1750 207 l 1799 207 l 1799 56 l 1751 56 l 1751 115 l 1732 78 l 1697 78 l 1678 115 l 1678 56 l 1629 56 l 1629 207 z "},"5":{"ha":1818,"x_min":51,"x_max":1800,"o":"m 58 642 l 733 642 q 795 772 739 719 q 929 825 851 825 q 1063 772 1007 825 q 1125 642 1119 719 l 1800 642 l 1800 374 l 58 374 l 58 642 m 108 164 l 58 164 l 58 207 l 188 207 l 131 99 l 183 99 l 183 56 l 51 56 l 108 164 m 57 343 l 126 343 l 126 328 l 74 328 l 74 292 l 119 292 l 119 276 l 74 276 l 74 236 l 57 236 l 57 343 m 131 544 l 131 425 l 185 425 l 185 544 l 224 544 l 224 593 l 90 593 l 90 544 l 131 544 m 140 343 l 157 343 l 157 278 q 165 258 157 265 q 183 250 172 250 q 203 258 194 250 q 211 278 211 267 l 211 343 l 228 343 l 228 278 q 215 247 228 258 q 183 235 203 235 q 153 247 165 235 q 140 278 140 260 l 140 343 m 197 207 l 307 207 l 307 165 l 246 165 l 246 153 l 299 153 l 299 111 l 246 111 l 246 97 l 308 97 l 308 56 l 197 56 l 197 207 m 288 425 l 288 474 l 299 474 l 319 425 l 376 425 l 347 489 q 367 533 367 506 q 348 576 367 558 q 303 593 329 593 l 233 593 l 233 425 l 288 425 m 249 343 l 265 343 l 265 251 l 314 251 l 314 236 l 249 236 l 249 343 m 288 547 l 301 547 q 309 543 306 547 q 313 533 313 539 q 309 523 313 528 q 301 518 306 518 l 288 518 l 288 547 m 314 207 l 435 207 l 435 164 l 399 164 l 399 56 l 350 56 l 350 164 l 314 164 l 314 207 m 329 343 l 346 343 l 346 251 l 396 251 l 396 236 l 329 236 l 329 343 m 438 425 l 438 593 l 385 593 l 385 425 l 438 425 m 469 207 l 525 207 l 576 56 l 524 56 l 518 79 l 475 79 l 468 56 l 418 56 l 469 207 m 460 343 l 490 264 l 521 343 l 540 343 l 496 236 l 485 236 l 440 343 l 460 343 m 504 425 l 511 451 l 558 451 l 565 425 l 624 425 l 567 593 l 504 593 l 447 425 l 504 425 m 507 119 l 497 156 l 496 156 l 486 119 l 507 119 m 533 536 l 535 536 l 546 496 l 522 496 l 533 536 m 554 343 l 624 343 l 624 328 l 571 328 l 571 297 l 617 297 l 617 283 l 571 283 l 571 251 l 624 251 l 624 236 l 554 236 l 554 343 m 585 207 l 694 207 l 694 165 l 633 165 l 633 143 l 685 143 l 685 103 l 633 103 l 633 56 l 585 56 l 585 207 m 747 425 l 747 471 l 688 471 l 688 593 l 633 593 l 633 425 l 747 425 m 642 343 l 682 343 q 707 333 697 343 q 717 308 717 324 q 700 279 717 289 l 721 236 l 701 236 l 683 275 l 658 275 l 658 236 l 642 236 l 642 343 m 682 289 q 694 294 689 289 q 700 308 700 300 q 694 322 700 317 q 682 328 689 328 l 658 328 l 658 289 l 682 289 m 700 132 q 724 188 700 165 q 782 211 747 211 q 840 188 817 211 q 864 132 864 165 q 840 74 864 97 q 782 51 817 51 q 724 74 747 51 q 700 132 700 97 m 729 263 q 765 250 747 250 q 785 267 785 250 q 761 283 785 276 q 738 297 744 290 q 731 315 731 303 q 740 338 731 329 q 767 346 750 346 q 794 339 781 346 l 794 321 q 767 331 782 331 q 753 326 758 331 q 747 315 747 322 q 752 305 747 308 q 769 297 757 301 q 801 267 801 285 q 791 243 801 251 q 765 235 781 235 q 729 244 746 235 l 729 263 m 749 132 q 758 106 749 117 q 782 96 768 96 q 806 106 796 96 q 815 132 815 117 q 806 157 815 147 q 782 167 796 167 q 758 157 768 167 q 749 132 749 147 m 751 628 q 797 510 751 560 l 1029 740 l 792 740 q 751 628 751 692 m 811 496 q 929 451 863 451 q 1047 496 996 451 l 811 496 m 1047 760 q 929 806 994 806 q 811 760 861 806 l 1047 760 m 818 343 l 835 343 l 835 236 l 818 236 l 818 343 m 1065 515 q 1106 628 1106 564 q 1061 746 1106 694 l 831 515 l 1065 515 m 853 290 q 869 330 853 314 q 908 346 885 346 q 948 330 932 346 q 964 290 964 314 q 948 251 964 267 q 908 235 932 235 q 869 251 885 235 q 853 290 853 267 m 869 290 q 881 261 869 272 q 908 250 892 250 q 935 261 924 250 q 946 290 946 272 q 935 318 946 307 q 908 329 924 329 q 881 318 892 329 q 869 290 869 307 m 875 207 l 925 207 l 971 126 l 971 207 l 1019 207 l 1019 56 l 969 56 l 922 129 l 924 56 l 875 56 l 875 207 m 981 344 l 989 344 l 1057 268 l 1057 343 l 1074 343 l 1074 233 l 1065 233 l 997 308 l 997 236 l 981 236 l 981 344 m 1028 207 l 1147 207 l 1147 164 l 1113 164 l 1113 56 l 1064 56 l 1064 164 l 1028 164 l 1028 207 m 1121 296 l 1757 296 l 1739 311 l 1750 321 l 1785 288 l 1750 254 l 1739 264 l 1757 279 l 1121 279 l 1121 296 m 1140 510 q 1166 446 1140 471 q 1231 421 1192 421 q 1296 446 1269 421 q 1322 510 1322 471 q 1296 572 1322 547 q 1231 597 1269 597 q 1166 572 1192 597 q 1140 510 1140 547 m 1151 164 q 1168 199 1151 186 q 1214 211 1185 211 q 1258 200 1233 211 l 1258 153 q 1237 164 1250 160 q 1214 168 1224 168 q 1199 163 1199 168 q 1202 156 1199 158 q 1210 153 1206 154 q 1218 151 1214 153 q 1268 103 1268 140 q 1251 65 1268 79 q 1207 51 1233 51 q 1154 65 1176 51 l 1154 117 q 1207 94 1189 94 q 1219 103 1219 94 q 1210 111 1219 108 q 1196 115 1200 114 q 1162 134 1172 124 q 1151 164 1151 144 m 1193 510 q 1204 538 1193 526 q 1231 549 1215 549 q 1258 538 1247 549 q 1268 510 1268 526 q 1258 481 1268 492 q 1231 469 1247 469 q 1204 481 1215 469 q 1193 510 1193 492 m 1275 75 q 1282 91 1275 85 q 1300 97 1289 97 q 1317 91 1310 97 q 1324 75 1324 85 q 1317 58 1324 65 q 1300 51 1310 51 q 1282 58 1289 51 q 1275 75 1275 65 m 1332 132 q 1356 188 1332 165 q 1414 211 1379 211 q 1446 203 1432 211 l 1446 157 q 1415 167 1429 167 q 1391 157 1401 167 q 1381 132 1381 147 q 1390 106 1381 117 q 1415 96 1400 96 q 1450 110 1436 96 l 1449 61 q 1413 51 1429 51 q 1356 74 1379 51 q 1332 132 1332 97 m 1388 425 l 1386 507 l 1439 425 l 1494 425 l 1494 593 l 1440 593 l 1440 504 l 1389 593 l 1333 593 l 1333 425 l 1388 425 m 1454 132 q 1478 188 1454 165 q 1538 211 1503 211 q 1596 188 1572 211 q 1619 132 1619 165 q 1596 74 1619 97 q 1538 51 1572 51 q 1478 74 1501 51 q 1454 132 1454 97 m 1503 132 q 1513 106 1503 117 q 1538 96 1522 96 q 1561 106 1551 96 q 1571 132 1571 117 q 1561 156 1571 146 q 1538 167 1551 167 q 1513 157 1524 167 q 1503 132 1503 147 m 1625 425 l 1625 471 l 1565 471 l 1565 593 l 1511 593 l 1511 425 l 1625 425 m 1656 492 l 1656 425 l 1710 425 l 1710 492 l 1767 593 l 1704 593 l 1682 543 l 1661 593 l 1597 593 l 1656 492 m 1629 207 l 1678 207 l 1714 138 l 1750 207 l 1799 207 l 1799 56 l 1751 56 l 1751 115 l 1732 78 l 1697 78 l 1678 115 l 1678 56 l 1629 56 l 1629 207 z "},"6":{"ha":1818,"x_min":51,"x_max":1800,"o":"m 58 642 l 733 642 q 795 772 739 719 q 929 825 851 825 q 1063 772 1007 825 q 1125 642 1119 719 l 1800 642 l 1800 374 l 58 374 l 58 642 m 108 164 l 58 164 l 58 207 l 188 207 l 131 99 l 183 99 l 183 56 l 51 56 l 108 164 m 57 343 l 126 343 l 126 328 l 74 328 l 74 292 l 119 292 l 119 276 l 74 276 l 74 236 l 57 236 l 57 343 m 131 544 l 131 425 l 185 425 l 185 544 l 224 544 l 224 593 l 90 593 l 90 544 l 131 544 m 140 343 l 157 343 l 157 278 q 165 258 157 265 q 183 250 172 250 q 203 258 194 250 q 211 278 211 267 l 211 343 l 228 343 l 228 278 q 215 247 228 258 q 183 235 203 235 q 153 247 165 235 q 140 278 140 260 l 140 343 m 197 207 l 307 207 l 307 165 l 246 165 l 246 153 l 299 153 l 299 111 l 246 111 l 246 97 l 308 97 l 308 56 l 197 56 l 197 207 m 288 425 l 288 474 l 299 474 l 319 425 l 376 425 l 347 489 q 367 533 367 506 q 348 576 367 558 q 303 593 329 593 l 233 593 l 233 425 l 288 425 m 249 343 l 265 343 l 265 251 l 314 251 l 314 236 l 249 236 l 249 343 m 288 547 l 301 547 q 309 543 306 547 q 313 533 313 539 q 309 523 313 528 q 301 518 306 518 l 288 518 l 288 547 m 314 207 l 435 207 l 435 164 l 399 164 l 399 56 l 350 56 l 350 164 l 314 164 l 314 207 m 329 343 l 346 343 l 346 251 l 396 251 l 396 236 l 329 236 l 329 343 m 438 425 l 438 593 l 385 593 l 385 425 l 438 425 m 469 207 l 525 207 l 576 56 l 524 56 l 518 79 l 475 79 l 468 56 l 418 56 l 469 207 m 460 343 l 490 264 l 521 343 l 540 343 l 496 236 l 485 236 l 440 343 l 460 343 m 504 425 l 511 451 l 558 451 l 565 425 l 624 425 l 567 593 l 504 593 l 447 425 l 504 425 m 507 119 l 497 156 l 496 156 l 486 119 l 507 119 m 533 536 l 535 536 l 546 496 l 522 496 l 533 536 m 554 343 l 624 343 l 624 328 l 571 328 l 571 297 l 617 297 l 617 283 l 571 283 l 571 251 l 624 251 l 624 236 l 554 236 l 554 343 m 585 207 l 694 207 l 694 165 l 633 165 l 633 143 l 685 143 l 685 103 l 633 103 l 633 56 l 585 56 l 585 207 m 747 425 l 747 471 l 688 471 l 688 593 l 633 593 l 633 425 l 747 425 m 642 343 l 682 343 q 707 333 697 343 q 717 308 717 324 q 700 279 717 289 l 721 236 l 701 236 l 683 275 l 658 275 l 658 236 l 642 236 l 642 343 m 682 289 q 694 294 689 289 q 700 308 700 300 q 694 322 700 317 q 682 328 689 328 l 658 328 l 658 289 l 682 289 m 700 132 q 724 188 700 165 q 782 211 747 211 q 840 188 817 211 q 864 132 864 165 q 840 74 864 97 q 782 51 817 51 q 724 74 747 51 q 700 132 700 97 m 729 263 q 765 250 747 250 q 785 267 785 250 q 761 283 785 276 q 738 297 744 290 q 731 315 731 303 q 740 338 731 329 q 767 346 750 346 q 794 339 781 346 l 794 321 q 767 331 782 331 q 753 326 758 331 q 747 315 747 322 q 752 305 747 308 q 769 297 757 301 q 801 267 801 285 q 791 243 801 251 q 765 235 781 235 q 729 244 746 235 l 729 263 m 749 132 q 758 106 749 117 q 782 96 768 96 q 806 106 796 96 q 815 132 815 117 q 806 157 815 147 q 782 167 796 167 q 758 157 768 167 q 749 132 749 147 m 751 628 q 797 510 751 560 l 1029 740 l 792 740 q 751 628 751 692 m 811 496 q 929 451 863 451 q 1047 496 996 451 l 811 496 m 1047 760 q 929 806 994 806 q 811 760 861 806 l 1047 760 m 818 343 l 835 343 l 835 236 l 818 236 l 818 343 m 1065 515 q 1106 628 1106 564 q 1061 746 1106 694 l 831 515 l 1065 515 m 853 290 q 869 330 853 314 q 908 346 885 346 q 948 330 932 346 q 964 290 964 314 q 948 251 964 267 q 908 235 932 235 q 869 251 885 235 q 853 290 853 267 m 869 290 q 881 261 869 272 q 908 250 892 250 q 935 261 924 250 q 946 290 946 272 q 935 318 946 307 q 908 329 924 329 q 881 318 892 329 q 869 290 869 307 m 875 207 l 925 207 l 971 126 l 971 207 l 1019 207 l 1019 56 l 969 56 l 922 129 l 924 56 l 875 56 l 875 207 m 981 344 l 989 344 l 1057 268 l 1057 343 l 1074 343 l 1074 233 l 1065 233 l 997 308 l 997 236 l 981 236 l 981 344 m 1028 207 l 1147 207 l 1147 164 l 1113 164 l 1113 56 l 1064 56 l 1064 164 l 1028 164 l 1028 207 m 1121 296 l 1757 296 l 1739 311 l 1750 321 l 1785 288 l 1750 254 l 1739 264 l 1757 279 l 1121 279 l 1121 296 m 1140 510 q 1166 446 1140 471 q 1231 421 1192 421 q 1296 446 1269 421 q 1322 510 1322 471 q 1296 572 1322 547 q 1231 597 1269 597 q 1166 572 1192 597 q 1140 510 1140 547 m 1151 164 q 1168 199 1151 186 q 1214 211 1185 211 q 1258 200 1233 211 l 1258 153 q 1237 164 1250 160 q 1214 168 1224 168 q 1199 163 1199 168 q 1202 156 1199 158 q 1210 153 1206 154 q 1218 151 1214 153 q 1268 103 1268 140 q 1251 65 1268 79 q 1207 51 1233 51 q 1154 65 1176 51 l 1154 117 q 1207 94 1189 94 q 1219 103 1219 94 q 1210 111 1219 108 q 1196 115 1200 114 q 1162 134 1172 124 q 1151 164 1151 144 m 1193 510 q 1204 538 1193 526 q 1231 549 1215 549 q 1258 538 1247 549 q 1268 510 1268 526 q 1258 481 1268 492 q 1231 469 1247 469 q 1204 481 1215 469 q 1193 510 1193 492 m 1275 75 q 1282 91 1275 85 q 1300 97 1289 97 q 1317 91 1310 97 q 1324 75 1324 85 q 1317 58 1324 65 q 1300 51 1310 51 q 1282 58 1289 51 q 1275 75 1275 65 m 1332 132 q 1356 188 1332 165 q 1414 211 1379 211 q 1446 203 1432 211 l 1446 157 q 1415 167 1429 167 q 1391 157 1401 167 q 1381 132 1381 147 q 1390 106 1381 117 q 1415 96 1400 96 q 1450 110 1436 96 l 1449 61 q 1413 51 1429 51 q 1356 74 1379 51 q 1332 132 1332 97 m 1388 425 l 1386 507 l 1439 425 l 1494 425 l 1494 593 l 1440 593 l 1440 504 l 1389 593 l 1333 593 l 1333 425 l 1388 425 m 1454 132 q 1478 188 1454 165 q 1538 211 1503 211 q 1596 188 1572 211 q 1619 132 1619 165 q 1596 74 1619 97 q 1538 51 1572 51 q 1478 74 1501 51 q 1454 132 1454 97 m 1503 132 q 1513 106 1503 117 q 1538 96 1522 96 q 1561 106 1551 96 q 1571 132 1571 117 q 1561 156 1571 146 q 1538 167 1551 167 q 1513 157 1524 167 q 1503 132 1503 147 m 1625 425 l 1625 471 l 1565 471 l 1565 593 l 1511 593 l 1511 425 l 1625 425 m 1656 492 l 1656 425 l 1710 425 l 1710 492 l 1767 593 l 1704 593 l 1682 543 l 1661 593 l 1597 593 l 1656 492 m 1629 207 l 1678 207 l 1714 138 l 1750 207 l 1799 207 l 1799 56 l 1751 56 l 1751 115 l 1732 78 l 1697 78 l 1678 115 l 1678 56 l 1629 56 l 1629 207 z "},"7":{"ha":1818,"x_min":51,"x_max":1800,"o":"m 58 642 l 733 642 q 795 772 739 719 q 929 825 851 825 q 1063 772 1007 825 q 1125 642 1119 719 l 1800 642 l 1800 374 l 58 374 l 58 642 m 108 164 l 58 164 l 58 207 l 188 207 l 131 99 l 183 99 l 183 56 l 51 56 l 108 164 m 57 343 l 126 343 l 126 328 l 74 328 l 74 292 l 119 292 l 119 276 l 74 276 l 74 236 l 57 236 l 57 343 m 131 544 l 131 425 l 185 425 l 185 544 l 224 544 l 224 593 l 90 593 l 90 544 l 131 544 m 140 343 l 157 343 l 157 278 q 165 258 157 265 q 183 250 172 250 q 203 258 194 250 q 211 278 211 267 l 211 343 l 228 343 l 228 278 q 215 247 228 258 q 183 235 203 235 q 153 247 165 235 q 140 278 140 260 l 140 343 m 197 207 l 307 207 l 307 165 l 246 165 l 246 153 l 299 153 l 299 111 l 246 111 l 246 97 l 308 97 l 308 56 l 197 56 l 197 207 m 288 425 l 288 474 l 299 474 l 319 425 l 376 425 l 347 489 q 367 533 367 506 q 348 576 367 558 q 303 593 329 593 l 233 593 l 233 425 l 288 425 m 249 343 l 265 343 l 265 251 l 314 251 l 314 236 l 249 236 l 249 343 m 288 547 l 301 547 q 309 543 306 547 q 313 533 313 539 q 309 523 313 528 q 301 518 306 518 l 288 518 l 288 547 m 314 207 l 435 207 l 435 164 l 399 164 l 399 56 l 350 56 l 350 164 l 314 164 l 314 207 m 329 343 l 346 343 l 346 251 l 396 251 l 396 236 l 329 236 l 329 343 m 438 425 l 438 593 l 385 593 l 385 425 l 438 425 m 469 207 l 525 207 l 576 56 l 524 56 l 518 79 l 475 79 l 468 56 l 418 56 l 469 207 m 460 343 l 490 264 l 521 343 l 540 343 l 496 236 l 485 236 l 440 343 l 460 343 m 504 425 l 511 451 l 558 451 l 565 425 l 624 425 l 567 593 l 504 593 l 447 425 l 504 425 m 507 119 l 497 156 l 496 156 l 486 119 l 507 119 m 533 536 l 535 536 l 546 496 l 522 496 l 533 536 m 554 343 l 624 343 l 624 328 l 571 328 l 571 297 l 617 297 l 617 283 l 571 283 l 571 251 l 624 251 l 624 236 l 554 236 l 554 343 m 585 207 l 694 207 l 694 165 l 633 165 l 633 143 l 685 143 l 685 103 l 633 103 l 633 56 l 585 56 l 585 207 m 747 425 l 747 471 l 688 471 l 688 593 l 633 593 l 633 425 l 747 425 m 642 343 l 682 343 q 707 333 697 343 q 717 308 717 324 q 700 279 717 289 l 721 236 l 701 236 l 683 275 l 658 275 l 658 236 l 642 236 l 642 343 m 682 289 q 694 294 689 289 q 700 308 700 300 q 694 322 700 317 q 682 328 689 328 l 658 328 l 658 289 l 682 289 m 700 132 q 724 188 700 165 q 782 211 747 211 q 840 188 817 211 q 864 132 864 165 q 840 74 864 97 q 782 51 817 51 q 724 74 747 51 q 700 132 700 97 m 729 263 q 765 250 747 250 q 785 267 785 250 q 761 283 785 276 q 738 297 744 290 q 731 315 731 303 q 740 338 731 329 q 767 346 750 346 q 794 339 781 346 l 794 321 q 767 331 782 331 q 753 326 758 331 q 747 315 747 322 q 752 305 747 308 q 769 297 757 301 q 801 267 801 285 q 791 243 801 251 q 765 235 781 235 q 729 244 746 235 l 729 263 m 749 132 q 758 106 749 117 q 782 96 768 96 q 806 106 796 96 q 815 132 815 117 q 806 157 815 147 q 782 167 796 167 q 758 157 768 167 q 749 132 749 147 m 751 628 q 797 510 751 560 l 1029 740 l 792 740 q 751 628 751 692 m 811 496 q 929 451 863 451 q 1047 496 996 451 l 811 496 m 1047 760 q 929 806 994 806 q 811 760 861 806 l 1047 760 m 818 343 l 835 343 l 835 236 l 818 236 l 818 343 m 1065 515 q 1106 628 1106 564 q 1061 746 1106 694 l 831 515 l 1065 515 m 853 290 q 869 330 853 314 q 908 346 885 346 q 948 330 932 346 q 964 290 964 314 q 948 251 964 267 q 908 235 932 235 q 869 251 885 235 q 853 290 853 267 m 869 290 q 881 261 869 272 q 908 250 892 250 q 935 261 924 250 q 946 290 946 272 q 935 318 946 307 q 908 329 924 329 q 881 318 892 329 q 869 290 869 307 m 875 207 l 925 207 l 971 126 l 971 207 l 1019 207 l 1019 56 l 969 56 l 922 129 l 924 56 l 875 56 l 875 207 m 981 344 l 989 344 l 1057 268 l 1057 343 l 1074 343 l 1074 233 l 1065 233 l 997 308 l 997 236 l 981 236 l 981 344 m 1028 207 l 1147 207 l 1147 164 l 1113 164 l 1113 56 l 1064 56 l 1064 164 l 1028 164 l 1028 207 m 1121 296 l 1757 296 l 1739 311 l 1750 321 l 1785 288 l 1750 254 l 1739 264 l 1757 279 l 1121 279 l 1121 296 m 1140 510 q 1166 446 1140 471 q 1231 421 1192 421 q 1296 446 1269 421 q 1322 510 1322 471 q 1296 572 1322 547 q 1231 597 1269 597 q 1166 572 1192 597 q 1140 510 1140 547 m 1151 164 q 1168 199 1151 186 q 1214 211 1185 211 q 1258 200 1233 211 l 1258 153 q 1237 164 1250 160 q 1214 168 1224 168 q 1199 163 1199 168 q 1202 156 1199 158 q 1210 153 1206 154 q 1218 151 1214 153 q 1268 103 1268 140 q 1251 65 1268 79 q 1207 51 1233 51 q 1154 65 1176 51 l 1154 117 q 1207 94 1189 94 q 1219 103 1219 94 q 1210 111 1219 108 q 1196 115 1200 114 q 1162 134 1172 124 q 1151 164 1151 144 m 1193 510 q 1204 538 1193 526 q 1231 549 1215 549 q 1258 538 1247 549 q 1268 510 1268 526 q 1258 481 1268 492 q 1231 469 1247 469 q 1204 481 1215 469 q 1193 510 1193 492 m 1275 75 q 1282 91 1275 85 q 1300 97 1289 97 q 1317 91 1310 97 q 1324 75 1324 85 q 1317 58 1324 65 q 1300 51 1310 51 q 1282 58 1289 51 q 1275 75 1275 65 m 1332 132 q 1356 188 1332 165 q 1414 211 1379 211 q 1446 203 1432 211 l 1446 157 q 1415 167 1429 167 q 1391 157 1401 167 q 1381 132 1381 147 q 1390 106 1381 117 q 1415 96 1400 96 q 1450 110 1436 96 l 1449 61 q 1413 51 1429 51 q 1356 74 1379 51 q 1332 132 1332 97 m 1388 425 l 1386 507 l 1439 425 l 1494 425 l 1494 593 l 1440 593 l 1440 504 l 1389 593 l 1333 593 l 1333 425 l 1388 425 m 1454 132 q 1478 188 1454 165 q 1538 211 1503 211 q 1596 188 1572 211 q 1619 132 1619 165 q 1596 74 1619 97 q 1538 51 1572 51 q 1478 74 1501 51 q 1454 132 1454 97 m 1503 132 q 1513 106 1503 117 q 1538 96 1522 96 q 1561 106 1551 96 q 1571 132 1571 117 q 1561 156 1571 146 q 1538 167 1551 167 q 1513 157 1524 167 q 1503 132 1503 147 m 1625 425 l 1625 471 l 1565 471 l 1565 593 l 1511 593 l 1511 425 l 1625 425 m 1656 492 l 1656 425 l 1710 425 l 1710 492 l 1767 593 l 1704 593 l 1682 543 l 1661 593 l 1597 593 l 1656 492 m 1629 207 l 1678 207 l 1714 138 l 1750 207 l 1799 207 l 1799 56 l 1751 56 l 1751 115 l 1732 78 l 1697 78 l 1678 115 l 1678 56 l 1629 56 l 1629 207 z "},"8":{"ha":1818,"x_min":51,"x_max":1800,"o":"m 58 642 l 733 642 q 795 772 739 719 q 929 825 851 825 q 1063 772 1007 825 q 1125 642 1119 719 l 1800 642 l 1800 374 l 58 374 l 58 642 m 108 164 l 58 164 l 58 207 l 188 207 l 131 99 l 183 99 l 183 56 l 51 56 l 108 164 m 57 343 l 126 343 l 126 328 l 74 328 l 74 292 l 119 292 l 119 276 l 74 276 l 74 236 l 57 236 l 57 343 m 131 544 l 131 425 l 185 425 l 185 544 l 224 544 l 224 593 l 90 593 l 90 544 l 131 544 m 140 343 l 157 343 l 157 278 q 165 258 157 265 q 183 250 172 250 q 203 258 194 250 q 211 278 211 267 l 211 343 l 228 343 l 228 278 q 215 247 228 258 q 183 235 203 235 q 153 247 165 235 q 140 278 140 260 l 140 343 m 197 207 l 307 207 l 307 165 l 246 165 l 246 153 l 299 153 l 299 111 l 246 111 l 246 97 l 308 97 l 308 56 l 197 56 l 197 207 m 288 425 l 288 474 l 299 474 l 319 425 l 376 425 l 347 489 q 367 533 367 506 q 348 576 367 558 q 303 593 329 593 l 233 593 l 233 425 l 288 425 m 249 343 l 265 343 l 265 251 l 314 251 l 314 236 l 249 236 l 249 343 m 288 547 l 301 547 q 309 543 306 547 q 313 533 313 539 q 309 523 313 528 q 301 518 306 518 l 288 518 l 288 547 m 314 207 l 435 207 l 435 164 l 399 164 l 399 56 l 350 56 l 350 164 l 314 164 l 314 207 m 329 343 l 346 343 l 346 251 l 396 251 l 396 236 l 329 236 l 329 343 m 438 425 l 438 593 l 385 593 l 385 425 l 438 425 m 469 207 l 525 207 l 576 56 l 524 56 l 518 79 l 475 79 l 468 56 l 418 56 l 469 207 m 460 343 l 490 264 l 521 343 l 540 343 l 496 236 l 485 236 l 440 343 l 460 343 m 504 425 l 511 451 l 558 451 l 565 425 l 624 425 l 567 593 l 504 593 l 447 425 l 504 425 m 507 119 l 497 156 l 496 156 l 486 119 l 507 119 m 533 536 l 535 536 l 546 496 l 522 496 l 533 536 m 554 343 l 624 343 l 624 328 l 571 328 l 571 297 l 617 297 l 617 283 l 571 283 l 571 251 l 624 251 l 624 236 l 554 236 l 554 343 m 585 207 l 694 207 l 694 165 l 633 165 l 633 143 l 685 143 l 685 103 l 633 103 l 633 56 l 585 56 l 585 207 m 747 425 l 747 471 l 688 471 l 688 593 l 633 593 l 633 425 l 747 425 m 642 343 l 682 343 q 707 333 697 343 q 717 308 717 324 q 700 279 717 289 l 721 236 l 701 236 l 683 275 l 658 275 l 658 236 l 642 236 l 642 343 m 682 289 q 694 294 689 289 q 700 308 700 300 q 694 322 700 317 q 682 328 689 328 l 658 328 l 658 289 l 682 289 m 700 132 q 724 188 700 165 q 782 211 747 211 q 840 188 817 211 q 864 132 864 165 q 840 74 864 97 q 782 51 817 51 q 724 74 747 51 q 700 132 700 97 m 729 263 q 765 250 747 250 q 785 267 785 250 q 761 283 785 276 q 738 297 744 290 q 731 315 731 303 q 740 338 731 329 q 767 346 750 346 q 794 339 781 346 l 794 321 q 767 331 782 331 q 753 326 758 331 q 747 315 747 322 q 752 305 747 308 q 769 297 757 301 q 801 267 801 285 q 791 243 801 251 q 765 235 781 235 q 729 244 746 235 l 729 263 m 749 132 q 758 106 749 117 q 782 96 768 96 q 806 106 796 96 q 815 132 815 117 q 806 157 815 147 q 782 167 796 167 q 758 157 768 167 q 749 132 749 147 m 751 628 q 797 510 751 560 l 1029 740 l 792 740 q 751 628 751 692 m 811 496 q 929 451 863 451 q 1047 496 996 451 l 811 496 m 1047 760 q 929 806 994 806 q 811 760 861 806 l 1047 760 m 818 343 l 835 343 l 835 236 l 818 236 l 818 343 m 1065 515 q 1106 628 1106 564 q 1061 746 1106 694 l 831 515 l 1065 515 m 853 290 q 869 330 853 314 q 908 346 885 346 q 948 330 932 346 q 964 290 964 314 q 948 251 964 267 q 908 235 932 235 q 869 251 885 235 q 853 290 853 267 m 869 290 q 881 261 869 272 q 908 250 892 250 q 935 261 924 250 q 946 290 946 272 q 935 318 946 307 q 908 329 924 329 q 881 318 892 329 q 869 290 869 307 m 875 207 l 925 207 l 971 126 l 971 207 l 1019 207 l 1019 56 l 969 56 l 922 129 l 924 56 l 875 56 l 875 207 m 981 344 l 989 344 l 1057 268 l 1057 343 l 1074 343 l 1074 233 l 1065 233 l 997 308 l 997 236 l 981 236 l 981 344 m 1028 207 l 1147 207 l 1147 164 l 1113 164 l 1113 56 l 1064 56 l 1064 164 l 1028 164 l 1028 207 m 1121 296 l 1757 296 l 1739 311 l 1750 321 l 1785 288 l 1750 254 l 1739 264 l 1757 279 l 1121 279 l 1121 296 m 1140 510 q 1166 446 1140 471 q 1231 421 1192 421 q 1296 446 1269 421 q 1322 510 1322 471 q 1296 572 1322 547 q 1231 597 1269 597 q 1166 572 1192 597 q 1140 510 1140 547 m 1151 164 q 1168 199 1151 186 q 1214 211 1185 211 q 1258 200 1233 211 l 1258 153 q 1237 164 1250 160 q 1214 168 1224 168 q 1199 163 1199 168 q 1202 156 1199 158 q 1210 153 1206 154 q 1218 151 1214 153 q 1268 103 1268 140 q 1251 65 1268 79 q 1207 51 1233 51 q 1154 65 1176 51 l 1154 117 q 1207 94 1189 94 q 1219 103 1219 94 q 1210 111 1219 108 q 1196 115 1200 114 q 1162 134 1172 124 q 1151 164 1151 144 m 1193 510 q 1204 538 1193 526 q 1231 549 1215 549 q 1258 538 1247 549 q 1268 510 1268 526 q 1258 481 1268 492 q 1231 469 1247 469 q 1204 481 1215 469 q 1193 510 1193 492 m 1275 75 q 1282 91 1275 85 q 1300 97 1289 97 q 1317 91 1310 97 q 1324 75 1324 85 q 1317 58 1324 65 q 1300 51 1310 51 q 1282 58 1289 51 q 1275 75 1275 65 m 1332 132 q 1356 188 1332 165 q 1414 211 1379 211 q 1446 203 1432 211 l 1446 157 q 1415 167 1429 167 q 1391 157 1401 167 q 1381 132 1381 147 q 1390 106 1381 117 q 1415 96 1400 96 q 1450 110 1436 96 l 1449 61 q 1413 51 1429 51 q 1356 74 1379 51 q 1332 132 1332 97 m 1388 425 l 1386 507 l 1439 425 l 1494 425 l 1494 593 l 1440 593 l 1440 504 l 1389 593 l 1333 593 l 1333 425 l 1388 425 m 1454 132 q 1478 188 1454 165 q 1538 211 1503 211 q 1596 188 1572 211 q 1619 132 1619 165 q 1596 74 1619 97 q 1538 51 1572 51 q 1478 74 1501 51 q 1454 132 1454 97 m 1503 132 q 1513 106 1503 117 q 1538 96 1522 96 q 1561 106 1551 96 q 1571 132 1571 117 q 1561 156 1571 146 q 1538 167 1551 167 q 1513 157 1524 167 q 1503 132 1503 147 m 1625 425 l 1625 471 l 1565 471 l 1565 593 l 1511 593 l 1511 425 l 1625 425 m 1656 492 l 1656 425 l 1710 425 l 1710 492 l 1767 593 l 1704 593 l 1682 543 l 1661 593 l 1597 593 l 1656 492 m 1629 207 l 1678 207 l 1714 138 l 1750 207 l 1799 207 l 1799 56 l 1751 56 l 1751 115 l 1732 78 l 1697 78 l 1678 115 l 1678 56 l 1629 56 l 1629 207 z "},"9":{"ha":1818,"x_min":51,"x_max":1800,"o":"m 58 642 l 733 642 q 795 772 739 719 q 929 825 851 825 q 1063 772 1007 825 q 1125 642 1119 719 l 1800 642 l 1800 374 l 58 374 l 58 642 m 108 164 l 58 164 l 58 207 l 188 207 l 131 99 l 183 99 l 183 56 l 51 56 l 108 164 m 57 343 l 126 343 l 126 328 l 74 328 l 74 292 l 119 292 l 119 276 l 74 276 l 74 236 l 57 236 l 57 343 m 131 544 l 131 425 l 185 425 l 185 544 l 224 544 l 224 593 l 90 593 l 90 544 l 131 544 m 140 343 l 157 343 l 157 278 q 165 258 157 265 q 183 250 172 250 q 203 258 194 250 q 211 278 211 267 l 211 343 l 228 343 l 228 278 q 215 247 228 258 q 183 235 203 235 q 153 247 165 235 q 140 278 140 260 l 140 343 m 197 207 l 307 207 l 307 165 l 246 165 l 246 153 l 299 153 l 299 111 l 246 111 l 246 97 l 308 97 l 308 56 l 197 56 l 197 207 m 288 425 l 288 474 l 299 474 l 319 425 l 376 425 l 347 489 q 367 533 367 506 q 348 576 367 558 q 303 593 329 593 l 233 593 l 233 425 l 288 425 m 249 343 l 265 343 l 265 251 l 314 251 l 314 236 l 249 236 l 249 343 m 288 547 l 301 547 q 309 543 306 547 q 313 533 313 539 q 309 523 313 528 q 301 518 306 518 l 288 518 l 288 547 m 314 207 l 435 207 l 435 164 l 399 164 l 399 56 l 350 56 l 350 164 l 314 164 l 314 207 m 329 343 l 346 343 l 346 251 l 396 251 l 396 236 l 329 236 l 329 343 m 438 425 l 438 593 l 385 593 l 385 425 l 438 425 m 469 207 l 525 207 l 576 56 l 524 56 l 518 79 l 475 79 l 468 56 l 418 56 l 469 207 m 460 343 l 490 264 l 521 343 l 540 343 l 496 236 l 485 236 l 440 343 l 460 343 m 504 425 l 511 451 l 558 451 l 565 425 l 624 425 l 567 593 l 504 593 l 447 425 l 504 425 m 507 119 l 497 156 l 496 156 l 486 119 l 507 119 m 533 536 l 535 536 l 546 496 l 522 496 l 533 536 m 554 343 l 624 343 l 624 328 l 571 328 l 571 297 l 617 297 l 617 283 l 571 283 l 571 251 l 624 251 l 624 236 l 554 236 l 554 343 m 585 207 l 694 207 l 694 165 l 633 165 l 633 143 l 685 143 l 685 103 l 633 103 l 633 56 l 585 56 l 585 207 m 747 425 l 747 471 l 688 471 l 688 593 l 633 593 l 633 425 l 747 425 m 642 343 l 682 343 q 707 333 697 343 q 717 308 717 324 q 700 279 717 289 l 721 236 l 701 236 l 683 275 l 658 275 l 658 236 l 642 236 l 642 343 m 682 289 q 694 294 689 289 q 700 308 700 300 q 694 322 700 317 q 682 328 689 328 l 658 328 l 658 289 l 682 289 m 700 132 q 724 188 700 165 q 782 211 747 211 q 840 188 817 211 q 864 132 864 165 q 840 74 864 97 q 782 51 817 51 q 724 74 747 51 q 700 132 700 97 m 729 263 q 765 250 747 250 q 785 267 785 250 q 761 283 785 276 q 738 297 744 290 q 731 315 731 303 q 740 338 731 329 q 767 346 750 346 q 794 339 781 346 l 794 321 q 767 331 782 331 q 753 326 758 331 q 747 315 747 322 q 752 305 747 308 q 769 297 757 301 q 801 267 801 285 q 791 243 801 251 q 765 235 781 235 q 729 244 746 235 l 729 263 m 749 132 q 758 106 749 117 q 782 96 768 96 q 806 106 796 96 q 815 132 815 117 q 806 157 815 147 q 782 167 796 167 q 758 157 768 167 q 749 132 749 147 m 751 628 q 797 510 751 560 l 1029 740 l 792 740 q 751 628 751 692 m 811 496 q 929 451 863 451 q 1047 496 996 451 l 811 496 m 1047 760 q 929 806 994 806 q 811 760 861 806 l 1047 760 m 818 343 l 835 343 l 835 236 l 818 236 l 818 343 m 1065 515 q 1106 628 1106 564 q 1061 746 1106 694 l 831 515 l 1065 515 m 853 290 q 869 330 853 314 q 908 346 885 346 q 948 330 932 346 q 964 290 964 314 q 948 251 964 267 q 908 235 932 235 q 869 251 885 235 q 853 290 853 267 m 869 290 q 881 261 869 272 q 908 250 892 250 q 935 261 924 250 q 946 290 946 272 q 935 318 946 307 q 908 329 924 329 q 881 318 892 329 q 869 290 869 307 m 875 207 l 925 207 l 971 126 l 971 207 l 1019 207 l 1019 56 l 969 56 l 922 129 l 924 56 l 875 56 l 875 207 m 981 344 l 989 344 l 1057 268 l 1057 343 l 1074 343 l 1074 233 l 1065 233 l 997 308 l 997 236 l 981 236 l 981 344 m 1028 207 l 1147 207 l 1147 164 l 1113 164 l 1113 56 l 1064 56 l 1064 164 l 1028 164 l 1028 207 m 1121 296 l 1757 296 l 1739 311 l 1750 321 l 1785 288 l 1750 254 l 1739 264 l 1757 279 l 1121 279 l 1121 296 m 1140 510 q 1166 446 1140 471 q 1231 421 1192 421 q 1296 446 1269 421 q 1322 510 1322 471 q 1296 572 1322 547 q 1231 597 1269 597 q 1166 572 1192 597 q 1140 510 1140 547 m 1151 164 q 1168 199 1151 186 q 1214 211 1185 211 q 1258 200 1233 211 l 1258 153 q 1237 164 1250 160 q 1214 168 1224 168 q 1199 163 1199 168 q 1202 156 1199 158 q 1210 153 1206 154 q 1218 151 1214 153 q 1268 103 1268 140 q 1251 65 1268 79 q 1207 51 1233 51 q 1154 65 1176 51 l 1154 117 q 1207 94 1189 94 q 1219 103 1219 94 q 1210 111 1219 108 q 1196 115 1200 114 q 1162 134 1172 124 q 1151 164 1151 144 m 1193 510 q 1204 538 1193 526 q 1231 549 1215 549 q 1258 538 1247 549 q 1268 510 1268 526 q 1258 481 1268 492 q 1231 469 1247 469 q 1204 481 1215 469 q 1193 510 1193 492 m 1275 75 q 1282 91 1275 85 q 1300 97 1289 97 q 1317 91 1310 97 q 1324 75 1324 85 q 1317 58 1324 65 q 1300 51 1310 51 q 1282 58 1289 51 q 1275 75 1275 65 m 1332 132 q 1356 188 1332 165 q 1414 211 1379 211 q 1446 203 1432 211 l 1446 157 q 1415 167 1429 167 q 1391 157 1401 167 q 1381 132 1381 147 q 1390 106 1381 117 q 1415 96 1400 96 q 1450 110 1436 96 l 1449 61 q 1413 51 1429 51 q 1356 74 1379 51 q 1332 132 1332 97 m 1388 425 l 1386 507 l 1439 425 l 1494 425 l 1494 593 l 1440 593 l 1440 504 l 1389 593 l 1333 593 l 1333 425 l 1388 425 m 1454 132 q 1478 188 1454 165 q 1538 211 1503 211 q 1596 188 1572 211 q 1619 132 1619 165 q 1596 74 1619 97 q 1538 51 1572 51 q 1478 74 1501 51 q 1454 132 1454 97 m 1503 132 q 1513 106 1503 117 q 1538 96 1522 96 q 1561 106 1551 96 q 1571 132 1571 117 q 1561 156 1571 146 q 1538 167 1551 167 q 1513 157 1524 167 q 1503 132 1503 147 m 1625 425 l 1625 471 l 1565 471 l 1565 593 l 1511 593 l 1511 425 l 1625 425 m 1656 492 l 1656 425 l 1710 425 l 1710 492 l 1767 593 l 1704 593 l 1682 543 l 1661 593 l 1597 593 l 1656 492 m 1629 207 l 1678 207 l 1714 138 l 1750 207 l 1799 207 l 1799 56 l 1751 56 l 1751 115 l 1732 78 l 1697 78 l 1678 115 l 1678 56 l 1629 56 l 1629 207 z "},"\r":{"ha":833,"x_min":0,"x_max":0,"o":""}," ":{"ha":342,"x_min":0,"x_max":0,"o":""},"A":{"ha":907,"x_min":6,"x_max":901,"o":"m 182 482 l 349 963 l 553 963 l 722 482 l 901 0 l 703 0 l 628 226 l 449 228 l 272 226 l 199 0 l 6 0 l 182 482 m 449 367 l 588 368 l 450 769 l 447 769 l 313 368 l 449 367 z "},"B":{"ha":874,"x_min":85,"x_max":846,"o":"m 89 482 l 85 963 l 481 963 q 725 905 639 963 q 811 718 811 847 q 767 574 811 629 q 635 499 722 518 l 635 494 q 792 426 738 482 q 846 269 846 369 q 747 67 846 135 q 478 0 647 0 l 85 0 l 89 482 m 267 138 l 461 138 q 665 286 665 138 q 465 428 665 428 l 264 428 l 267 138 m 465 561 q 596 595 556 561 q 636 693 636 629 q 592 796 636 764 q 458 828 547 828 l 267 828 l 264 561 l 465 561 z "},"C":{"ha":900,"x_min":36,"x_max":876,"o":"m 474 -21 q 240 40 339 -21 q 89 213 142 100 q 36 481 36 326 q 89 749 36 636 q 241 923 142 863 q 475 983 340 983 q 747 894 644 983 q 872 656 850 806 l 707 611 q 631 771 692 713 q 478 829 571 829 q 291 737 358 829 q 224 481 224 644 q 291 226 224 318 q 476 135 358 135 q 636 196 576 135 q 711 374 696 257 l 876 328 q 748 73 854 167 q 474 -21 642 -21 z "},"D":{"ha":928,"x_min":85,"x_max":892,"o":"m 89 481 l 85 963 l 385 963 q 765 844 638 963 q 892 493 892 726 q 766 122 892 244 q 385 0 640 0 l 85 0 l 89 481 m 268 157 l 385 157 q 627 239 547 157 q 707 493 707 321 q 385 807 707 807 l 268 807 l 264 481 l 268 157 z "},"E":{"ha":806,"x_min":85,"x_max":764,"o":"m 89 482 l 85 963 l 751 963 l 751 811 l 268 811 l 267 563 l 718 563 l 718 421 l 267 421 l 268 151 l 764 151 l 764 0 l 85 0 l 89 482 z "},"F":{"ha":756,"x_min":85,"x_max":724,"o":"m 89 482 l 85 963 l 724 963 l 724 811 l 268 811 l 267 549 l 699 549 l 699 406 l 267 406 l 271 0 l 85 0 l 89 482 z "},"G":{"ha":933,"x_min":36,"x_max":892,"o":"m 458 -21 q 235 40 331 -21 q 88 214 140 100 q 36 482 36 328 q 89 749 36 636 q 242 923 142 863 q 478 983 342 983 q 751 894 647 983 q 876 657 854 806 l 711 611 q 634 771 694 713 q 475 829 574 829 q 291 737 358 829 q 224 481 224 644 q 289 222 224 314 q 472 131 354 131 q 717 382 696 131 l 447 379 l 447 513 l 881 513 l 878 247 l 892 -1 l 768 -1 l 750 122 q 631 15 708 50 q 458 -21 554 -21 z "},"H":{"ha":960,"x_min":85,"x_max":875,"o":"m 89 482 l 85 963 l 271 963 l 267 565 l 479 563 l 692 565 l 689 963 l 875 963 l 869 482 l 875 0 l 689 0 l 692 410 l 479 413 l 267 410 l 271 0 l 85 0 l 89 482 z "},"I":{"ha":356,"x_min":85,"x_max":271,"o":"m 89 482 l 85 963 l 271 963 l 267 482 l 271 0 l 85 0 l 89 482 z "},"J":{"ha":526,"x_min":8,"x_max":460,"o":"m 144 -21 q 8 -7 75 -21 l 29 144 q 124 135 88 135 q 238 185 204 135 q 272 338 271 236 l 275 661 l 272 963 l 458 963 l 456 661 l 458 344 q 381 67 460 156 q 144 -21 301 -21 z "},"K":{"ha":885,"x_min":85,"x_max":879,"o":"m 89 482 l 85 963 l 271 963 l 267 511 l 629 963 l 846 963 l 529 582 l 879 0 l 676 0 l 413 442 l 268 269 l 271 0 l 85 0 l 89 482 z "},"L":{"ha":736,"x_min":85,"x_max":706,"o":"m 89 507 l 85 963 l 271 963 l 267 507 l 269 157 l 706 157 l 706 0 l 85 0 l 89 507 z "},"M":{"ha":1150,"x_min":85,"x_max":1065,"o":"m 89 469 l 85 963 l 324 963 l 471 514 l 574 210 l 578 210 l 825 963 l 1064 963 l 1063 488 l 1065 0 l 896 0 l 901 422 l 901 722 l 897 722 l 788 399 l 660 0 l 492 0 l 363 397 l 253 722 l 249 722 l 249 422 l 254 0 l 85 0 l 89 469 z "},"N":{"ha":947,"x_min":85,"x_max":863,"o":"m 89 481 l 85 963 l 290 963 l 522 546 l 683 263 l 688 263 l 688 547 l 685 963 l 863 963 l 858 482 l 863 0 l 657 0 l 446 383 l 264 701 l 260 701 l 260 417 l 263 0 l 85 0 l 89 481 z "},"O":{"ha":976,"x_min":36,"x_max":940,"o":"m 488 -21 q 247 40 349 -21 q 90 213 144 100 q 36 482 36 326 q 91 751 36 638 q 247 924 146 864 q 488 983 349 983 q 730 924 628 983 q 886 751 832 864 q 940 482 940 639 q 885 213 940 326 q 728 40 831 100 q 488 -21 626 -21 m 224 482 q 293 226 224 317 q 488 135 363 135 q 683 226 611 135 q 754 482 754 318 q 684 739 754 649 q 488 829 614 829 q 294 738 364 829 q 224 482 224 647 z "},"P":{"ha":857,"x_min":85,"x_max":828,"o":"m 89 482 l 85 963 l 454 963 q 731 887 635 963 q 828 660 828 811 q 444 347 828 347 l 268 347 l 271 0 l 85 0 l 89 482 m 456 496 q 649 658 649 496 q 599 772 649 733 q 456 811 549 811 l 268 811 l 268 496 l 456 496 z "},"Q":{"ha":976,"x_min":36,"x_max":1026,"o":"m 488 -21 q 247 40 349 -21 q 90 213 144 100 q 36 482 36 326 q 91 751 36 638 q 247 924 146 864 q 488 983 349 983 q 730 924 628 983 q 886 751 832 864 q 940 482 940 639 q 908 270 940 364 q 815 110 876 176 l 1026 -57 l 867 -147 l 668 11 q 488 -21 585 -21 m 224 482 q 293 226 224 317 q 488 135 363 135 q 683 226 611 135 q 754 482 754 318 q 684 739 754 649 q 488 829 614 829 q 294 738 364 829 q 224 482 224 647 z "},"R":{"ha":893,"x_min":85,"x_max":836,"o":"m 89 482 l 85 963 l 454 963 q 733 890 639 963 q 828 672 828 817 q 674 438 828 494 q 761 353 732 410 q 799 206 790 297 q 814 76 806 125 q 836 0 822 26 l 649 0 q 617 199 629 44 q 592 308 611 272 q 536 356 572 344 q 433 367 500 367 l 268 367 l 271 0 l 85 0 l 89 482 m 453 507 q 599 547 550 507 q 649 660 649 586 q 601 774 649 736 q 456 811 554 811 l 268 811 l 268 507 l 453 507 z "},"S":{"ha":825,"x_min":33,"x_max":782,"o":"m 431 -21 q 153 58 253 -21 q 33 279 53 138 l 188 317 q 263 177 207 224 q 426 131 318 131 q 558 167 513 131 q 603 264 603 204 q 556 358 603 324 q 400 417 510 393 q 146 524 225 456 q 67 713 67 592 q 152 913 67 842 q 389 983 238 983 q 650 908 553 983 q 767 704 747 832 l 607 664 q 545 786 599 739 q 397 833 492 833 q 284 801 325 833 q 243 714 243 769 q 289 625 243 657 q 447 568 335 593 q 704 460 626 531 q 782 264 782 389 q 684 53 782 128 q 431 -21 586 -21 z "},"T":{"ha":725,"x_min":8,"x_max":715,"o":"m 274 451 l 271 811 l 8 811 l 8 963 l 715 963 l 715 811 l 454 811 l 450 451 l 456 0 l 269 0 l 274 451 z "},"U":{"ha":919,"x_min":65,"x_max":854,"o":"m 460 -21 q 163 85 260 -21 q 68 407 65 192 l 71 696 l 68 963 l 254 963 l 250 696 l 254 386 q 460 135 257 135 q 667 386 664 135 l 669 696 l 667 963 l 851 963 l 849 696 l 851 407 q 758 85 854 192 q 460 -21 661 -21 z "},"V":{"ha":879,"x_min":6,"x_max":874,"o":"m 176 492 l 6 963 l 204 963 l 339 524 l 443 204 l 446 204 l 547 524 l 681 963 l 874 963 l 704 490 l 536 0 l 346 0 l 176 492 z "},"W":{"ha":1278,"x_min":6,"x_max":1272,"o":"m 133 493 l 6 963 l 197 963 l 296 515 l 369 210 l 374 210 l 456 521 l 563 963 l 719 963 l 831 522 l 915 210 l 918 210 l 990 514 l 1089 963 l 1272 963 l 1147 494 l 1025 0 l 819 0 l 707 422 l 639 688 l 636 688 l 569 422 l 457 0 l 256 0 l 133 493 z "},"X":{"ha":885,"x_min":6,"x_max":881,"o":"m 318 503 l 26 963 l 232 963 l 443 629 l 446 629 l 654 963 l 856 963 l 567 504 l 881 0 l 675 0 l 443 374 l 440 374 l 206 0 l 6 0 l 318 503 z "},"Y":{"ha":840,"x_min":6,"x_max":835,"o":"m 329 346 l 6 963 l 210 963 l 418 536 l 421 536 l 636 963 l 835 963 l 508 346 l 511 0 l 326 0 l 329 346 z "},"Z":{"ha":797,"x_min":26,"x_max":771,"o":"m 26 147 l 313 508 l 536 807 l 36 807 l 36 963 l 764 963 l 764 817 l 476 453 l 254 157 l 771 157 l 771 0 l 26 0 l 26 147 z "},"":{"ha":1282,"x_min":6,"x_max":1242,"o":"m 260 482 l 501 963 l 1229 963 l 1229 811 l 800 811 l 799 563 l 1196 563 l 1196 421 l 799 421 l 800 151 l 1242 151 l 1242 0 l 618 0 l 619 226 l 486 228 l 319 226 l 213 0 l 6 0 l 260 482 m 500 367 l 621 368 l 621 482 l 619 811 l 597 811 l 388 368 l 500 367 z "},"":{"ha":1404,"x_min":36,"x_max":1363,"o":"m 474 -21 q 242 38 340 -21 q 90 209 143 96 q 36 482 36 322 q 90 754 36 642 q 243 925 144 867 q 474 983 342 983 q 735 861 660 983 l 736 861 l 736 963 l 1350 963 l 1350 811 l 908 811 l 907 563 l 1317 563 l 1317 421 l 907 421 l 908 151 l 1363 151 l 1363 0 l 736 0 l 736 103 l 735 103 q 626 10 694 40 q 474 -21 558 -21 m 224 482 q 291 224 224 313 q 476 135 358 135 q 660 224 592 135 q 729 482 729 314 q 663 742 729 654 q 476 829 596 829 q 292 740 360 829 q 224 482 224 651 z "},"":{"ha":928,"x_min":-15,"x_max":892,"o":"m 89 436 l -15 435 l -15 533 l 89 532 l 85 963 l 385 963 q 765 844 638 963 q 892 493 892 726 q 766 122 892 244 q 385 0 640 0 l 85 0 l 89 436 m 268 157 l 385 157 q 627 239 547 157 q 707 493 707 321 q 385 807 707 807 l 268 807 l 264 532 l 419 533 l 419 435 l 264 436 l 268 157 z "},"":{"ha":885,"x_min":85,"x_max":856,"o":"m 89 482 l 85 963 l 271 963 l 269 839 l 461 839 q 856 496 856 839 q 461 140 856 140 l 269 140 l 271 0 l 85 0 l 89 482 m 268 289 l 472 289 q 676 494 676 289 q 472 689 676 689 l 268 689 l 267 482 l 268 289 z "},"":{"ha":976,"x_min":36,"x_max":940,"o":"m 488 -21 q 219 57 332 -21 l 158 -21 l 76 40 l 144 128 q 64 282 92 192 q 36 482 36 372 q 91 751 36 638 q 247 924 146 864 q 488 983 349 983 q 757 907 649 983 l 818 983 l 901 922 l 833 836 q 940 482 940 704 q 885 213 940 326 q 728 40 831 100 q 488 -21 626 -21 m 224 482 q 263 276 224 363 l 653 772 q 488 829 588 829 q 294 738 364 829 q 224 482 224 647 m 325 192 q 488 135 390 135 q 683 226 611 135 q 754 482 754 318 q 715 686 754 604 l 325 192 z "},"a":{"ha":786,"x_min":40,"x_max":794,"o":"m 278 -21 q 103 36 165 -21 q 40 188 40 93 q 142 371 40 317 q 460 425 243 425 l 514 425 l 514 446 q 478 578 514 533 q 363 624 443 624 q 239 572 278 624 q 201 454 200 521 l 57 488 q 99 626 61 565 q 207 721 138 686 q 369 756 276 756 q 600 681 525 756 q 675 463 675 606 l 675 174 q 686 122 675 138 q 728 107 697 107 q 772 117 751 107 l 794 4 q 683 -15 742 -15 q 584 17 619 -15 q 544 114 549 49 q 547 147 544 131 l 544 147 q 442 24 510 68 q 278 -21 374 -21 m 206 201 q 235 133 206 158 q 318 107 265 107 q 413 133 367 107 q 486 207 458 160 q 514 315 514 254 l 514 326 l 481 326 q 269 299 333 326 q 206 201 206 272 z "},"b":{"ha":808,"x_min":78,"x_max":774,"o":"m 479 -21 q 341 16 400 -21 q 254 103 282 53 l 251 103 l 253 0 l 78 0 l 82 433 l 78 964 l 253 964 l 250 632 l 253 632 q 341 719 282 682 q 479 756 400 756 q 697 656 619 756 q 774 367 774 557 q 697 78 774 178 q 479 -21 619 -21 m 250 369 q 302 178 250 235 q 426 121 354 121 q 556 184 511 121 q 601 367 601 247 q 556 550 601 486 q 426 614 511 614 q 300 552 350 614 q 250 369 250 490 z "},"c":{"ha":732,"x_min":35,"x_max":714,"o":"m 397 -21 q 206 26 288 -21 q 79 161 124 74 q 35 367 35 249 q 78 573 35 485 q 203 708 122 661 q 393 756 285 756 q 613 683 529 756 q 714 497 696 611 l 561 457 q 506 575 549 533 q 396 617 463 617 q 259 552 310 617 q 208 367 208 488 q 259 183 208 249 q 396 118 310 118 q 505 160 461 118 q 561 279 549 201 l 714 239 q 614 52 696 125 q 397 -21 532 -21 z "},"d":{"ha":808,"x_min":35,"x_max":731,"o":"m 329 -21 q 112 78 189 -21 q 35 367 35 178 q 112 656 35 557 q 329 756 189 756 q 467 719 408 756 q 556 632 526 682 l 558 632 l 556 964 l 731 964 l 726 433 l 731 0 l 556 0 l 557 103 l 554 103 q 467 16 526 53 q 329 -21 408 -21 m 207 367 q 252 184 207 247 q 382 121 297 121 q 506 178 454 121 q 558 369 558 235 q 508 552 558 490 q 382 614 458 614 q 252 550 297 614 q 207 367 207 486 z "},"e":{"ha":750,"x_min":35,"x_max":715,"o":"m 393 -21 q 203 26 285 -21 q 78 162 122 74 q 35 367 35 250 q 128 650 35 546 q 383 754 221 754 q 637 635 558 754 q 715 328 715 517 l 208 326 q 267 170 217 225 q 396 115 318 115 q 505 158 461 115 q 563 275 549 201 l 711 236 q 610 54 692 129 q 393 -21 529 -21 m 549 440 q 503 571 546 522 q 386 619 461 619 q 271 575 317 619 q 213 440 225 531 l 549 440 z "},"f":{"ha":504,"x_min":4,"x_max":524,"o":"m 138 607 l 4 604 l 4 736 l 132 736 q 128 786 128 768 q 186 954 128 890 q 357 1018 244 1018 q 524 981 449 1018 l 499 857 q 392 879 443 879 q 296 779 296 879 q 299 736 296 758 l 499 736 l 499 604 l 303 607 l 307 0 l 135 0 l 138 607 z "},"g":{"ha":808,"x_min":35,"x_max":731,"o":"m 379 -240 q 151 -176 235 -240 q 56 -12 67 -111 l 200 29 q 249 -76 204 -39 q 374 -112 294 -112 q 520 -49 482 -112 q 558 132 558 14 l 558 163 l 554 163 q 468 78 526 114 q 329 42 410 42 q 113 135 192 42 q 35 394 35 228 q 112 655 35 554 q 328 756 189 756 q 467 719 408 756 q 556 632 526 682 l 558 632 l 557 736 l 731 736 l 731 181 q 641 -140 731 -40 q 379 -240 551 -240 m 208 394 q 253 235 208 294 q 379 176 299 176 q 506 228 454 176 q 558 394 558 281 q 514 547 558 481 q 379 614 469 614 q 255 553 301 614 q 208 394 208 493 z "},"h":{"ha":814,"x_min":78,"x_max":739,"o":"m 82 354 l 78 964 l 250 964 l 247 629 l 250 629 q 342 720 279 685 q 483 756 404 756 q 672 682 608 756 q 735 451 735 608 l 735 354 l 739 0 l 567 0 l 569 354 l 569 432 q 531 565 569 521 q 422 608 492 608 q 297 552 347 608 q 247 404 247 496 l 247 354 l 250 0 l 78 0 l 82 354 z "},"i":{"ha":328,"x_min":63,"x_max":267,"o":"m 82 369 l 78 736 q 164 731 125 731 q 250 736 203 731 l 247 369 l 250 0 l 78 0 l 82 369 m 63 897 q 88 964 63 942 q 165 986 113 986 q 242 964 217 986 q 267 897 267 942 q 242 830 267 851 q 165 808 218 808 q 88 830 113 808 q 63 897 63 851 z "},"":{"ha":328,"x_min":78,"x_max":250,"o":"m 82 369 l 78 736 l 250 736 l 247 369 l 250 0 l 78 0 l 82 369 z "},"j":{"ha":332,"x_min":-96,"x_max":271,"o":"m 39 -235 q -29 -228 8 -235 q -96 -211 -67 -222 l -69 -85 q 4 -97 -35 -97 q 66 -69 46 -97 q 86 19 86 -42 l 86 157 l 82 736 q 168 731 129 731 q 254 736 207 731 l 251 156 l 251 42 q 200 -170 251 -106 q 39 -235 149 -235 m 67 897 q 92 964 67 942 q 169 986 117 986 q 246 964 221 986 q 271 897 271 942 q 247 830 271 851 q 169 808 222 808 q 92 830 117 808 q 67 897 67 851 z "},"":{"ha":331,"x_min":-96,"x_max":253,"o":"m 47 -235 q -96 -207 -29 -235 l -71 -85 q 4 -97 -36 -97 q 65 -69 46 -97 q 85 19 85 -42 l 85 157 l 82 736 l 253 736 l 250 156 l 250 42 q 201 -169 250 -104 q 47 -235 151 -235 z "},"k":{"ha":751,"x_min":78,"x_max":747,"o":"m 82 489 l 78 964 l 250 964 l 247 489 l 247 432 l 513 736 l 710 736 l 460 461 l 747 0 l 558 0 l 349 339 l 249 229 l 250 0 l 78 0 l 82 489 z "},"l":{"ha":328,"x_min":78,"x_max":250,"o":"m 82 489 l 78 964 l 250 964 l 247 489 l 250 0 l 78 0 l 82 489 z "},"m":{"ha":1203,"x_min":78,"x_max":1128,"o":"m 82 354 l 78 736 l 249 736 l 246 629 l 249 629 q 339 719 279 683 q 468 756 399 756 q 590 717 539 756 q 665 603 642 679 l 668 603 q 770 715 706 674 q 907 756 835 756 q 1067 684 1010 756 q 1125 465 1125 613 l 1125 354 l 1128 0 l 957 0 l 960 354 l 960 446 q 928 567 960 526 q 844 608 896 608 q 765 583 801 608 q 707 512 729 558 q 685 404 685 465 l 685 354 l 689 0 l 517 0 l 519 354 l 519 446 q 488 567 519 526 q 406 608 457 608 q 326 583 363 608 q 268 512 290 558 q 246 404 246 465 l 246 354 l 249 0 l 78 0 l 82 354 z "},"n":{"ha":810,"x_min":78,"x_max":735,"o":"m 82 354 l 78 736 l 250 736 l 247 629 l 250 629 q 341 721 279 686 q 483 756 403 756 q 669 682 607 756 q 732 451 732 608 l 732 354 l 735 0 l 564 0 l 567 354 l 567 432 q 528 565 567 519 q 421 610 489 610 q 297 553 346 610 q 247 404 247 496 l 247 354 l 250 0 l 78 0 l 82 354 z "},"o":{"ha":788,"x_min":35,"x_max":753,"o":"m 392 -21 q 203 26 285 -21 q 78 162 122 74 q 35 368 35 250 q 78 574 35 486 q 203 708 122 661 q 392 756 283 756 q 583 708 501 756 q 708 574 664 661 q 753 368 753 486 q 708 162 753 250 q 582 26 664 74 q 392 -21 500 -21 m 207 368 q 256 185 207 250 q 393 119 306 119 q 531 185 481 119 q 581 368 581 250 q 531 549 581 485 q 393 614 481 614 q 256 549 306 614 q 207 368 207 485 z "},"p":{"ha":808,"x_min":78,"x_max":774,"o":"m 82 304 l 78 736 l 253 736 l 251 633 l 254 633 q 341 719 282 683 q 479 756 400 756 q 697 657 619 756 q 774 369 774 558 q 697 80 774 181 q 479 -21 619 -21 q 341 17 400 -21 q 253 106 282 54 l 250 106 l 253 -222 l 78 -222 l 82 304 m 250 367 q 302 178 250 235 q 426 121 354 121 q 556 185 511 121 q 601 369 601 250 q 556 551 601 489 q 426 614 511 614 q 300 551 350 614 q 250 367 250 489 z "},"q":{"ha":808,"x_min":35,"x_max":731,"o":"m 556 -222 l 558 106 l 556 106 q 467 17 526 54 q 329 -21 408 -21 q 112 80 189 -21 q 35 369 35 181 q 112 657 35 558 q 329 756 189 756 q 467 719 408 756 q 554 633 526 683 l 557 633 l 556 736 l 731 736 l 726 304 l 731 -222 l 556 -222 m 207 369 q 252 185 207 250 q 382 121 297 121 q 506 178 454 121 q 558 367 558 235 q 508 551 558 489 q 382 614 458 614 q 252 551 297 614 q 207 369 207 489 z "},"r":{"ha":519,"x_min":78,"x_max":506,"o":"m 82 353 l 78 736 l 250 736 l 246 622 l 249 622 q 325 717 271 679 q 461 756 379 756 q 506 750 489 756 l 506 585 q 444 593 471 593 q 298 534 349 593 q 247 358 247 475 l 247 329 l 250 0 l 78 0 l 82 353 z "},"s":{"ha":658,"x_min":15,"x_max":636,"o":"m 336 -21 q 111 38 192 -21 q 15 211 31 97 l 161 249 q 208 151 164 188 q 339 115 253 115 q 468 203 468 115 q 434 267 468 243 q 313 308 400 292 q 112 388 175 333 q 49 535 49 443 q 120 695 49 635 q 318 756 192 756 q 530 701 456 756 q 619 538 604 647 l 475 500 q 322 619 461 619 q 244 599 271 619 q 217 543 217 578 q 249 481 217 504 q 364 442 281 458 q 572 359 508 415 q 636 206 636 303 q 558 42 636 104 q 336 -21 479 -21 z "},"t":{"ha":519,"x_min":0,"x_max":515,"o":"m 350 -21 q 190 19 243 -21 q 122 122 138 58 q 108 289 107 186 l 110 607 l 0 604 l 0 736 l 108 736 l 108 965 l 279 965 l 279 736 l 496 736 l 496 604 l 278 607 l 279 271 q 302 153 279 189 q 383 117 325 117 q 485 133 432 117 l 515 13 q 350 -21 432 -21 z "},"u":{"ha":803,"x_min":75,"x_max":725,"o":"m 722 382 l 725 0 l 554 0 l 557 107 l 554 107 q 463 17 524 51 q 326 -18 401 -18 q 142 56 204 -18 q 79 286 79 129 l 79 382 l 75 736 l 247 736 l 244 382 l 244 304 q 283 172 244 217 q 389 128 321 128 q 473 153 435 128 q 534 224 511 178 q 557 332 557 271 l 557 382 l 554 736 l 725 736 l 722 382 z "},"v":{"ha":721,"x_min":4,"x_max":718,"o":"m 465 0 l 251 0 l 4 736 l 181 736 l 361 160 l 365 160 l 547 736 l 718 736 l 465 0 z "},"w":{"ha":1043,"x_min":4,"x_max":1040,"o":"m 4 736 l 176 736 l 307 168 l 310 168 l 447 736 l 604 736 l 746 168 l 747 168 l 876 736 l 1040 736 l 846 0 l 651 0 l 525 513 l 522 513 l 393 0 l 197 0 l 4 736 z "},"x":{"ha":728,"x_min":4,"x_max":725,"o":"m 251 379 l 18 736 l 213 736 l 367 479 l 369 479 l 522 736 l 711 736 l 479 379 l 725 0 l 532 0 l 364 275 l 361 275 l 193 0 l 4 0 l 251 379 z "},"y":{"ha":722,"x_min":4,"x_max":719,"o":"m 194 -237 q 128 -232 165 -237 q 61 -217 90 -226 l 90 -90 q 172 -100 136 -100 q 240 -78 214 -100 q 289 -6 267 -56 l 4 736 l 182 736 l 372 211 l 375 211 l 546 736 l 719 736 l 460 6 q 347 -183 413 -128 q 194 -237 282 -237 z "},"z":{"ha":664,"x_min":33,"x_max":631,"o":"m 33 126 l 415 597 l 38 597 l 38 736 l 622 736 l 622 608 l 243 139 l 631 139 l 631 0 l 33 0 l 33 126 z "},"":{"ha":1179,"x_min":40,"x_max":1144,"o":"m 269 -21 q 101 36 161 -21 q 40 188 40 93 q 140 371 40 317 q 449 425 240 425 l 503 425 l 503 446 q 469 580 503 536 q 358 624 436 624 q 242 579 279 624 q 207 471 204 535 l 63 504 q 149 688 68 619 q 365 756 231 756 q 601 656 533 756 q 703 730 644 704 q 831 756 761 756 q 1069 638 994 756 q 1144 329 1144 519 l 660 329 q 713 174 667 232 q 842 115 760 115 q 940 157 899 115 q 994 271 981 199 l 1138 233 q 1042 53 1119 128 q 840 -21 965 -21 q 671 24 744 -21 q 556 149 597 68 q 422 17 493 56 q 269 -21 350 -21 m 206 201 q 233 133 206 158 q 310 107 260 107 q 401 133 356 107 q 474 208 446 160 q 503 315 503 256 l 503 326 l 469 326 q 268 299 331 326 q 206 201 206 272 m 986 443 q 943 576 983 525 q 833 626 903 626 q 722 581 768 626 q 664 443 676 536 l 986 443 z "},"":{"ha":1232,"x_min":35,"x_max":1197,"o":"m 378 -21 q 199 26 276 -21 q 78 162 121 74 q 35 368 35 250 q 78 574 35 486 q 199 708 121 661 q 378 756 276 756 q 528 721 464 756 q 633 619 593 686 q 878 756 708 756 q 1121 636 1044 756 q 1197 329 1197 517 l 713 329 q 769 171 721 226 q 890 115 818 115 q 992 157 950 115 q 1046 271 1033 199 l 1190 233 q 1094 53 1171 126 q 893 -21 1017 -21 q 635 118 717 -21 q 529 15 594 50 q 378 -21 464 -21 m 207 368 q 254 185 207 251 q 381 119 301 119 q 508 185 460 119 q 556 368 556 251 q 508 549 556 483 q 381 614 460 614 q 254 549 301 614 q 207 368 207 483 m 1032 443 q 988 576 1029 525 q 881 626 947 626 q 773 581 817 626 q 717 443 729 536 l 1032 443 z "},"":{"ha":789,"x_min":35,"x_max":754,"o":"m 397 -21 q 199 22 281 -21 q 76 141 117 65 q 35 313 35 217 q 76 493 35 419 q 190 604 118 567 q 351 642 261 642 q 576 558 497 642 q 394 781 547 707 l 315 679 l 243 739 l 304 817 q 154 847 228 839 l 178 983 q 397 936 304 968 l 504 1074 l 578 1015 l 488 899 q 690 703 625 829 q 754 388 754 576 q 665 76 754 174 q 397 -21 576 -21 m 211 318 q 259 172 211 221 q 396 122 307 122 q 533 171 486 122 q 581 314 581 219 q 528 461 581 410 q 396 513 475 513 q 259 463 307 513 q 211 318 211 414 z "},"":{"ha":806,"x_min":78,"x_max":771,"o":"m 83 378 l 79 964 l 249 964 l 247 633 l 251 633 q 338 719 279 683 q 476 756 396 756 q 693 656 615 756 q 771 369 771 557 q 694 80 771 181 q 476 -21 617 -21 q 338 17 397 -21 q 250 106 279 54 l 247 106 l 250 -222 l 78 -222 l 83 378 m 247 367 q 299 178 247 235 q 422 121 351 121 q 552 185 507 121 q 597 369 597 250 q 552 551 597 489 q 422 614 507 614 q 297 551 346 614 q 247 367 247 489 z "},"":{"ha":819,"x_min":78,"x_max":785,"o":"m 481 -10 q 357 3 406 -10 l 357 129 q 458 119 403 119 q 576 163 535 119 q 618 278 618 207 q 564 394 618 349 q 406 439 510 439 l 364 439 l 364 574 l 394 574 q 508 610 468 574 q 547 714 547 646 q 510 808 547 772 q 410 844 474 844 q 256 656 256 844 l 256 0 l 78 0 l 78 631 q 168 894 78 806 q 408 983 258 983 q 563 952 494 983 q 671 863 632 921 q 710 728 710 806 q 663 585 710 643 q 536 517 615 528 l 536 513 q 719 441 653 503 q 785 274 785 379 q 747 124 785 188 q 640 25 708 60 q 481 -10 571 -10 z "},"":{"ha":788,"x_min":35,"x_max":753,"o":"m 392 -21 q 185 38 274 -21 l 142 -17 l 76 32 l 124 93 q 58 213 81 143 q 35 368 35 283 q 78 574 35 486 q 203 708 122 661 q 392 756 283 756 q 601 697 513 756 l 646 754 l 713 706 l 663 643 q 753 368 753 540 q 708 162 753 250 q 582 26 664 74 q 392 -21 500 -21 m 207 368 q 232 228 207 286 l 506 576 q 393 614 460 614 q 256 549 306 614 q 207 368 207 485 m 281 158 q 393 119 326 119 q 531 185 481 119 q 581 368 581 250 q 556 507 581 451 l 281 158 z "},"":{"ha":907,"x_min":6,"x_max":901,"o":"m 182 482 l 349 963 l 553 963 l 722 482 l 901 0 l 703 0 l 628 226 l 449 228 l 272 226 l 199 0 l 6 0 l 182 482 m 449 367 l 588 368 l 450 769 l 447 769 l 313 368 l 449 367 m 394 1035 l 451 1203 l 632 1203 l 500 1035 l 394 1035 z "},"":{"ha":907,"x_min":6,"x_max":901,"o":"m 182 482 l 349 963 l 553 963 l 722 482 l 901 0 l 703 0 l 628 226 l 449 228 l 272 226 l 199 0 l 6 0 l 182 482 m 449 367 l 588 368 l 450 769 l 447 769 l 313 368 l 449 367 m 451 1029 q 311 1076 361 1029 q 261 1211 261 1124 l 367 1211 q 388 1152 369 1172 q 451 1132 406 1132 q 516 1152 497 1132 q 538 1211 535 1172 l 643 1211 q 594 1076 644 1124 q 451 1029 543 1029 z "},"":{"ha":907,"x_min":6,"x_max":901,"o":"m 182 482 l 349 963 l 553 963 l 722 482 l 901 0 l 703 0 l 628 226 l 449 228 l 272 226 l 199 0 l 6 0 l 182 482 m 449 367 l 588 368 l 450 769 l 447 769 l 313 368 l 449 367 m 386 1203 l 519 1203 l 663 1035 l 536 1035 l 453 1104 l 369 1035 l 243 1035 l 386 1203 z "},"":{"ha":907,"x_min":6,"x_max":901,"o":"m 182 482 l 349 963 l 553 963 l 722 482 l 901 0 l 703 0 l 628 226 l 449 228 l 272 226 l 199 0 l 6 0 l 182 482 m 449 367 l 588 368 l 450 769 l 447 769 l 313 368 l 449 367 m 325 1033 q 260 1056 283 1033 q 236 1117 236 1078 q 260 1178 236 1156 q 325 1200 283 1200 q 388 1178 365 1200 q 411 1117 411 1156 q 388 1056 411 1078 q 325 1033 365 1033 m 499 1117 q 522 1178 499 1156 q 586 1200 546 1200 q 650 1178 626 1200 q 674 1117 674 1156 q 650 1056 674 1078 q 586 1033 626 1033 q 522 1056 546 1033 q 499 1117 499 1078 z "},"":{"ha":907,"x_min":6,"x_max":901,"o":"m 182 482 l 349 963 l 553 963 l 722 482 l 901 0 l 703 0 l 628 226 l 449 228 l 272 226 l 199 0 l 6 0 l 182 482 m 449 367 l 588 368 l 450 769 l 447 769 l 313 368 l 449 367 m 268 1203 l 449 1203 l 506 1035 l 400 1035 l 268 1203 z "},"":{"ha":907,"x_min":6,"x_max":901,"o":"m 182 482 l 349 963 l 553 963 l 722 482 l 901 0 l 703 0 l 628 226 l 449 228 l 272 226 l 199 0 l 6 0 l 182 482 m 449 367 l 588 368 l 450 769 l 447 769 l 313 368 l 449 367 m 242 1149 l 664 1149 l 664 1039 l 242 1039 l 242 1149 z "},"":{"ha":907,"x_min":6,"x_max":944,"o":"m 182 482 l 349 963 l 553 963 l 722 482 l 901 1 l 901 0 l 899 0 q 834 -53 858 -24 q 810 -106 810 -82 q 863 -142 810 -142 q 921 -132 888 -142 l 944 -215 q 817 -244 883 -244 q 721 -219 756 -244 q 686 -144 686 -193 q 715 -68 686 -103 q 799 0 744 -33 l 703 0 l 628 226 l 449 228 l 272 226 l 199 0 l 6 0 l 182 482 m 449 367 l 588 368 l 450 769 l 447 769 l 313 368 l 449 367 z "},"":{"ha":907,"x_min":6,"x_max":901,"o":"m 182 482 l 349 963 l 553 963 l 722 482 l 901 0 l 703 0 l 628 226 l 449 228 l 272 226 l 199 0 l 6 0 l 182 482 m 449 367 l 588 368 l 450 769 l 447 769 l 313 368 l 449 367 m 453 1032 q 373 1059 403 1032 q 343 1133 343 1086 q 373 1207 343 1179 q 453 1235 403 1235 q 531 1207 501 1235 q 561 1133 561 1179 q 531 1059 561 1086 q 453 1032 501 1032 m 410 1133 q 422 1103 410 1114 q 453 1092 433 1092 q 483 1103 472 1092 q 494 1133 494 1114 q 483 1165 494 1153 q 453 1176 472 1176 q 422 1165 433 1176 q 410 1133 410 1153 z "},"":{"ha":907,"x_min":6,"x_max":901,"o":"m 182 482 l 349 963 l 553 963 l 722 482 l 901 0 l 703 0 l 628 226 l 449 228 l 272 226 l 199 0 l 6 0 l 182 482 m 449 367 l 588 368 l 450 769 l 447 769 l 313 368 l 449 367 m 238 1032 q 266 1156 236 1107 q 361 1206 296 1206 q 419 1194 394 1206 q 474 1163 444 1183 q 529 1138 508 1138 q 563 1154 554 1138 q 571 1206 571 1171 l 669 1206 q 642 1081 672 1131 q 544 1032 613 1032 q 488 1042 511 1032 q 433 1074 465 1053 q 403 1094 415 1088 q 378 1100 390 1100 q 344 1083 353 1100 q 336 1032 336 1067 l 238 1032 z "},"":{"ha":1282,"x_min":6,"x_max":1242,"o":"m 260 482 l 501 963 l 1229 963 l 1229 811 l 800 811 l 799 563 l 1196 563 l 1196 421 l 799 421 l 800 151 l 1242 151 l 1242 0 l 618 0 l 619 226 l 486 228 l 319 226 l 213 0 l 6 0 l 260 482 m 500 367 l 621 368 l 621 482 l 619 811 l 597 811 l 388 368 l 500 367 m 831 1035 l 888 1203 l 1068 1203 l 936 1035 l 831 1035 z "},"":{"ha":900,"x_min":36,"x_max":876,"o":"m 474 -21 q 240 40 339 -21 q 89 213 142 100 q 36 481 36 326 q 89 749 36 636 q 241 923 142 863 q 475 983 340 983 q 747 894 644 983 q 872 656 850 806 l 707 611 q 631 771 692 713 q 478 829 571 829 q 291 737 358 829 q 224 481 224 644 q 291 226 224 318 q 476 135 358 135 q 636 196 576 135 q 711 374 696 257 l 876 328 q 748 73 854 167 q 474 -21 642 -21 m 413 1035 l 469 1203 l 650 1203 l 518 1035 l 413 1035 z "},"":{"ha":900,"x_min":36,"x_max":876,"o":"m 474 -21 q 240 40 339 -21 q 89 213 142 100 q 36 481 36 326 q 89 749 36 636 q 241 923 142 863 q 475 983 340 983 q 747 894 644 983 q 872 656 850 806 l 707 611 q 631 771 692 713 q 478 829 571 829 q 291 737 358 829 q 224 481 224 644 q 291 226 224 318 q 476 135 358 135 q 636 196 576 135 q 711 374 696 257 l 876 328 q 748 73 854 167 q 474 -21 642 -21 m 386 1201 l 469 1132 l 553 1201 l 679 1201 l 536 1033 l 403 1033 l 260 1201 l 386 1201 z "},"":{"ha":900,"x_min":36,"x_max":876,"o":"m 442 -240 q 322 -225 378 -240 l 339 -156 q 404 -164 368 -164 q 441 -157 429 -164 q 453 -133 453 -150 q 434 -106 453 -115 q 364 -87 415 -97 l 393 -15 q 131 142 225 11 q 36 481 36 272 q 89 749 36 636 q 241 923 142 863 q 475 983 340 983 q 747 894 644 983 q 872 656 850 806 l 707 611 q 631 771 692 713 q 478 829 571 829 q 291 737 358 829 q 224 481 224 644 q 291 226 224 318 q 476 135 358 135 q 636 196 576 135 q 711 374 696 257 l 876 328 q 751 76 854 169 q 485 -21 647 -18 l 472 -58 q 558 -86 531 -65 q 585 -146 585 -107 q 546 -217 585 -194 q 442 -240 507 -240 z "},"":{"ha":900,"x_min":36,"x_max":876,"o":"m 474 -21 q 240 40 339 -21 q 89 213 142 100 q 36 481 36 326 q 89 749 36 636 q 241 923 142 863 q 475 983 340 983 q 747 894 644 983 q 872 656 850 806 l 707 611 q 631 771 692 713 q 478 829 571 829 q 291 737 358 829 q 224 481 224 644 q 291 226 224 318 q 476 135 358 135 q 636 196 576 135 q 711 374 696 257 l 876 328 q 748 73 854 167 q 474 -21 642 -21 m 403 1203 l 536 1203 l 679 1035 l 553 1035 l 469 1104 l 386 1035 l 260 1035 l 403 1203 z "},"":{"ha":900,"x_min":36,"x_max":876,"o":"m 474 -21 q 240 40 339 -21 q 89 213 142 100 q 36 481 36 326 q 89 749 36 636 q 241 923 142 863 q 475 983 340 983 q 747 894 644 983 q 872 656 850 806 l 707 611 q 631 771 692 713 q 478 829 571 829 q 291 737 358 829 q 224 481 224 644 q 291 226 224 318 q 476 135 358 135 q 636 196 576 135 q 711 374 696 257 l 876 328 q 748 73 854 167 q 474 -21 642 -21 m 471 1031 q 401 1054 426 1031 q 376 1119 376 1078 q 401 1183 376 1160 q 471 1207 426 1207 q 539 1183 514 1207 q 564 1119 564 1160 q 539 1054 564 1078 q 471 1031 514 1031 z "},"":{"ha":928,"x_min":85,"x_max":892,"o":"m 89 481 l 85 963 l 385 963 q 765 844 638 963 q 892 493 892 726 q 766 122 892 244 q 385 0 640 0 l 85 0 l 89 481 m 268 157 l 385 157 q 627 239 547 157 q 707 493 707 321 q 385 807 707 807 l 268 807 l 264 481 l 268 157 m 281 1201 l 364 1132 l 447 1201 l 574 1201 l 431 1033 l 297 1033 l 154 1201 l 281 1201 z "},"":{"ha":928,"x_min":-15,"x_max":892,"o":"m 89 436 l -15 435 l -15 533 l 89 532 l 85 963 l 385 963 q 765 844 638 963 q 892 493 892 726 q 766 122 892 244 q 385 0 640 0 l 85 0 l 89 436 m 268 157 l 385 157 q 627 239 547 157 q 707 493 707 321 q 385 807 707 807 l 268 807 l 264 532 l 419 533 l 419 435 l 264 436 l 268 157 z "},"":{"ha":806,"x_min":85,"x_max":764,"o":"m 89 482 l 85 963 l 751 963 l 751 811 l 268 811 l 267 563 l 718 563 l 718 421 l 267 421 l 268 151 l 764 151 l 764 0 l 85 0 l 89 482 m 374 1035 l 431 1203 l 611 1203 l 479 1035 l 374 1035 z "},"":{"ha":806,"x_min":85,"x_max":764,"o":"m 89 482 l 85 963 l 751 963 l 751 811 l 268 811 l 267 563 l 718 563 l 718 421 l 267 421 l 268 151 l 764 151 l 764 0 l 85 0 l 89 482 m 431 1029 q 290 1076 340 1029 q 240 1211 240 1124 l 346 1211 q 367 1152 349 1172 q 431 1132 385 1132 q 495 1152 476 1132 q 517 1211 514 1172 l 622 1211 q 573 1076 624 1124 q 431 1029 522 1029 z "},"":{"ha":806,"x_min":85,"x_max":764,"o":"m 89 482 l 85 963 l 751 963 l 751 811 l 268 811 l 267 563 l 718 563 l 718 421 l 267 421 l 268 151 l 764 151 l 764 0 l 85 0 l 89 482 m 349 1201 l 432 1132 l 515 1201 l 642 1201 l 499 1033 l 365 1033 l 222 1201 l 349 1201 z "},"":{"ha":806,"x_min":85,"x_max":764,"o":"m 89 482 l 85 963 l 751 963 l 751 811 l 268 811 l 267 563 l 718 563 l 718 421 l 267 421 l 268 151 l 764 151 l 764 0 l 85 0 l 89 482 m 365 1203 l 499 1203 l 642 1035 l 515 1035 l 432 1104 l 349 1035 l 222 1035 l 365 1203 z "},"":{"ha":806,"x_min":85,"x_max":764,"o":"m 89 482 l 85 963 l 751 963 l 751 811 l 268 811 l 267 563 l 718 563 l 718 421 l 267 421 l 268 151 l 764 151 l 764 0 l 85 0 l 89 482 m 304 1033 q 239 1056 263 1033 q 215 1117 215 1078 q 239 1178 215 1156 q 304 1200 263 1200 q 367 1178 344 1200 q 390 1117 390 1156 q 367 1056 390 1078 q 304 1033 344 1033 m 478 1117 q 501 1178 478 1156 q 565 1200 525 1200 q 629 1178 606 1200 q 653 1117 653 1156 q 629 1056 653 1078 q 565 1033 606 1033 q 501 1056 525 1033 q 478 1117 478 1078 z "},"":{"ha":806,"x_min":85,"x_max":764,"o":"m 89 482 l 85 963 l 751 963 l 751 811 l 268 811 l 267 563 l 718 563 l 718 421 l 267 421 l 268 151 l 764 151 l 764 0 l 85 0 l 89 482 m 432 1031 q 363 1054 388 1031 q 338 1119 338 1078 q 363 1183 338 1160 q 432 1207 388 1207 q 500 1183 475 1207 q 525 1119 525 1160 q 500 1054 525 1078 q 432 1031 475 1031 z "},"":{"ha":806,"x_min":85,"x_max":764,"o":"m 89 482 l 85 963 l 751 963 l 751 811 l 268 811 l 267 563 l 718 563 l 718 421 l 267 421 l 268 151 l 764 151 l 764 0 l 85 0 l 89 482 m 246 1203 l 426 1203 l 483 1035 l 378 1035 l 246 1203 z "},"":{"ha":806,"x_min":85,"x_max":764,"o":"m 89 482 l 85 963 l 751 963 l 751 811 l 268 811 l 267 563 l 718 563 l 718 421 l 267 421 l 268 151 l 764 151 l 764 0 l 85 0 l 89 482 m 221 1149 l 643 1149 l 643 1039 l 221 1039 l 221 1149 z "},"":{"ha":806,"x_min":85,"x_max":807,"o":"m 89 482 l 85 963 l 751 963 l 751 811 l 268 811 l 267 563 l 718 563 l 718 421 l 267 421 l 268 151 l 764 151 l 764 0 l 761 0 q 697 -53 721 -24 q 672 -106 672 -82 q 725 -142 672 -142 q 783 -132 750 -142 l 807 -215 q 679 -244 746 -244 q 583 -219 618 -244 q 549 -144 549 -193 q 578 -68 549 -103 q 661 0 607 -33 l 85 0 l 89 482 z "},"":{"ha":933,"x_min":36,"x_max":892,"o":"m 458 -21 q 235 40 331 -21 q 88 214 140 100 q 36 482 36 328 q 89 749 36 636 q 242 923 142 863 q 478 983 342 983 q 751 894 647 983 q 876 657 854 806 l 711 611 q 634 771 694 713 q 475 829 574 829 q 291 737 358 829 q 224 481 224 644 q 289 222 224 314 q 472 131 354 131 q 717 382 696 131 l 447 379 l 447 513 l 881 513 l 878 247 l 892 -1 l 768 -1 l 750 122 q 631 15 708 50 q 458 -21 554 -21 m 463 1029 q 322 1076 372 1029 q 272 1211 272 1124 l 378 1211 q 399 1152 381 1172 q 463 1132 417 1132 q 527 1152 508 1132 q 549 1211 546 1172 l 654 1211 q 605 1076 656 1124 q 463 1029 554 1029 z "},"":{"ha":933,"x_min":36,"x_max":892,"o":"m 458 -21 q 235 40 331 -21 q 88 214 140 100 q 36 482 36 328 q 89 749 36 636 q 242 923 142 863 q 478 983 342 983 q 751 894 647 983 q 876 657 854 806 l 711 611 q 634 771 694 713 q 475 829 574 829 q 291 737 358 829 q 224 481 224 644 q 289 222 224 314 q 472 131 354 131 q 717 382 696 131 l 447 379 l 447 513 l 881 513 l 878 247 l 892 -1 l 768 -1 l 750 122 q 631 15 708 50 q 458 -21 554 -21 m 397 1203 l 531 1203 l 674 1035 l 547 1035 l 464 1104 l 381 1035 l 254 1035 l 397 1203 z "},"":{"ha":933,"x_min":36,"x_max":892,"o":"m 458 -21 q 235 40 331 -21 q 88 214 140 100 q 36 482 36 328 q 89 749 36 636 q 242 923 142 863 q 478 983 342 983 q 751 894 647 983 q 876 657 854 806 l 711 611 q 634 771 694 713 q 475 829 574 829 q 291 737 358 829 q 224 481 224 644 q 289 222 224 314 q 472 131 354 131 q 717 382 696 131 l 447 379 l 447 513 l 881 513 l 878 247 l 892 -1 l 768 -1 l 750 122 q 631 15 708 50 q 458 -21 554 -21 m 369 -196 q 457 -162 464 -190 q 401 -144 418 -160 q 383 -108 383 -129 q 404 -65 383 -83 q 463 -47 425 -47 q 527 -66 504 -47 q 550 -118 550 -85 q 514 -201 550 -165 q 386 -243 478 -236 l 369 -196 z "},"":{"ha":933,"x_min":36,"x_max":892,"o":"m 458 -21 q 235 40 331 -21 q 88 214 140 100 q 36 482 36 328 q 89 749 36 636 q 242 923 142 863 q 478 983 342 983 q 751 894 647 983 q 876 657 854 806 l 711 611 q 634 771 694 713 q 475 829 574 829 q 291 737 358 829 q 224 481 224 644 q 289 222 224 314 q 472 131 354 131 q 717 382 696 131 l 447 379 l 447 513 l 881 513 l 878 247 l 892 -1 l 768 -1 l 750 122 q 631 15 708 50 q 458 -21 554 -21 m 464 1031 q 394 1054 419 1031 q 369 1119 369 1078 q 394 1183 369 1160 q 464 1207 419 1207 q 532 1183 507 1207 q 557 1119 557 1160 q 532 1054 557 1078 q 464 1031 507 1031 z "},"":{"ha":960,"x_min":8,"x_max":950,"o":"m 89 482 l 86 738 l 8 738 l 8 836 l 86 835 l 85 963 l 271 963 l 269 833 l 472 832 l 690 833 l 689 963 l 875 963 l 874 836 l 950 836 l 950 738 l 872 738 l 869 482 l 875 0 l 689 0 l 692 410 l 479 413 l 267 410 l 271 0 l 85 0 l 89 482 m 479 563 l 692 565 l 690 739 l 474 740 l 268 739 l 267 565 l 479 563 z "},"":{"ha":960,"x_min":85,"x_max":875,"o":"m 89 482 l 85 963 l 271 963 l 267 565 l 479 563 l 692 565 l 689 963 l 875 963 l 869 482 l 875 0 l 689 0 l 692 410 l 479 413 l 267 410 l 271 0 l 85 0 l 89 482 m 414 1203 l 547 1203 l 690 1035 l 564 1035 l 481 1104 l 397 1035 l 271 1035 l 414 1203 z "},"":{"ha":882,"x_min":85,"x_max":815,"o":"m 89 482 l 85 963 l 271 963 l 267 482 l 271 0 l 85 0 l 89 482 m 500 -21 q 364 -7 431 -21 l 385 144 q 479 135 443 135 q 593 185 560 135 q 628 338 626 236 l 631 661 l 628 963 l 814 963 l 811 661 l 814 344 q 736 67 815 156 q 500 -21 657 -21 z "},"":{"ha":356,"x_min":85,"x_max":357,"o":"m 89 482 l 85 963 l 271 963 l 267 482 l 271 0 l 85 0 l 89 482 m 119 1035 l 176 1203 l 357 1203 l 225 1035 l 119 1035 z "},"":{"ha":356,"x_min":-14,"x_max":369,"o":"m 89 482 l 85 963 l 271 963 l 267 482 l 271 0 l 85 0 l 89 482 m 176 1029 q 36 1076 86 1029 q -14 1211 -14 1124 l 92 1211 q 113 1152 94 1172 q 176 1132 131 1132 q 241 1152 222 1132 q 263 1211 260 1172 l 368 1211 q 319 1076 369 1124 q 176 1029 268 1029 z "},"":{"ha":356,"x_min":-32,"x_max":388,"o":"m 89 482 l 85 963 l 271 963 l 267 482 l 271 0 l 85 0 l 89 482 m 111 1203 l 244 1203 l 388 1035 l 261 1035 l 178 1104 l 94 1035 l -32 1035 l 111 1203 z "},"":{"ha":356,"x_min":-39,"x_max":399,"o":"m 89 482 l 85 963 l 271 963 l 267 482 l 271 0 l 85 0 l 89 482 m 50 1033 q -15 1056 8 1033 q -39 1117 -39 1078 q -15 1178 -39 1156 q 50 1200 8 1200 q 113 1178 90 1200 q 136 1117 136 1156 q 113 1056 136 1078 q 50 1033 90 1033 m 224 1117 q 247 1178 224 1156 q 311 1200 271 1200 q 375 1178 351 1200 q 399 1117 399 1156 q 375 1056 399 1078 q 311 1033 351 1033 q 247 1056 271 1033 q 224 1117 224 1078 z "},"":{"ha":356,"x_min":85,"x_max":272,"o":"m 89 482 l 85 963 l 271 963 l 267 482 l 271 0 l 85 0 l 89 482 m 179 1031 q 110 1054 135 1031 q 85 1119 85 1078 q 110 1183 85 1160 q 179 1207 135 1207 q 247 1183 222 1207 q 272 1119 272 1160 q 247 1054 272 1078 q 179 1031 222 1031 z "},"":{"ha":356,"x_min":-8,"x_max":271,"o":"m 89 482 l 85 963 l 271 963 l 267 482 l 271 0 l 85 0 l 89 482 m -8 1203 l 172 1203 l 229 1035 l 124 1035 l -8 1203 z "},"":{"ha":356,"x_min":-33,"x_max":389,"o":"m 89 482 l 85 963 l 271 963 l 267 482 l 271 0 l 85 0 l 89 482 m -33 1149 l 389 1149 l 389 1039 l -33 1039 l -33 1149 z "},"":{"ha":356,"x_min":19,"x_max":278,"o":"m 89 482 l 85 963 l 271 963 l 267 482 l 271 0 l 232 0 q 167 -53 192 -24 q 143 -106 143 -82 q 196 -142 143 -142 q 254 -132 221 -142 l 278 -215 q 150 -244 217 -244 q 54 -219 89 -244 q 19 -144 19 -193 q 49 -68 19 -103 q 132 0 78 -33 l 85 0 l 89 482 z "},"":{"ha":356,"x_min":-40,"x_max":396,"o":"m 89 482 l 85 963 l 271 963 l 267 482 l 271 0 l 85 0 l 89 482 m -39 1032 q -10 1156 -40 1107 q 85 1206 19 1206 q 143 1194 118 1206 q 197 1163 168 1183 q 253 1138 232 1138 q 286 1154 278 1138 q 294 1206 294 1171 l 393 1206 q 366 1081 396 1131 q 268 1032 336 1032 q 212 1042 235 1032 q 157 1074 189 1053 q 126 1094 139 1088 q 101 1100 114 1100 q 68 1083 76 1100 q 60 1032 60 1067 l -39 1032 z "},"":{"ha":526,"x_min":8,"x_max":572,"o":"m 144 -21 q 8 -7 75 -21 l 29 144 q 124 135 88 135 q 238 185 204 135 q 272 338 271 236 l 275 661 l 272 963 l 458 963 l 456 661 l 458 344 q 381 67 460 156 q 144 -21 301 -21 m 296 1203 l 429 1203 l 572 1035 l 446 1035 l 363 1104 l 279 1035 l 153 1035 l 296 1203 z "},"":{"ha":885,"x_min":85,"x_max":879,"o":"m 89 482 l 85 963 l 271 963 l 267 511 l 629 963 l 846 963 l 529 582 l 879 0 l 676 0 l 413 442 l 268 269 l 271 0 l 85 0 l 89 482 m 343 -196 q 431 -162 438 -190 q 374 -144 392 -160 q 357 -108 357 -129 q 378 -65 357 -83 q 436 -47 399 -47 q 501 -66 478 -47 q 524 -118 524 -85 q 488 -201 524 -165 q 360 -243 451 -236 l 343 -196 z "},"":{"ha":736,"x_min":85,"x_max":706,"o":"m 89 507 l 85 963 l 271 963 l 267 507 l 269 157 l 706 157 l 706 0 l 85 0 l 89 507 m 126 1035 l 183 1203 l 364 1203 l 232 1035 l 126 1035 z "},"":{"ha":736,"x_min":85,"x_max":706,"o":"m 89 507 l 85 963 l 271 963 l 267 507 l 269 157 l 706 157 l 706 0 l 85 0 l 89 507 m 535 963 l 671 963 l 653 649 l 553 649 l 535 963 z "},"":{"ha":736,"x_min":85,"x_max":706,"o":"m 89 507 l 85 963 l 271 963 l 267 507 l 269 157 l 706 157 l 706 0 l 85 0 l 89 507 m 258 -196 q 346 -162 353 -190 q 290 -144 307 -160 q 272 -108 272 -129 q 293 -65 272 -83 q 351 -47 314 -47 q 416 -66 393 -47 q 439 -118 439 -85 q 403 -201 439 -165 q 275 -243 367 -236 l 258 -196 z "},"":{"ha":736,"x_min":85,"x_max":706,"o":"m 89 507 l 85 963 l 271 963 l 267 507 l 269 157 l 706 157 l 706 0 l 85 0 l 89 507 m 413 531 q 438 599 413 575 q 513 622 464 622 q 587 599 561 622 q 613 531 613 575 q 587 460 613 485 q 513 436 561 436 q 438 460 464 436 q 413 531 413 485 z "},"":{"ha":736,"x_min":-28,"x_max":706,"o":"m 88 369 l 22 331 l -28 417 l 89 481 l 89 507 l 85 963 l 271 963 l 268 585 l 349 633 l 399 549 l 267 474 l 269 157 l 706 157 l 706 0 l 85 0 l 88 369 z "},"":{"ha":947,"x_min":85,"x_max":863,"o":"m 89 481 l 85 963 l 290 963 l 522 546 l 683 263 l 688 263 l 688 547 l 685 963 l 863 963 l 858 482 l 863 0 l 657 0 l 446 383 l 264 701 l 260 701 l 260 417 l 263 0 l 85 0 l 89 481 m 415 1035 l 472 1203 l 653 1203 l 521 1035 l 415 1035 z "},"":{"ha":947,"x_min":85,"x_max":863,"o":"m 89 481 l 85 963 l 290 963 l 522 546 l 683 263 l 688 263 l 688 547 l 685 963 l 863 963 l 858 482 l 863 0 l 657 0 l 446 383 l 264 701 l 260 701 l 260 417 l 263 0 l 85 0 l 89 481 m 390 1201 l 474 1132 l 557 1201 l 683 1201 l 540 1033 l 407 1033 l 264 1201 l 390 1201 z "},"":{"ha":947,"x_min":85,"x_max":863,"o":"m 89 481 l 85 963 l 290 963 l 522 546 l 683 263 l 688 263 l 688 547 l 685 963 l 863 963 l 858 482 l 863 0 l 657 0 l 446 383 l 264 701 l 260 701 l 260 417 l 263 0 l 85 0 l 89 481 m 381 -196 q 468 -162 475 -190 q 412 -144 429 -160 q 394 -108 394 -129 q 415 -65 394 -83 q 474 -47 436 -47 q 538 -66 515 -47 q 561 -118 561 -85 q 525 -201 561 -165 q 397 -243 489 -236 l 381 -196 z "},"":{"ha":947,"x_min":85,"x_max":863,"o":"m 89 481 l 85 963 l 290 963 l 522 546 l 683 263 l 688 263 l 688 547 l 685 963 l 863 963 l 858 482 l 863 0 l 657 0 l 446 383 l 264 701 l 260 701 l 260 417 l 263 0 l 85 0 l 89 481 m 258 1032 q 287 1156 257 1107 q 382 1206 317 1206 q 440 1194 415 1206 q 494 1163 465 1183 q 550 1138 529 1138 q 583 1154 575 1138 q 592 1206 592 1171 l 690 1206 q 663 1081 693 1131 q 565 1032 633 1032 q 509 1042 532 1032 q 454 1074 486 1053 q 424 1094 436 1088 q 399 1100 411 1100 q 365 1083 374 1100 q 357 1032 357 1067 l 258 1032 z "},"":{"ha":947,"x_min":85,"x_max":863,"o":"m 549 -237 q 454 -228 506 -237 q 364 -207 403 -219 l 396 -75 q 526 -96 467 -96 q 619 -71 588 -96 q 661 6 651 -46 l 264 701 l 260 701 l 260 401 l 263 0 l 85 0 l 89 481 l 85 963 l 290 963 l 521 547 l 683 263 l 688 263 l 688 564 l 685 963 l 863 963 l 858 482 l 861 114 q 781 -154 863 -71 q 549 -237 699 -237 z "},"":{"ha":976,"x_min":36,"x_max":940,"o":"m 488 -21 q 247 40 349 -21 q 90 213 144 100 q 36 482 36 326 q 91 751 36 638 q 247 924 146 864 q 488 983 349 983 q 730 924 628 983 q 886 751 832 864 q 940 482 940 639 q 885 213 940 326 q 728 40 831 100 q 488 -21 626 -21 m 224 482 q 293 226 224 317 q 488 135 363 135 q 683 226 611 135 q 754 482 754 318 q 684 739 754 649 q 488 829 614 829 q 294 738 364 829 q 224 482 224 647 m 431 1035 l 488 1203 l 668 1203 l 536 1035 l 431 1035 z "},"":{"ha":976,"x_min":36,"x_max":940,"o":"m 488 -21 q 247 40 349 -21 q 90 213 144 100 q 36 482 36 326 q 91 751 36 638 q 247 924 146 864 q 488 983 349 983 q 730 924 628 983 q 886 751 832 864 q 940 482 940 639 q 885 213 940 326 q 728 40 831 100 q 488 -21 626 -21 m 224 482 q 293 226 224 317 q 488 135 363 135 q 683 226 611 135 q 754 482 754 318 q 684 739 754 649 q 488 829 614 829 q 294 738 364 829 q 224 482 224 647 m 488 1029 q 347 1076 397 1029 q 297 1211 297 1124 l 403 1211 q 424 1152 406 1172 q 488 1132 442 1132 q 552 1152 533 1132 q 574 1211 571 1172 l 679 1211 q 630 1076 681 1124 q 488 1029 579 1029 z "},"":{"ha":976,"x_min":36,"x_max":940,"o":"m 488 -21 q 247 40 349 -21 q 90 213 144 100 q 36 482 36 326 q 91 751 36 638 q 247 924 146 864 q 488 983 349 983 q 730 924 628 983 q 886 751 832 864 q 940 482 940 639 q 885 213 940 326 q 728 40 831 100 q 488 -21 626 -21 m 224 482 q 293 226 224 317 q 488 135 363 135 q 683 226 611 135 q 754 482 754 318 q 684 739 754 649 q 488 829 614 829 q 294 738 364 829 q 224 482 224 647 m 422 1203 l 556 1203 l 699 1035 l 572 1035 l 489 1104 l 406 1035 l 279 1035 l 422 1203 z "},"":{"ha":976,"x_min":36,"x_max":940,"o":"m 488 -21 q 247 40 349 -21 q 90 213 144 100 q 36 482 36 326 q 91 751 36 638 q 247 924 146 864 q 488 983 349 983 q 730 924 628 983 q 886 751 832 864 q 940 482 940 639 q 885 213 940 326 q 728 40 831 100 q 488 -21 626 -21 m 224 482 q 293 226 224 317 q 488 135 363 135 q 683 226 611 135 q 754 482 754 318 q 684 739 754 649 q 488 829 614 829 q 294 738 364 829 q 224 482 224 647 m 361 1033 q 296 1056 319 1033 q 272 1117 272 1078 q 296 1178 272 1156 q 361 1200 319 1200 q 424 1178 401 1200 q 447 1117 447 1156 q 424 1056 447 1078 q 361 1033 401 1033 m 535 1117 q 558 1178 535 1156 q 622 1200 582 1200 q 686 1178 663 1200 q 710 1117 710 1156 q 686 1056 710 1078 q 622 1033 663 1033 q 558 1056 582 1033 q 535 1117 535 1078 z "},"":{"ha":976,"x_min":36,"x_max":940,"o":"m 488 -21 q 247 40 349 -21 q 90 213 144 100 q 36 482 36 326 q 91 751 36 638 q 247 924 146 864 q 488 983 349 983 q 730 924 628 983 q 886 751 832 864 q 940 482 940 639 q 885 213 940 326 q 728 40 831 100 q 488 -21 626 -21 m 224 482 q 293 226 224 317 q 488 135 363 135 q 683 226 611 135 q 754 482 754 318 q 684 739 754 649 q 488 829 614 829 q 294 738 364 829 q 224 482 224 647 m 303 1203 l 483 1203 l 540 1035 l 435 1035 l 303 1203 z "},"":{"ha":976,"x_min":36,"x_max":940,"o":"m 488 -21 q 247 40 349 -21 q 90 213 144 100 q 36 482 36 326 q 91 751 36 638 q 247 924 146 864 q 488 983 349 983 q 730 924 628 983 q 886 751 832 864 q 940 482 940 639 q 885 213 940 326 q 728 40 831 100 q 488 -21 626 -21 m 224 482 q 293 226 224 317 q 488 135 363 135 q 683 226 611 135 q 754 482 754 318 q 684 739 754 649 q 488 829 614 829 q 294 738 364 829 q 224 482 224 647 m 594 1206 l 757 1206 l 624 1035 l 524 1035 l 594 1206 m 385 1206 l 533 1206 l 439 1035 l 329 1035 l 385 1206 z "},"":{"ha":976,"x_min":36,"x_max":940,"o":"m 488 -21 q 247 40 349 -21 q 90 213 144 100 q 36 482 36 326 q 91 751 36 638 q 247 924 146 864 q 488 983 349 983 q 730 924 628 983 q 886 751 832 864 q 940 482 940 639 q 885 213 940 326 q 728 40 831 100 q 488 -21 626 -21 m 224 482 q 293 226 224 317 q 488 135 363 135 q 683 226 611 135 q 754 482 754 318 q 684 739 754 649 q 488 829 614 829 q 294 738 364 829 q 224 482 224 647 m 278 1149 l 700 1149 l 700 1039 l 278 1039 l 278 1149 z "},"":{"ha":976,"x_min":36,"x_max":940,"o":"m 488 -21 q 219 57 332 -21 l 158 -21 l 76 40 l 144 128 q 64 282 92 192 q 36 482 36 372 q 91 751 36 638 q 247 924 146 864 q 488 983 349 983 q 757 907 649 983 l 818 983 l 901 922 l 833 836 q 940 482 940 704 q 885 213 940 326 q 728 40 831 100 q 488 -21 626 -21 m 224 482 q 263 276 224 363 l 653 772 q 488 829 588 829 q 294 738 364 829 q 224 482 224 647 m 325 192 q 488 135 390 135 q 683 226 611 135 q 754 482 754 318 q 715 686 754 604 l 325 192 m 431 1035 l 488 1203 l 668 1203 l 536 1035 l 431 1035 z "},"":{"ha":976,"x_min":36,"x_max":940,"o":"m 488 -21 q 247 40 349 -21 q 90 213 144 100 q 36 482 36 326 q 91 751 36 638 q 247 924 146 864 q 488 983 349 983 q 730 924 628 983 q 886 751 832 864 q 940 482 940 639 q 885 213 940 326 q 728 40 831 100 q 488 -21 626 -21 m 224 482 q 293 226 224 317 q 488 135 363 135 q 683 226 611 135 q 754 482 754 318 q 684 739 754 649 q 488 829 614 829 q 294 738 364 829 q 224 482 224 647 m 272 1032 q 301 1156 271 1107 q 396 1206 331 1206 q 454 1194 429 1206 q 508 1163 479 1183 q 564 1138 543 1138 q 597 1154 589 1138 q 606 1206 606 1171 l 704 1206 q 677 1081 707 1131 q 579 1032 647 1032 q 523 1042 546 1032 q 468 1074 500 1053 q 438 1094 450 1088 q 413 1100 425 1100 q 379 1083 388 1100 q 371 1032 371 1067 l 272 1032 z "},"":{"ha":893,"x_min":85,"x_max":836,"o":"m 89 482 l 85 963 l 454 963 q 733 890 639 963 q 828 672 828 817 q 674 438 828 494 q 761 353 732 410 q 799 206 790 297 q 814 76 806 125 q 836 0 822 26 l 649 0 q 617 199 629 44 q 592 308 611 272 q 536 356 572 344 q 433 367 500 367 l 268 367 l 271 0 l 85 0 l 89 482 m 453 507 q 599 547 550 507 q 649 660 649 586 q 601 774 649 736 q 456 811 554 811 l 268 811 l 268 507 l 453 507 m 328 1035 l 385 1203 l 565 1203 l 433 1035 l 328 1035 z "},"":{"ha":893,"x_min":85,"x_max":836,"o":"m 89 482 l 85 963 l 454 963 q 733 890 639 963 q 828 672 828 817 q 674 438 828 494 q 761 353 732 410 q 799 206 790 297 q 814 76 806 125 q 836 0 822 26 l 649 0 q 617 199 629 44 q 592 308 611 272 q 536 356 572 344 q 433 367 500 367 l 268 367 l 271 0 l 85 0 l 89 482 m 453 507 q 599 547 550 507 q 649 660 649 586 q 601 774 649 736 q 456 811 554 811 l 268 811 l 268 507 l 453 507 m 303 1201 l 386 1132 l 469 1201 l 596 1201 l 453 1033 l 319 1033 l 176 1201 l 303 1201 z "},"":{"ha":893,"x_min":85,"x_max":836,"o":"m 89 482 l 85 963 l 454 963 q 733 890 639 963 q 828 672 828 817 q 674 438 828 494 q 761 353 732 410 q 799 206 790 297 q 814 76 806 125 q 836 0 822 26 l 649 0 q 617 199 629 44 q 592 308 611 272 q 536 356 572 344 q 433 367 500 367 l 268 367 l 271 0 l 85 0 l 89 482 m 453 507 q 599 547 550 507 q 649 660 649 586 q 601 774 649 736 q 456 811 554 811 l 268 811 l 268 507 l 453 507 m 354 -196 q 442 -162 449 -190 q 385 -144 403 -160 q 368 -108 368 -129 q 389 -65 368 -83 q 447 -47 410 -47 q 512 -66 489 -47 q 535 -118 535 -85 q 499 -201 535 -165 q 371 -243 463 -236 l 354 -196 z "},"":{"ha":825,"x_min":33,"x_max":782,"o":"m 431 -21 q 153 58 253 -21 q 33 279 53 138 l 188 317 q 263 177 207 224 q 426 131 318 131 q 558 167 513 131 q 603 264 603 204 q 556 358 603 324 q 400 417 510 393 q 146 524 225 456 q 67 713 67 592 q 152 913 67 842 q 389 983 238 983 q 650 908 553 983 q 767 704 747 832 l 607 664 q 545 786 599 739 q 397 833 492 833 q 284 801 325 833 q 243 714 243 769 q 289 625 243 657 q 447 568 335 593 q 704 460 626 531 q 782 264 782 389 q 684 53 782 128 q 431 -21 586 -21 m 331 1035 l 388 1203 l 568 1203 l 436 1035 l 331 1035 z "},"":{"ha":825,"x_min":33,"x_max":782,"o":"m 431 -21 q 153 58 253 -21 q 33 279 53 138 l 188 317 q 263 177 207 224 q 426 131 318 131 q 558 167 513 131 q 603 264 603 204 q 556 358 603 324 q 400 417 510 393 q 146 524 225 456 q 67 713 67 592 q 152 913 67 842 q 389 983 238 983 q 650 908 553 983 q 767 704 747 832 l 607 664 q 545 786 599 739 q 397 833 492 833 q 284 801 325 833 q 243 714 243 769 q 289 625 243 657 q 447 568 335 593 q 704 460 626 531 q 782 264 782 389 q 684 53 782 128 q 431 -21 586 -21 m 306 1201 l 389 1132 l 472 1201 l 599 1201 l 456 1033 l 322 1033 l 179 1201 l 306 1201 z "},"":{"ha":825,"x_min":33,"x_max":782,"o":"m 406 -240 q 286 -225 342 -240 l 303 -156 q 368 -164 332 -164 q 405 -157 393 -164 q 417 -133 417 -150 q 398 -106 417 -115 q 328 -87 379 -97 l 357 -17 q 132 76 214 -1 q 33 279 50 153 l 188 317 q 263 177 207 224 q 426 131 318 131 q 558 167 513 131 q 603 264 603 204 q 556 358 603 324 q 400 417 510 393 q 146 524 225 456 q 67 713 67 592 q 152 913 67 842 q 389 983 238 983 q 650 908 553 983 q 767 704 747 832 l 607 664 q 545 786 599 739 q 397 833 492 833 q 284 801 325 833 q 243 714 243 769 q 289 625 243 657 q 447 568 335 593 q 704 460 626 531 q 782 264 782 389 q 689 58 782 132 q 449 -21 596 -17 l 436 -58 q 522 -86 494 -65 q 549 -146 549 -107 q 510 -217 549 -194 q 406 -240 471 -240 z "},"":{"ha":825,"x_min":33,"x_max":782,"o":"m 431 -21 q 153 58 253 -21 q 33 279 53 138 l 188 317 q 263 177 207 224 q 426 131 318 131 q 558 167 513 131 q 603 264 603 204 q 556 358 603 324 q 400 417 510 393 q 146 524 225 456 q 67 713 67 592 q 152 913 67 842 q 389 983 238 983 q 650 908 553 983 q 767 704 747 832 l 607 664 q 545 786 599 739 q 397 833 492 833 q 284 801 325 833 q 243 714 243 769 q 289 625 243 657 q 447 568 335 593 q 704 460 626 531 q 782 264 782 389 q 684 53 782 128 q 431 -21 586 -21 m 322 1203 l 456 1203 l 599 1035 l 472 1035 l 389 1104 l 306 1035 l 179 1035 l 322 1203 z "},"":{"ha":825,"x_min":33,"x_max":782,"o":"m 431 -21 q 153 58 253 -21 q 33 279 53 138 l 188 317 q 263 177 207 224 q 426 131 318 131 q 558 167 513 131 q 603 264 603 204 q 556 358 603 324 q 400 417 510 393 q 146 524 225 456 q 67 713 67 592 q 152 913 67 842 q 389 983 238 983 q 650 908 553 983 q 767 704 747 832 l 607 664 q 545 786 599 739 q 397 833 492 833 q 284 801 325 833 q 243 714 243 769 q 289 625 243 657 q 447 568 335 593 q 704 460 626 531 q 782 264 782 389 q 684 53 782 128 q 431 -21 586 -21 m 319 -196 q 407 -162 414 -190 q 351 -144 368 -160 q 333 -108 333 -129 q 354 -65 333 -83 q 413 -47 375 -47 q 477 -66 454 -47 q 500 -118 500 -85 q 464 -201 500 -165 q 336 -243 428 -236 l 319 -196 z "},"":{"ha":725,"x_min":8,"x_max":715,"o":"m 272 364 l 150 363 l 150 461 l 274 460 l 271 811 l 8 811 l 8 963 l 715 963 l 715 811 l 454 811 l 450 460 l 585 461 l 585 363 l 451 364 l 456 0 l 269 0 l 272 364 z "},"":{"ha":725,"x_min":8,"x_max":715,"o":"m 274 451 l 271 811 l 8 811 l 8 963 l 715 963 l 715 811 l 454 811 l 450 451 l 456 0 l 269 0 l 274 451 m 279 1201 l 363 1132 l 446 1201 l 572 1201 l 429 1033 l 296 1033 l 153 1201 l 279 1201 z "},"":{"ha":725,"x_min":8,"x_max":715,"o":"m 274 451 l 271 811 l 8 811 l 8 963 l 715 963 l 715 811 l 454 811 l 450 451 l 456 0 l 403 0 l 385 -58 q 470 -86 443 -65 q 497 -146 497 -107 q 458 -217 497 -194 q 354 -240 419 -240 q 235 -225 290 -240 l 251 -156 q 317 -164 281 -164 q 353 -157 342 -164 q 365 -133 365 -150 q 347 -106 365 -115 q 276 -87 328 -97 l 313 0 l 269 0 l 274 451 z "},"":{"ha":725,"x_min":8,"x_max":715,"o":"m 274 451 l 271 811 l 8 811 l 8 963 l 715 963 l 715 811 l 454 811 l 450 451 l 456 0 l 269 0 l 274 451 m 268 -196 q 356 -162 363 -190 q 299 -144 317 -160 q 282 -108 282 -129 q 303 -65 282 -83 q 361 -47 324 -47 q 426 -66 403 -47 q 449 -118 449 -85 q 413 -201 449 -165 q 285 -243 376 -236 l 268 -196 z "},"":{"ha":919,"x_min":65,"x_max":854,"o":"m 460 -21 q 163 85 260 -21 q 68 407 65 192 l 71 696 l 68 963 l 254 963 l 250 696 l 254 386 q 460 135 257 135 q 667 386 664 135 l 669 696 l 667 963 l 851 963 l 849 696 l 851 407 q 758 85 854 192 q 460 -21 661 -21 m 401 1035 l 458 1203 l 639 1203 l 507 1035 l 401 1035 z "},"":{"ha":919,"x_min":65,"x_max":854,"o":"m 460 -21 q 163 85 260 -21 q 68 407 65 192 l 71 696 l 68 963 l 254 963 l 250 696 l 254 386 q 460 135 257 135 q 667 386 664 135 l 669 696 l 667 963 l 851 963 l 849 696 l 851 407 q 758 85 854 192 q 460 -21 661 -21 m 458 1029 q 318 1076 368 1029 q 268 1211 268 1124 l 374 1211 q 394 1152 376 1172 q 458 1132 413 1132 q 523 1152 504 1132 q 544 1211 542 1172 l 650 1211 q 601 1076 651 1124 q 458 1029 550 1029 z "},"":{"ha":919,"x_min":65,"x_max":854,"o":"m 460 -21 q 163 85 260 -21 q 68 407 65 192 l 71 696 l 68 963 l 254 963 l 250 696 l 254 386 q 460 135 257 135 q 667 386 664 135 l 669 696 l 667 963 l 851 963 l 849 696 l 851 407 q 758 85 854 192 q 460 -21 661 -21 m 393 1203 l 526 1203 l 669 1035 l 543 1035 l 460 1104 l 376 1035 l 250 1035 l 393 1203 z "},"":{"ha":919,"x_min":65,"x_max":854,"o":"m 460 -21 q 163 85 260 -21 q 68 407 65 192 l 71 696 l 68 963 l 254 963 l 250 696 l 254 386 q 460 135 257 135 q 667 386 664 135 l 669 696 l 667 963 l 851 963 l 849 696 l 851 407 q 758 85 854 192 q 460 -21 661 -21 m 332 1033 q 267 1056 290 1033 q 243 1117 243 1078 q 267 1178 243 1156 q 332 1200 290 1200 q 395 1178 372 1200 q 418 1117 418 1156 q 395 1056 418 1078 q 332 1033 372 1033 m 506 1117 q 529 1178 506 1156 q 593 1200 553 1200 q 657 1178 633 1200 q 681 1117 681 1156 q 657 1056 681 1078 q 593 1033 633 1033 q 529 1056 553 1033 q 506 1117 506 1078 z "},"":{"ha":919,"x_min":65,"x_max":854,"o":"m 460 -21 q 163 85 260 -21 q 68 407 65 192 l 71 696 l 68 963 l 254 963 l 250 696 l 254 386 q 460 135 257 135 q 667 386 664 135 l 669 696 l 667 963 l 851 963 l 849 696 l 851 407 q 758 85 854 192 q 460 -21 661 -21 m 275 1203 l 456 1203 l 513 1035 l 407 1035 l 275 1203 z "},"":{"ha":919,"x_min":65,"x_max":854,"o":"m 460 -21 q 163 85 260 -21 q 68 407 65 192 l 71 696 l 68 963 l 254 963 l 250 696 l 254 386 q 460 135 257 135 q 667 386 664 135 l 669 696 l 667 963 l 851 963 l 849 696 l 851 407 q 758 85 854 192 q 460 -21 661 -21 m 567 1206 l 729 1206 l 596 1035 l 496 1035 l 567 1206 m 357 1206 l 506 1206 l 411 1035 l 301 1035 l 357 1206 z "},"":{"ha":919,"x_min":65,"x_max":854,"o":"m 460 -21 q 163 85 260 -21 q 68 407 65 192 l 71 696 l 68 963 l 254 963 l 250 696 l 254 386 q 460 135 257 135 q 667 386 664 135 l 669 696 l 667 963 l 851 963 l 849 696 l 851 407 q 758 85 854 192 q 460 -21 661 -21 m 249 1149 l 671 1149 l 671 1039 l 249 1039 l 249 1149 z "},"":{"ha":919,"x_min":65,"x_max":856,"o":"m 460 -21 q 163 85 260 -21 q 68 407 65 192 l 71 696 l 68 963 l 254 963 l 250 696 l 254 386 q 460 135 257 135 q 667 386 664 135 l 669 696 l 667 963 l 851 963 l 849 696 l 851 407 q 676 24 856 117 q 636 -19 650 3 q 622 -58 622 -40 q 675 -94 622 -94 q 733 -85 700 -94 l 757 -168 q 629 -197 696 -197 q 533 -172 568 -197 q 499 -97 499 -146 q 531 -17 499 -58 q 460 -21 497 -21 z "},"":{"ha":919,"x_min":65,"x_max":854,"o":"m 460 -21 q 163 85 260 -21 q 68 407 65 192 l 71 696 l 68 963 l 254 963 l 250 696 l 254 386 q 460 135 257 135 q 667 386 664 135 l 669 696 l 667 963 l 851 963 l 849 696 l 851 407 q 758 85 854 192 q 460 -21 661 -21 m 460 1032 q 380 1059 410 1032 q 350 1133 350 1086 q 380 1207 350 1179 q 460 1235 410 1235 q 538 1207 508 1235 q 568 1133 568 1179 q 538 1059 568 1086 q 460 1032 508 1032 m 417 1133 q 428 1103 417 1114 q 460 1092 440 1092 q 490 1103 479 1092 q 501 1133 501 1114 q 490 1165 501 1153 q 460 1176 479 1176 q 428 1165 440 1176 q 417 1133 417 1153 z "},"":{"ha":919,"x_min":65,"x_max":854,"o":"m 460 -21 q 163 85 260 -21 q 68 407 65 192 l 71 696 l 68 963 l 254 963 l 250 696 l 254 386 q 460 135 257 135 q 667 386 664 135 l 669 696 l 667 963 l 851 963 l 849 696 l 851 407 q 758 85 854 192 q 460 -21 661 -21 m 244 1032 q 273 1156 243 1107 q 368 1206 303 1206 q 426 1194 401 1206 q 481 1163 451 1183 q 536 1138 515 1138 q 569 1154 561 1138 q 578 1206 578 1171 l 676 1206 q 649 1081 679 1131 q 551 1032 619 1032 q 495 1042 518 1032 q 440 1074 472 1053 q 410 1094 422 1088 q 385 1100 397 1100 q 351 1083 360 1100 q 343 1032 343 1067 l 244 1032 z "},"":{"ha":1278,"x_min":6,"x_max":1272,"o":"m 133 493 l 6 963 l 197 963 l 296 515 l 369 210 l 374 210 l 456 521 l 563 963 l 719 963 l 831 522 l 915 210 l 918 210 l 990 514 l 1089 963 l 1272 963 l 1147 494 l 1025 0 l 819 0 l 707 422 l 639 688 l 636 688 l 569 422 l 457 0 l 256 0 l 133 493 m 582 1035 l 639 1203 l 819 1203 l 688 1035 l 582 1035 z "},"":{"ha":1278,"x_min":6,"x_max":1272,"o":"m 133 493 l 6 963 l 197 963 l 296 515 l 369 210 l 374 210 l 456 521 l 563 963 l 719 963 l 831 522 l 915 210 l 918 210 l 990 514 l 1089 963 l 1272 963 l 1147 494 l 1025 0 l 819 0 l 707 422 l 639 688 l 636 688 l 569 422 l 457 0 l 256 0 l 133 493 m 572 1203 l 706 1203 l 849 1035 l 722 1035 l 639 1104 l 556 1035 l 429 1035 l 572 1203 z "},"":{"ha":1278,"x_min":6,"x_max":1272,"o":"m 133 493 l 6 963 l 197 963 l 296 515 l 369 210 l 374 210 l 456 521 l 563 963 l 719 963 l 831 522 l 915 210 l 918 210 l 990 514 l 1089 963 l 1272 963 l 1147 494 l 1025 0 l 819 0 l 707 422 l 639 688 l 636 688 l 569 422 l 457 0 l 256 0 l 133 493 m 513 1033 q 447 1056 471 1033 q 424 1117 424 1078 q 447 1178 424 1156 q 513 1200 471 1200 q 576 1178 553 1200 q 599 1117 599 1156 q 576 1056 599 1078 q 513 1033 553 1033 m 686 1117 q 710 1178 686 1156 q 774 1200 733 1200 q 838 1178 814 1200 q 861 1117 861 1156 q 838 1056 861 1078 q 774 1033 814 1033 q 710 1056 733 1033 q 686 1117 686 1078 z "},"":{"ha":1278,"x_min":6,"x_max":1272,"o":"m 133 493 l 6 963 l 197 963 l 296 515 l 369 210 l 374 210 l 456 521 l 563 963 l 719 963 l 831 522 l 915 210 l 918 210 l 990 514 l 1089 963 l 1272 963 l 1147 494 l 1025 0 l 819 0 l 707 422 l 639 688 l 636 688 l 569 422 l 457 0 l 256 0 l 133 493 m 454 1203 l 635 1203 l 692 1035 l 586 1035 l 454 1203 z "},"":{"ha":840,"x_min":6,"x_max":835,"o":"m 329 346 l 6 963 l 210 963 l 418 536 l 421 536 l 636 963 l 835 963 l 508 346 l 511 0 l 326 0 l 329 346 m 361 1035 l 418 1203 l 599 1203 l 467 1035 l 361 1035 z "},"":{"ha":840,"x_min":6,"x_max":835,"o":"m 329 346 l 6 963 l 210 963 l 418 536 l 421 536 l 636 963 l 835 963 l 508 346 l 511 0 l 326 0 l 329 346 m 353 1203 l 486 1203 l 629 1035 l 503 1035 l 419 1104 l 336 1035 l 210 1035 l 353 1203 z "},"":{"ha":840,"x_min":6,"x_max":835,"o":"m 329 346 l 6 963 l 210 963 l 418 536 l 421 536 l 636 963 l 835 963 l 508 346 l 511 0 l 326 0 l 329 346 m 292 1033 q 226 1056 250 1033 q 203 1117 203 1078 q 226 1178 203 1156 q 292 1200 250 1200 q 355 1178 332 1200 q 378 1117 378 1156 q 355 1056 378 1078 q 292 1033 332 1033 m 465 1117 q 489 1178 465 1156 q 553 1200 513 1200 q 617 1178 593 1200 q 640 1117 640 1156 q 617 1056 640 1078 q 553 1033 593 1033 q 489 1056 513 1033 q 465 1117 465 1078 z "},"":{"ha":840,"x_min":6,"x_max":835,"o":"m 329 346 l 6 963 l 210 963 l 418 536 l 421 536 l 636 963 l 835 963 l 508 346 l 511 0 l 326 0 l 329 346 m 235 1203 l 415 1203 l 472 1035 l 367 1035 l 235 1203 z "},"":{"ha":797,"x_min":26,"x_max":771,"o":"m 26 147 l 313 508 l 536 807 l 36 807 l 36 963 l 764 963 l 764 817 l 476 453 l 254 157 l 771 157 l 771 0 l 26 0 l 26 147 m 340 1035 l 397 1203 l 578 1203 l 446 1035 l 340 1035 z "},"":{"ha":797,"x_min":26,"x_max":771,"o":"m 26 147 l 313 508 l 536 807 l 36 807 l 36 963 l 764 963 l 764 817 l 476 453 l 254 157 l 771 157 l 771 0 l 26 0 l 26 147 m 315 1201 l 399 1132 l 482 1201 l 608 1201 l 465 1033 l 332 1033 l 189 1201 l 315 1201 z "},"":{"ha":797,"x_min":26,"x_max":771,"o":"m 26 147 l 313 508 l 536 807 l 36 807 l 36 963 l 764 963 l 764 817 l 476 453 l 254 157 l 771 157 l 771 0 l 26 0 l 26 147 m 400 1031 q 331 1054 356 1031 q 306 1119 306 1078 q 331 1183 306 1160 q 400 1207 356 1207 q 468 1183 443 1207 q 493 1119 493 1160 q 468 1054 493 1078 q 400 1031 443 1031 z "},"":{"ha":786,"x_min":40,"x_max":794,"o":"m 278 -21 q 103 36 165 -21 q 40 188 40 93 q 142 371 40 317 q 460 425 243 425 l 514 425 l 514 446 q 478 578 514 533 q 363 624 443 624 q 239 572 278 624 q 201 454 200 521 l 57 488 q 99 626 61 565 q 207 721 138 686 q 369 756 276 756 q 600 681 525 756 q 675 463 675 606 l 675 174 q 686 122 675 138 q 728 107 697 107 q 772 117 751 107 l 794 4 q 683 -15 742 -15 q 584 17 619 -15 q 544 114 549 49 q 547 147 544 131 l 544 147 q 442 24 510 68 q 278 -21 374 -21 m 206 201 q 235 133 206 158 q 318 107 265 107 q 413 133 367 107 q 486 207 458 160 q 514 315 514 254 l 514 326 l 481 326 q 269 299 333 326 q 206 201 206 272 m 325 867 l 392 1074 l 560 1074 l 431 867 l 325 867 z "},"":{"ha":786,"x_min":40,"x_max":794,"o":"m 278 -21 q 103 36 165 -21 q 40 188 40 93 q 142 371 40 317 q 460 425 243 425 l 514 425 l 514 446 q 478 578 514 533 q 363 624 443 624 q 239 572 278 624 q 201 454 200 521 l 57 488 q 99 626 61 565 q 207 721 138 686 q 369 756 276 756 q 600 681 525 756 q 675 463 675 606 l 675 174 q 686 122 675 138 q 728 107 697 107 q 772 117 751 107 l 794 4 q 683 -15 742 -15 q 584 17 619 -15 q 544 114 549 49 q 547 147 544 131 l 544 147 q 442 24 510 68 q 278 -21 374 -21 m 206 201 q 235 133 206 158 q 318 107 265 107 q 413 133 367 107 q 486 207 458 160 q 514 315 514 254 l 514 326 l 481 326 q 269 299 333 326 q 206 201 206 272 m 382 851 q 242 905 292 851 q 192 1061 192 958 l 294 1061 q 316 983 297 1008 q 382 958 335 958 q 449 983 431 958 q 471 1061 468 1008 l 574 1061 q 525 905 575 958 q 382 851 475 851 z "},"":{"ha":786,"x_min":40,"x_max":794,"o":"m 278 -21 q 103 36 165 -21 q 40 188 40 93 q 142 371 40 317 q 460 425 243 425 l 514 425 l 514 446 q 478 578 514 533 q 363 624 443 624 q 239 572 278 624 q 201 454 200 521 l 57 488 q 99 626 61 565 q 207 721 138 686 q 369 756 276 756 q 600 681 525 756 q 675 463 675 606 l 675 174 q 686 122 675 138 q 728 107 697 107 q 772 117 751 107 l 794 4 q 683 -15 742 -15 q 584 17 619 -15 q 544 114 549 49 q 547 147 544 131 l 544 147 q 442 24 510 68 q 278 -21 374 -21 m 206 201 q 235 133 206 158 q 318 107 265 107 q 413 133 367 107 q 486 207 458 160 q 514 315 514 254 l 514 326 l 481 326 q 269 299 333 326 q 206 201 206 272 m 317 1074 l 450 1074 l 593 867 l 481 867 l 383 969 l 286 867 l 174 867 l 317 1074 z "},"":{"ha":786,"x_min":40,"x_max":794,"o":"m 278 -21 q 103 36 165 -21 q 40 188 40 93 q 142 371 40 317 q 460 425 243 425 l 514 425 l 514 446 q 478 578 514 533 q 363 624 443 624 q 239 572 278 624 q 201 454 200 521 l 57 488 q 99 626 61 565 q 207 721 138 686 q 369 756 276 756 q 600 681 525 756 q 675 463 675 606 l 675 174 q 686 122 675 138 q 728 107 697 107 q 772 117 751 107 l 794 4 q 683 -15 742 -15 q 584 17 619 -15 q 544 114 549 49 q 547 147 544 131 l 544 147 q 442 24 510 68 q 278 -21 374 -21 m 206 201 q 235 133 206 158 q 318 107 265 107 q 413 133 367 107 q 486 207 458 160 q 514 315 514 254 l 514 326 l 481 326 q 269 299 333 326 q 206 201 206 272 m 256 863 q 190 885 214 863 q 167 947 167 907 q 190 1007 167 985 q 256 1029 214 1029 q 319 1007 296 1029 q 342 947 342 985 q 319 885 342 907 q 256 863 296 863 m 429 947 q 453 1007 429 985 q 517 1029 476 1029 q 581 1007 557 1029 q 604 947 604 985 q 581 885 604 908 q 517 863 557 863 q 453 885 476 863 q 429 947 429 908 z "},"":{"ha":786,"x_min":40,"x_max":794,"o":"m 278 -21 q 103 36 165 -21 q 40 188 40 93 q 142 371 40 317 q 460 425 243 425 l 514 425 l 514 446 q 478 578 514 533 q 363 624 443 624 q 239 572 278 624 q 201 454 200 521 l 57 488 q 99 626 61 565 q 207 721 138 686 q 369 756 276 756 q 600 681 525 756 q 675 463 675 606 l 675 174 q 686 122 675 138 q 728 107 697 107 q 772 117 751 107 l 794 4 q 683 -15 742 -15 q 584 17 619 -15 q 544 114 549 49 q 547 147 544 131 l 544 147 q 442 24 510 68 q 278 -21 374 -21 m 206 201 q 235 133 206 158 q 318 107 265 107 q 413 133 367 107 q 486 207 458 160 q 514 315 514 254 l 514 326 l 481 326 q 269 299 333 326 q 206 201 206 272 m 200 1074 l 368 1074 l 435 867 l 329 867 l 200 1074 z "},"":{"ha":786,"x_min":40,"x_max":794,"o":"m 278 -21 q 103 36 165 -21 q 40 188 40 93 q 142 371 40 317 q 460 425 243 425 l 514 425 l 514 446 q 478 578 514 533 q 363 624 443 624 q 239 572 278 624 q 201 454 200 521 l 57 488 q 99 626 61 565 q 207 721 138 686 q 369 756 276 756 q 600 681 525 756 q 675 463 675 606 l 675 174 q 686 122 675 138 q 728 107 697 107 q 772 117 751 107 l 794 4 q 683 -15 742 -15 q 584 17 619 -15 q 544 114 549 49 q 547 147 544 131 l 544 147 q 442 24 510 68 q 278 -21 374 -21 m 206 201 q 235 133 206 158 q 318 107 265 107 q 413 133 367 107 q 486 207 458 160 q 514 315 514 254 l 514 326 l 481 326 q 269 299 333 326 q 206 201 206 272 m 183 986 l 585 986 l 585 876 l 183 876 l 183 986 z "},"":{"ha":786,"x_min":40,"x_max":838,"o":"m 278 -21 q 103 36 165 -21 q 40 188 40 93 q 142 371 40 317 q 460 425 243 425 l 514 425 l 514 446 q 478 578 514 533 q 363 624 443 624 q 239 572 278 624 q 201 454 200 521 l 57 488 q 99 626 61 565 q 207 721 138 686 q 369 756 276 756 q 600 681 525 756 q 675 463 675 606 l 675 174 q 686 122 675 138 q 728 107 697 107 q 772 117 751 107 l 794 6 l 794 4 l 789 1 q 726 -50 750 -21 q 703 -101 703 -79 q 756 -137 703 -137 q 814 -128 781 -137 l 838 -211 q 710 -240 776 -240 q 614 -215 649 -240 q 579 -140 579 -189 q 663 -14 579 -74 q 544 114 553 -6 q 547 147 544 131 l 544 147 q 442 24 510 68 q 278 -21 374 -21 m 206 201 q 235 133 206 158 q 318 107 265 107 q 413 133 367 107 q 486 207 458 160 q 514 315 514 254 l 514 326 l 481 326 q 269 299 333 326 q 206 201 206 272 z "},"":{"ha":786,"x_min":40,"x_max":794,"o":"m 278 -21 q 103 36 165 -21 q 40 188 40 93 q 142 371 40 317 q 460 425 243 425 l 514 425 l 514 446 q 478 578 514 533 q 363 624 443 624 q 239 572 278 624 q 201 454 200 521 l 57 488 q 99 626 61 565 q 207 721 138 686 q 369 756 276 756 q 600 681 525 756 q 675 463 675 606 l 675 174 q 686 122 675 138 q 728 107 697 107 q 772 117 751 107 l 794 4 q 683 -15 742 -15 q 584 17 619 -15 q 544 114 549 49 q 547 147 544 131 l 544 147 q 442 24 510 68 q 278 -21 374 -21 m 206 201 q 235 133 206 158 q 318 107 265 107 q 413 133 367 107 q 486 207 458 160 q 514 315 514 254 l 514 326 l 481 326 q 269 299 333 326 q 206 201 206 272 m 383 860 q 290 892 325 860 q 256 978 256 924 q 290 1064 256 1032 q 383 1096 325 1096 q 475 1064 440 1096 q 510 978 510 1032 q 475 892 510 924 q 383 860 440 860 m 325 978 q 341 937 325 951 q 383 922 357 922 q 425 937 410 922 q 440 978 440 951 q 425 1020 440 1004 q 383 1036 410 1036 q 341 1020 357 1036 q 325 978 325 1004 z "},"":{"ha":786,"x_min":40,"x_max":794,"o":"m 278 -21 q 103 36 165 -21 q 40 188 40 93 q 142 371 40 317 q 460 425 243 425 l 514 425 l 514 446 q 478 578 514 533 q 363 624 443 624 q 239 572 278 624 q 201 454 200 521 l 57 488 q 99 626 61 565 q 207 721 138 686 q 369 756 276 756 q 600 681 525 756 q 675 463 675 606 l 675 174 q 686 122 675 138 q 728 107 697 107 q 772 117 751 107 l 794 4 q 683 -15 742 -15 q 584 17 619 -15 q 544 114 549 49 q 547 147 544 131 l 544 147 q 442 24 510 68 q 278 -21 374 -21 m 206 201 q 235 133 206 158 q 318 107 265 107 q 413 133 367 107 q 486 207 458 160 q 514 315 514 254 l 514 326 l 481 326 q 269 299 333 326 q 206 201 206 272 m 167 864 q 195 988 165 939 q 290 1038 225 1038 q 350 1027 325 1038 q 403 999 375 1017 q 433 981 421 986 q 458 975 446 975 q 492 991 483 975 q 500 1038 500 1007 l 599 1038 q 572 913 601 963 q 474 864 542 864 q 415 874 440 864 q 363 903 390 885 q 332 921 344 915 q 307 926 319 926 q 274 910 282 926 q 265 864 265 894 l 167 864 z "},"":{"ha":1179,"x_min":40,"x_max":1144,"o":"m 269 -21 q 101 36 161 -21 q 40 188 40 93 q 140 371 40 317 q 449 425 240 425 l 503 425 l 503 446 q 469 580 503 536 q 358 624 436 624 q 242 579 279 624 q 207 471 204 535 l 63 504 q 149 688 68 619 q 365 756 231 756 q 601 656 533 756 q 703 730 644 704 q 831 756 761 756 q 1069 638 994 756 q 1144 329 1144 519 l 660 329 q 713 174 667 232 q 842 115 760 115 q 940 157 899 115 q 994 271 981 199 l 1138 233 q 1042 53 1119 128 q 840 -21 965 -21 q 671 24 744 -21 q 556 149 597 68 q 422 17 493 56 q 269 -21 350 -21 m 206 201 q 233 133 206 158 q 310 107 260 107 q 401 133 356 107 q 474 208 446 160 q 503 315 503 256 l 503 326 l 469 326 q 268 299 331 326 q 206 201 206 272 m 986 443 q 943 576 983 525 q 833 626 903 626 q 722 581 768 626 q 664 443 676 536 l 986 443 m 542 867 l 608 1074 l 776 1074 l 647 867 l 542 867 z "},"":{"ha":732,"x_min":35,"x_max":714,"o":"m 397 -21 q 206 26 288 -21 q 79 161 124 74 q 35 367 35 249 q 78 573 35 485 q 203 708 122 661 q 393 756 285 756 q 613 683 529 756 q 714 497 696 611 l 561 457 q 506 575 549 533 q 396 617 463 617 q 259 552 310 617 q 208 367 208 488 q 259 183 208 249 q 396 118 310 118 q 505 160 461 118 q 561 279 549 201 l 714 239 q 614 52 696 125 q 397 -21 532 -21 m 338 867 l 404 1074 l 572 1074 l 443 867 l 338 867 z "},"":{"ha":732,"x_min":35,"x_max":714,"o":"m 397 -21 q 206 26 288 -21 q 79 161 124 74 q 35 367 35 249 q 78 573 35 485 q 203 708 122 661 q 393 756 285 756 q 613 683 529 756 q 714 497 696 611 l 561 457 q 506 575 549 533 q 396 617 463 617 q 259 552 310 617 q 208 367 208 488 q 259 183 208 249 q 396 118 310 118 q 505 160 461 118 q 561 279 549 201 l 714 239 q 614 52 696 125 q 397 -21 532 -21 m 299 1063 l 396 960 l 493 1063 l 606 1063 l 463 856 l 329 856 l 186 1063 l 299 1063 z "},"":{"ha":732,"x_min":35,"x_max":714,"o":"m 360 -240 q 240 -225 296 -240 l 257 -156 q 322 -164 286 -164 q 359 -157 347 -164 q 371 -133 371 -150 q 352 -106 371 -115 q 282 -87 333 -97 l 313 -12 q 109 113 183 13 q 35 367 35 213 q 78 573 35 485 q 203 708 122 661 q 393 756 285 756 q 613 683 529 756 q 714 497 696 611 l 561 457 q 506 575 549 533 q 396 617 463 617 q 259 552 310 617 q 208 367 208 488 q 259 183 208 249 q 396 118 310 118 q 505 160 461 118 q 561 279 549 201 l 714 239 q 615 53 696 126 q 403 -21 535 -19 l 390 -58 q 476 -86 449 -65 q 503 -146 503 -107 q 464 -217 503 -194 q 360 -240 425 -240 z "},"":{"ha":732,"x_min":35,"x_max":714,"o":"m 397 -21 q 206 26 288 -21 q 79 161 124 74 q 35 367 35 249 q 78 573 35 485 q 203 708 122 661 q 393 756 285 756 q 613 683 529 756 q 714 497 696 611 l 561 457 q 506 575 549 533 q 396 617 463 617 q 259 552 310 617 q 208 367 208 488 q 259 183 208 249 q 396 118 310 118 q 505 160 461 118 q 561 279 549 201 l 714 239 q 614 52 696 125 q 397 -21 532 -21 m 329 1074 l 463 1074 l 606 867 l 493 867 l 396 969 l 299 867 l 186 867 l 329 1074 z "},"":{"ha":732,"x_min":35,"x_max":714,"o":"m 397 -21 q 206 26 288 -21 q 79 161 124 74 q 35 367 35 249 q 78 573 35 485 q 203 708 122 661 q 393 756 285 756 q 613 683 529 756 q 714 497 696 611 l 561 457 q 506 575 549 533 q 396 617 463 617 q 259 552 310 617 q 208 367 208 488 q 259 183 208 249 q 396 118 310 118 q 505 160 461 118 q 561 279 549 201 l 714 239 q 614 52 696 125 q 397 -21 532 -21 m 397 863 q 328 886 353 863 q 303 951 303 910 q 328 1015 303 992 q 397 1039 353 1039 q 465 1015 440 1039 q 490 951 490 992 q 465 886 490 910 q 397 863 440 863 z "},"":{"ha":882,"x_min":35,"x_max":907,"o":"m 329 -21 q 112 78 189 -21 q 35 367 35 178 q 112 656 35 557 q 329 756 189 756 q 467 719 408 756 q 556 632 526 682 l 558 632 l 556 964 l 731 964 l 726 433 l 731 0 l 556 0 l 557 103 l 554 103 q 467 16 526 53 q 329 -21 408 -21 m 207 367 q 252 184 207 247 q 382 121 297 121 q 506 178 454 121 q 558 369 558 235 q 508 552 558 490 q 382 614 458 614 q 252 550 297 614 q 207 367 207 486 m 771 963 l 907 963 l 889 649 l 789 649 l 771 963 z "},"":{"ha":808,"x_min":35,"x_max":808,"o":"m 329 -21 q 112 78 189 -21 q 35 367 35 178 q 112 656 35 557 q 329 756 189 756 q 467 719 408 756 q 556 632 526 682 l 558 632 l 557 800 l 374 797 l 374 896 l 556 893 l 556 964 l 731 964 l 731 894 l 808 896 l 808 797 l 729 799 l 726 433 l 731 0 l 556 0 l 557 103 l 554 103 q 467 16 526 53 q 329 -21 408 -21 m 207 367 q 252 184 207 247 q 382 121 297 121 q 506 178 454 121 q 558 369 558 235 q 508 552 558 490 q 382 614 458 614 q 252 550 297 614 q 207 367 207 486 z "},"":{"ha":750,"x_min":35,"x_max":715,"o":"m 393 -21 q 203 26 285 -21 q 78 162 122 74 q 35 367 35 250 q 128 650 35 546 q 383 754 221 754 q 637 635 558 754 q 715 328 715 517 l 208 326 q 267 170 217 225 q 396 115 318 115 q 505 158 461 115 q 563 275 549 201 l 711 236 q 610 54 692 129 q 393 -21 529 -21 m 549 440 q 503 571 546 522 q 386 619 461 619 q 271 575 317 619 q 213 440 225 531 l 549 440 m 328 867 l 394 1074 l 563 1074 l 433 867 l 328 867 z "},"":{"ha":750,"x_min":35,"x_max":715,"o":"m 393 -21 q 203 26 285 -21 q 78 162 122 74 q 35 367 35 250 q 128 650 35 546 q 383 754 221 754 q 637 635 558 754 q 715 328 715 517 l 208 326 q 267 170 217 225 q 396 115 318 115 q 505 158 461 115 q 563 275 549 201 l 711 236 q 610 54 692 129 q 393 -21 529 -21 m 549 440 q 503 571 546 522 q 386 619 461 619 q 271 575 317 619 q 213 440 225 531 l 549 440 m 385 851 q 244 905 294 851 q 194 1061 194 958 l 297 1061 q 319 983 300 1008 q 385 958 338 958 q 452 983 433 958 q 474 1061 471 1008 l 576 1061 q 528 905 578 958 q 385 851 478 851 z "},"":{"ha":750,"x_min":35,"x_max":715,"o":"m 393 -21 q 203 26 285 -21 q 78 162 122 74 q 35 367 35 250 q 128 650 35 546 q 383 754 221 754 q 637 635 558 754 q 715 328 715 517 l 208 326 q 267 170 217 225 q 396 115 318 115 q 505 158 461 115 q 563 275 549 201 l 711 236 q 610 54 692 129 q 393 -21 529 -21 m 549 440 q 503 571 546 522 q 386 619 461 619 q 271 575 317 619 q 213 440 225 531 l 549 440 m 288 1063 l 385 960 l 482 1063 l 594 1063 l 451 856 l 318 856 l 175 1063 l 288 1063 z "},"":{"ha":750,"x_min":35,"x_max":715,"o":"m 393 -21 q 203 26 285 -21 q 78 162 122 74 q 35 367 35 250 q 128 650 35 546 q 383 754 221 754 q 637 635 558 754 q 715 328 715 517 l 208 326 q 267 170 217 225 q 396 115 318 115 q 505 158 461 115 q 563 275 549 201 l 711 236 q 610 54 692 129 q 393 -21 529 -21 m 549 440 q 503 571 546 522 q 386 619 461 619 q 271 575 317 619 q 213 440 225 531 l 549 440 m 318 1074 l 451 1074 l 594 867 l 482 867 l 385 969 l 288 867 l 175 867 l 318 1074 z "},"":{"ha":750,"x_min":35,"x_max":715,"o":"m 393 -21 q 203 26 285 -21 q 78 162 122 74 q 35 367 35 250 q 128 650 35 546 q 383 754 221 754 q 637 635 558 754 q 715 328 715 517 l 208 326 q 267 170 217 225 q 396 115 318 115 q 505 158 461 115 q 563 275 549 201 l 711 236 q 610 54 692 129 q 393 -21 529 -21 m 549 440 q 503 571 546 522 q 386 619 461 619 q 271 575 317 619 q 213 440 225 531 l 549 440 m 258 863 q 193 885 217 863 q 169 947 169 907 q 193 1007 169 985 q 258 1029 217 1029 q 322 1007 299 1029 q 344 947 344 985 q 322 885 344 907 q 258 863 299 863 m 432 947 q 456 1007 432 985 q 519 1029 479 1029 q 583 1007 560 1029 q 607 947 607 985 q 583 885 607 908 q 519 863 560 863 q 456 885 479 863 q 432 947 432 908 z "},"":{"ha":750,"x_min":35,"x_max":715,"o":"m 393 -21 q 203 26 285 -21 q 78 162 122 74 q 35 367 35 250 q 128 650 35 546 q 383 754 221 754 q 637 635 558 754 q 715 328 715 517 l 208 326 q 267 170 217 225 q 396 115 318 115 q 505 158 461 115 q 563 275 549 201 l 711 236 q 610 54 692 129 q 393 -21 529 -21 m 549 440 q 503 571 546 522 q 386 619 461 619 q 271 575 317 619 q 213 440 225 531 l 549 440 m 386 863 q 317 886 342 863 q 292 951 292 910 q 317 1015 292 992 q 386 1039 342 1039 q 454 1015 429 1039 q 479 951 479 992 q 454 886 479 910 q 386 863 429 863 z "},"":{"ha":750,"x_min":35,"x_max":715,"o":"m 393 -21 q 203 26 285 -21 q 78 162 122 74 q 35 367 35 250 q 128 650 35 546 q 383 754 221 754 q 637 635 558 754 q 715 328 715 517 l 208 326 q 267 170 217 225 q 396 115 318 115 q 505 158 461 115 q 563 275 549 201 l 711 236 q 610 54 692 129 q 393 -21 529 -21 m 549 440 q 503 571 546 522 q 386 619 461 619 q 271 575 317 619 q 213 440 225 531 l 549 440 m 203 1074 l 371 1074 l 438 867 l 332 867 l 203 1074 z "},"":{"ha":750,"x_min":35,"x_max":715,"o":"m 393 -21 q 203 26 285 -21 q 78 162 122 74 q 35 367 35 250 q 128 650 35 546 q 383 754 221 754 q 637 635 558 754 q 715 328 715 517 l 208 326 q 267 170 217 225 q 396 115 318 115 q 505 158 461 115 q 563 275 549 201 l 711 236 q 610 54 692 129 q 393 -21 529 -21 m 549 440 q 503 571 546 522 q 386 619 461 619 q 271 575 317 619 q 213 440 225 531 l 549 440 m 186 986 l 588 986 l 588 876 l 186 876 l 186 986 z "},"":{"ha":750,"x_min":35,"x_max":715,"o":"m 393 -21 q 203 26 285 -21 q 78 162 122 74 q 35 367 35 250 q 128 650 35 546 q 383 754 221 754 q 637 635 558 754 q 715 328 715 517 l 208 326 q 267 170 217 225 q 396 115 318 115 q 505 158 461 115 q 563 275 549 201 l 711 236 q 661 112 699 169 q 561 19 624 54 q 510 -28 529 -3 q 492 -74 492 -54 q 544 -110 492 -110 q 603 -100 569 -110 l 626 -183 q 499 -212 565 -212 q 403 -187 438 -212 q 368 -112 368 -161 q 411 -21 368 -64 l 393 -21 m 549 440 q 503 571 546 522 q 386 619 461 619 q 271 575 317 619 q 213 440 225 531 l 549 440 z "},"":{"ha":808,"x_min":35,"x_max":731,"o":"m 379 -240 q 151 -176 235 -240 q 56 -12 67 -111 l 200 29 q 249 -76 204 -39 q 374 -112 294 -112 q 520 -49 482 -112 q 558 132 558 14 l 558 163 l 554 163 q 468 78 526 114 q 329 42 410 42 q 113 135 192 42 q 35 394 35 228 q 112 655 35 554 q 328 756 189 756 q 467 719 408 756 q 556 632 526 682 l 558 632 l 557 736 l 731 736 l 731 181 q 641 -140 731 -40 q 379 -240 551 -240 m 208 394 q 253 235 208 294 q 379 176 299 176 q 506 228 454 176 q 558 394 558 281 q 514 547 558 481 q 379 614 469 614 q 255 553 301 614 q 208 394 208 493 m 408 851 q 268 905 318 851 q 218 1061 218 958 l 321 1061 q 342 983 324 1008 q 408 958 361 958 q 476 983 457 958 q 497 1061 494 1008 l 600 1061 q 551 905 601 958 q 408 851 501 851 z "},"":{"ha":808,"x_min":35,"x_max":731,"o":"m 379 -240 q 151 -176 235 -240 q 56 -12 67 -111 l 200 29 q 249 -76 204 -39 q 374 -112 294 -112 q 520 -49 482 -112 q 558 132 558 14 l 558 163 l 554 163 q 468 78 526 114 q 329 42 410 42 q 113 135 192 42 q 35 394 35 228 q 112 655 35 554 q 328 756 189 756 q 467 719 408 756 q 556 632 526 682 l 558 632 l 557 736 l 731 736 l 731 181 q 641 -140 731 -40 q 379 -240 551 -240 m 208 394 q 253 235 208 294 q 379 176 299 176 q 506 228 454 176 q 558 394 558 281 q 514 547 558 481 q 379 614 469 614 q 255 553 301 614 q 208 394 208 493 m 343 1074 l 476 1074 l 619 867 l 507 867 l 410 969 l 313 867 l 200 867 l 343 1074 z "},"":{"ha":808,"x_min":35,"x_max":731,"o":"m 379 -240 q 151 -176 235 -240 q 56 -12 67 -111 l 200 29 q 249 -76 204 -39 q 374 -112 294 -112 q 520 -49 482 -112 q 558 132 558 14 l 558 163 l 554 163 q 468 78 526 114 q 329 42 410 42 q 113 135 192 42 q 35 394 35 228 q 112 655 35 554 q 328 756 189 756 q 467 719 408 756 q 556 632 526 682 l 558 632 l 557 736 l 731 736 l 731 181 q 641 -140 731 -40 q 379 -240 551 -240 m 208 394 q 253 235 208 294 q 379 176 299 176 q 506 228 454 176 q 558 394 558 281 q 514 547 558 481 q 379 614 469 614 q 255 553 301 614 q 208 394 208 493 m 410 869 q 347 890 369 869 q 325 950 325 911 q 358 1044 325 1004 q 476 1090 392 1083 l 492 1044 q 413 986 413 1036 q 474 974 456 989 q 492 935 492 958 q 470 888 492 907 q 410 869 449 869 z "},"":{"ha":808,"x_min":35,"x_max":731,"o":"m 379 -240 q 151 -176 235 -240 q 56 -12 67 -111 l 200 29 q 249 -76 204 -39 q 374 -112 294 -112 q 520 -49 482 -112 q 558 132 558 14 l 558 163 l 554 163 q 468 78 526 114 q 329 42 410 42 q 113 135 192 42 q 35 394 35 228 q 112 655 35 554 q 328 756 189 756 q 467 719 408 756 q 556 632 526 682 l 558 632 l 557 736 l 731 736 l 731 181 q 641 -140 731 -40 q 379 -240 551 -240 m 208 394 q 253 235 208 294 q 379 176 299 176 q 506 228 454 176 q 558 394 558 281 q 514 547 558 481 q 379 614 469 614 q 255 553 301 614 q 208 394 208 493 m 410 863 q 340 886 365 863 q 315 951 315 910 q 340 1015 315 992 q 410 1039 365 1039 q 478 1015 453 1039 q 503 951 503 992 q 478 886 503 910 q 410 863 453 863 z "},"":{"ha":814,"x_min":-19,"x_max":739,"o":"m 82 354 l 79 790 l -19 789 l -19 888 l 78 886 l 78 964 l 250 964 l 250 886 l 415 888 l 415 789 l 249 792 l 247 629 l 250 629 q 342 720 279 685 q 483 756 404 756 q 672 682 608 756 q 735 451 735 608 l 735 354 l 739 0 l 567 0 l 569 354 l 569 432 q 531 565 569 521 q 422 608 492 608 q 297 552 347 608 q 247 404 247 496 l 247 354 l 250 0 l 78 0 l 82 354 z "},"":{"ha":814,"x_min":-37,"x_max":739,"o":"m 82 354 l 78 964 l 250 964 l 247 629 l 250 629 q 342 720 279 685 q 483 756 404 756 q 672 682 608 756 q 735 451 735 608 l 735 354 l 739 0 l 567 0 l 569 354 l 569 432 q 531 565 569 521 q 422 608 492 608 q 297 552 347 608 q 247 404 247 496 l 247 354 l 250 0 l 78 0 l 82 354 m 106 1179 l 239 1179 l 382 1011 l 256 1011 l 172 1081 l 89 1011 l -37 1011 l 106 1179 z "},"":{"ha":328,"x_min":78,"x_max":340,"o":"m 82 369 l 78 736 l 250 736 l 247 369 l 250 0 l 78 0 l 82 369 m 106 867 l 172 1074 l 340 1074 l 211 867 l 106 867 z "},"":{"ha":328,"x_min":-28,"x_max":356,"o":"m 82 369 l 78 736 l 250 736 l 247 369 l 250 0 l 78 0 l 82 369 m 163 851 q 22 905 72 851 q -28 1061 -28 958 l 75 1061 q 97 983 78 1008 q 163 958 115 958 q 230 983 211 958 q 251 1061 249 1008 l 354 1061 q 306 905 356 958 q 163 851 256 851 z "},"":{"ha":328,"x_min":-46,"x_max":374,"o":"m 82 369 l 78 736 l 250 736 l 247 369 l 250 0 l 78 0 l 82 369 m 97 1074 l 231 1074 l 374 867 l 261 867 l 164 969 l 67 867 l -46 867 l 97 1074 z "},"":{"ha":328,"x_min":-53,"x_max":385,"o":"m 82 369 l 78 736 l 250 736 l 247 369 l 250 0 l 78 0 l 82 369 m 36 863 q -29 885 -6 863 q -53 947 -53 907 q -29 1007 -53 985 q 36 1029 -6 1029 q 99 1007 76 1029 q 122 947 122 985 q 99 885 122 907 q 36 863 76 863 m 210 947 q 233 1007 210 985 q 297 1029 257 1029 q 361 1007 338 1029 q 385 947 385 985 q 361 885 385 908 q 297 863 338 863 q 233 885 257 863 q 210 947 210 908 z "},"":{"ha":328,"x_min":-19,"x_max":250,"o":"m 82 369 l 78 736 l 250 736 l 247 369 l 250 0 l 78 0 l 82 369 m -19 1074 l 149 1074 l 215 867 l 110 867 l -19 1074 z "},"":{"ha":328,"x_min":-100,"x_max":267,"o":"m 81 286 l 78 736 q 164 731 125 731 q 250 736 203 731 l 247 286 l 250 0 l 246 0 q 188 -179 240 -124 q 35 -235 136 -235 q -33 -228 4 -235 q -100 -211 -71 -222 l -74 -85 q 0 -97 -39 -97 q 59 -74 39 -97 q 82 0 79 -51 l 78 0 l 81 286 m 63 897 q 88 964 63 942 q 165 986 113 986 q 242 964 217 986 q 267 897 267 942 q 242 830 267 851 q 165 808 218 808 q 88 830 113 808 q 63 897 63 851 z "},"":{"ha":328,"x_min":-36,"x_max":365,"o":"m 82 369 l 78 736 l 250 736 l 247 369 l 250 0 l 78 0 l 82 369 m -36 986 l 365 986 l 365 876 l -36 876 l -36 986 z "},"":{"ha":328,"x_min":14,"x_max":272,"o":"m 82 369 l 78 736 l 250 736 l 247 369 l 250 0 l 226 0 q 162 -53 186 -24 q 138 -106 138 -82 q 190 -142 138 -142 q 249 -132 215 -142 l 272 -215 q 144 -244 211 -244 q 49 -219 83 -244 q 14 -144 14 -193 q 43 -68 14 -103 q 126 0 72 -33 l 78 0 l 82 369 m 71 951 q 96 1015 71 992 q 165 1039 121 1039 q 233 1015 208 1039 q 258 951 258 992 q 233 886 258 910 q 165 863 208 863 q 96 886 121 863 q 71 951 71 910 z "},"":{"ha":328,"x_min":-54,"x_max":382,"o":"m 82 369 l 78 736 l 250 736 l 247 369 l 250 0 l 78 0 l 82 369 m -53 864 q -24 988 -54 939 q 71 1038 6 1038 q 131 1027 106 1038 q 183 999 156 1017 q 214 981 201 986 q 239 975 226 975 q 272 991 264 975 q 281 1038 281 1007 l 379 1038 q 352 913 382 963 q 254 864 322 864 q 196 874 221 864 q 143 903 171 885 q 113 921 125 915 q 88 926 100 926 q 54 910 63 926 q 46 864 46 894 l -53 864 z "},"":{"ha":331,"x_min":-96,"x_max":375,"o":"m 47 -235 q -96 -207 -29 -235 l -71 -85 q 4 -97 -36 -97 q 65 -69 46 -97 q 85 19 85 -42 l 85 157 l 82 736 l 253 736 l 250 156 l 250 42 q 201 -169 250 -104 q 47 -235 151 -235 m 99 1074 l 232 1074 l 375 867 l 263 867 l 165 969 l 68 867 l -44 867 l 99 1074 z "},"":{"ha":751,"x_min":78,"x_max":747,"o":"m 82 489 l 78 964 l 250 964 l 247 489 l 247 432 l 513 736 l 710 736 l 460 461 l 747 0 l 558 0 l 349 339 l 249 229 l 250 0 l 78 0 l 82 489 m 268 -196 q 356 -162 363 -190 q 299 -144 317 -160 q 282 -108 282 -129 q 303 -65 282 -83 q 361 -47 324 -47 q 426 -66 403 -47 q 449 -118 449 -85 q 413 -201 449 -165 q 285 -243 376 -236 l 268 -196 z "},"":{"ha":751,"x_min":78,"x_max":747,"o":"m 82 489 l 78 736 l 250 736 l 247 489 l 247 440 l 508 736 l 710 736 l 460 461 l 747 0 l 558 0 l 349 339 l 249 229 l 250 0 l 78 0 l 82 489 z "},"":{"ha":328,"x_min":78,"x_max":343,"o":"m 82 489 l 78 964 l 250 964 l 247 489 l 250 0 l 78 0 l 82 489 m 106 1011 l 163 1179 l 343 1179 l 211 1011 l 106 1011 z "},"":{"ha":436,"x_min":78,"x_max":461,"o":"m 82 489 l 78 964 l 250 964 l 247 489 l 250 0 l 78 0 l 82 489 m 325 963 l 461 963 l 443 649 l 343 649 l 325 963 z "},"":{"ha":328,"x_min":71,"x_max":251,"o":"m 82 489 l 78 964 l 250 964 l 247 489 l 250 0 l 78 0 l 82 489 m 71 -196 q 158 -162 165 -190 q 102 -144 119 -160 q 85 -108 85 -129 q 106 -65 85 -83 q 164 -47 126 -47 q 228 -66 206 -47 q 251 -118 251 -85 q 215 -201 251 -165 q 88 -243 179 -236 l 71 -196 z "},"":{"ha":421,"x_min":78,"x_max":488,"o":"m 82 489 l 78 964 l 250 964 l 247 489 l 250 0 l 78 0 l 82 489 m 319 485 q 341 540 319 519 q 403 560 363 560 q 465 540 443 560 q 488 485 488 519 q 465 428 488 447 q 403 408 443 408 q 341 428 363 408 q 319 485 319 447 z "},"":{"ha":328,"x_min":-49,"x_max":378,"o":"m 81 378 l 1 331 l -49 417 l 82 489 l 78 964 l 250 964 l 247 586 l 328 633 l 378 549 l 247 475 l 250 0 l 78 0 l 81 378 z "},"":{"ha":810,"x_min":78,"x_max":735,"o":"m 82 354 l 78 736 l 250 736 l 247 629 l 250 629 q 341 721 279 686 q 483 756 403 756 q 669 682 607 756 q 732 451 732 608 l 732 354 l 735 0 l 564 0 l 567 354 l 567 432 q 528 565 567 519 q 421 610 489 610 q 297 553 346 610 q 247 404 247 496 l 247 354 l 250 0 l 78 0 l 82 354 m 392 867 l 458 1074 l 626 1074 l 497 867 l 392 867 z "},"":{"ha":810,"x_min":78,"x_max":735,"o":"m 82 354 l 78 736 l 250 736 l 247 629 l 250 629 q 341 721 279 686 q 483 756 403 756 q 669 682 607 756 q 732 451 732 608 l 732 354 l 735 0 l 564 0 l 567 354 l 567 432 q 528 565 567 519 q 421 610 489 610 q 297 553 346 610 q 247 404 247 496 l 247 354 l 250 0 l 78 0 l 82 354 m 351 1063 l 449 960 l 546 1063 l 658 1063 l 515 856 l 382 856 l 239 1063 l 351 1063 z "},"":{"ha":810,"x_min":78,"x_max":735,"o":"m 82 354 l 78 736 l 250 736 l 247 629 l 250 629 q 341 721 279 686 q 483 756 403 756 q 669 682 607 756 q 732 451 732 608 l 732 354 l 735 0 l 564 0 l 567 354 l 567 432 q 528 565 567 519 q 421 610 489 610 q 297 553 346 610 q 247 404 247 496 l 247 354 l 250 0 l 78 0 l 82 354 m 307 -196 q 394 -162 401 -190 q 338 -144 356 -160 q 321 -108 321 -129 q 342 -65 321 -83 q 400 -47 363 -47 q 465 -66 442 -47 q 488 -118 488 -85 q 451 -201 488 -165 q 324 -243 415 -236 l 307 -196 z "},"":{"ha":810,"x_min":78,"x_max":735,"o":"m 82 354 l 78 736 l 250 736 l 247 629 l 250 629 q 341 721 279 686 q 483 756 403 756 q 669 682 607 756 q 732 451 732 608 l 732 354 l 735 0 l 564 0 l 567 354 l 567 432 q 528 565 567 519 q 421 610 489 610 q 297 553 346 610 q 247 404 247 496 l 247 354 l 250 0 l 78 0 l 82 354 m 233 864 q 262 988 232 939 q 357 1038 292 1038 q 417 1027 392 1038 q 469 999 442 1017 q 500 981 488 986 q 525 975 513 975 q 558 991 550 975 q 567 1038 567 1007 l 665 1038 q 638 913 668 963 q 540 864 608 864 q 482 874 507 864 q 429 903 457 885 q 399 921 411 915 q 374 926 386 926 q 340 910 349 926 q 332 864 332 894 l 233 864 z "},"":{"ha":810,"x_min":78,"x_max":736,"o":"m 82 354 l 78 736 l 250 736 l 247 629 l 250 629 q 341 721 279 686 q 483 756 403 756 q 669 682 607 756 q 732 451 732 608 l 732 354 l 735 42 q 685 -170 736 -106 q 528 -235 635 -235 q 389 -207 456 -235 l 415 -85 q 489 -97 451 -97 q 546 -72 529 -97 q 564 18 563 -46 l 567 354 l 567 432 q 528 565 567 519 q 421 610 489 610 q 297 553 346 610 q 247 404 247 496 l 247 354 l 250 0 l 78 0 l 82 354 z "},"":{"ha":788,"x_min":35,"x_max":753,"o":"m 392 -21 q 203 26 285 -21 q 78 162 122 74 q 35 368 35 250 q 78 574 35 486 q 203 708 122 661 q 392 756 283 756 q 583 708 501 756 q 708 574 664 661 q 753 368 753 486 q 708 162 753 250 q 582 26 664 74 q 392 -21 500 -21 m 207 368 q 256 185 207 250 q 393 119 306 119 q 531 185 481 119 q 581 368 581 250 q 531 549 581 485 q 393 614 481 614 q 256 549 306 614 q 207 368 207 485 m 335 867 l 401 1074 l 569 1074 l 440 867 l 335 867 z "},"":{"ha":788,"x_min":35,"x_max":753,"o":"m 392 -21 q 203 26 285 -21 q 78 162 122 74 q 35 368 35 250 q 78 574 35 486 q 203 708 122 661 q 392 756 283 756 q 583 708 501 756 q 708 574 664 661 q 753 368 753 486 q 708 162 753 250 q 582 26 664 74 q 392 -21 500 -21 m 207 368 q 256 185 207 250 q 393 119 306 119 q 531 185 481 119 q 581 368 581 250 q 531 549 581 485 q 393 614 481 614 q 256 549 306 614 q 207 368 207 485 m 392 851 q 251 905 301 851 q 201 1061 201 958 l 304 1061 q 326 983 307 1008 q 392 958 344 958 q 459 983 440 958 q 481 1061 478 1008 l 583 1061 q 535 905 585 958 q 392 851 485 851 z "},"":{"ha":788,"x_min":35,"x_max":753,"o":"m 392 -21 q 203 26 285 -21 q 78 162 122 74 q 35 368 35 250 q 78 574 35 486 q 203 708 122 661 q 392 756 283 756 q 583 708 501 756 q 708 574 664 661 q 753 368 753 486 q 708 162 753 250 q 582 26 664 74 q 392 -21 500 -21 m 207 368 q 256 185 207 250 q 393 119 306 119 q 531 185 481 119 q 581 368 581 250 q 531 549 581 485 q 393 614 481 614 q 256 549 306 614 q 207 368 207 485 m 326 1074 l 460 1074 l 603 867 l 490 867 l 393 969 l 296 867 l 183 867 l 326 1074 z "},"":{"ha":788,"x_min":35,"x_max":753,"o":"m 392 -21 q 203 26 285 -21 q 78 162 122 74 q 35 368 35 250 q 78 574 35 486 q 203 708 122 661 q 392 756 283 756 q 583 708 501 756 q 708 574 664 661 q 753 368 753 486 q 708 162 753 250 q 582 26 664 74 q 392 -21 500 -21 m 207 368 q 256 185 207 250 q 393 119 306 119 q 531 185 481 119 q 581 368 581 250 q 531 549 581 485 q 393 614 481 614 q 256 549 306 614 q 207 368 207 485 m 265 863 q 200 885 224 863 q 176 947 176 907 q 200 1007 176 985 q 265 1029 224 1029 q 328 1007 306 1029 q 351 947 351 985 q 328 885 351 907 q 265 863 306 863 m 439 947 q 463 1007 439 985 q 526 1029 486 1029 q 590 1007 567 1029 q 614 947 614 985 q 590 885 614 908 q 526 863 567 863 q 463 885 486 863 q 439 947 439 908 z "},"":{"ha":788,"x_min":35,"x_max":753,"o":"m 392 -21 q 203 26 285 -21 q 78 162 122 74 q 35 368 35 250 q 78 574 35 486 q 203 708 122 661 q 392 756 283 756 q 583 708 501 756 q 708 574 664 661 q 753 368 753 486 q 708 162 753 250 q 582 26 664 74 q 392 -21 500 -21 m 207 368 q 256 185 207 250 q 393 119 306 119 q 531 185 481 119 q 581 368 581 250 q 531 549 581 485 q 393 614 481 614 q 256 549 306 614 q 207 368 207 485 m 211 1074 l 379 1074 l 446 867 l 340 867 l 211 1074 z "},"":{"ha":788,"x_min":35,"x_max":753,"o":"m 392 -21 q 203 26 285 -21 q 78 162 122 74 q 35 368 35 250 q 78 574 35 486 q 203 708 122 661 q 392 756 283 756 q 583 708 501 756 q 708 574 664 661 q 753 368 753 486 q 708 162 753 250 q 582 26 664 74 q 392 -21 500 -21 m 207 368 q 256 185 207 250 q 393 119 306 119 q 531 185 481 119 q 581 368 581 250 q 531 549 581 485 q 393 614 481 614 q 256 549 306 614 q 207 368 207 485 m 514 1074 l 663 1074 l 529 867 l 429 867 l 514 1074 m 304 1074 l 439 1074 l 344 867 l 235 867 l 304 1074 z "},"":{"ha":788,"x_min":35,"x_max":753,"o":"m 392 -21 q 203 26 285 -21 q 78 162 122 74 q 35 368 35 250 q 78 574 35 486 q 203 708 122 661 q 392 756 283 756 q 583 708 501 756 q 708 574 664 661 q 753 368 753 486 q 708 162 753 250 q 582 26 664 74 q 392 -21 500 -21 m 207 368 q 256 185 207 250 q 393 119 306 119 q 531 185 481 119 q 581 368 581 250 q 531 549 581 485 q 393 614 481 614 q 256 549 306 614 q 207 368 207 485 m 193 986 l 594 986 l 594 876 l 193 876 l 193 986 z "},"":{"ha":788,"x_min":35,"x_max":753,"o":"m 392 -21 q 185 38 274 -21 l 142 -17 l 76 32 l 124 93 q 58 213 81 143 q 35 368 35 283 q 78 574 35 486 q 203 708 122 661 q 392 756 283 756 q 601 697 513 756 l 646 754 l 713 706 l 663 643 q 753 368 753 540 q 708 162 753 250 q 582 26 664 74 q 392 -21 500 -21 m 207 368 q 232 228 207 286 l 506 576 q 393 614 460 614 q 256 549 306 614 q 207 368 207 485 m 281 158 q 393 119 326 119 q 531 185 481 119 q 581 368 581 250 q 556 507 581 451 l 281 158 m 335 867 l 401 1074 l 569 1074 l 440 867 l 335 867 z "},"":{"ha":788,"x_min":35,"x_max":753,"o":"m 392 -21 q 203 26 285 -21 q 78 162 122 74 q 35 368 35 250 q 78 574 35 486 q 203 708 122 661 q 392 756 283 756 q 583 708 501 756 q 708 574 664 661 q 753 368 753 486 q 708 162 753 250 q 582 26 664 74 q 392 -21 500 -21 m 207 368 q 256 185 207 250 q 393 119 306 119 q 531 185 481 119 q 581 368 581 250 q 531 549 581 485 q 393 614 481 614 q 256 549 306 614 q 207 368 207 485 m 178 864 q 206 988 176 939 q 301 1038 236 1038 q 361 1027 336 1038 q 414 999 386 1017 q 444 981 432 986 q 469 975 457 975 q 503 991 494 975 q 511 1038 511 1007 l 610 1038 q 583 913 613 963 q 485 864 553 864 q 426 874 451 864 q 374 903 401 885 q 343 921 356 915 q 318 926 331 926 q 285 910 293 926 q 276 864 276 894 l 178 864 z "},"":{"ha":519,"x_min":78,"x_max":506,"o":"m 82 353 l 78 736 l 250 736 l 246 622 l 249 622 q 325 717 271 679 q 461 756 379 756 q 506 750 489 756 l 506 585 q 444 593 471 593 q 298 534 349 593 q 247 358 247 475 l 247 329 l 250 0 l 78 0 l 82 353 m 228 867 l 294 1074 l 463 1074 l 333 867 l 228 867 z "},"":{"ha":519,"x_min":76,"x_max":506,"o":"m 82 353 l 78 736 l 250 736 l 246 622 l 249 622 q 325 717 271 679 q 461 756 379 756 q 506 750 489 756 l 506 585 q 444 593 471 593 q 298 534 349 593 q 247 358 247 475 l 247 329 l 250 0 l 78 0 l 82 353 m 189 1063 l 286 960 l 383 1063 l 496 1063 l 353 856 l 219 856 l 76 1063 l 189 1063 z "},"":{"ha":519,"x_min":64,"x_max":506,"o":"m 82 353 l 78 736 l 250 736 l 246 622 l 249 622 q 325 717 271 679 q 461 756 379 756 q 506 750 489 756 l 506 585 q 444 593 471 593 q 298 534 349 593 q 247 358 247 475 l 247 329 l 250 0 l 78 0 l 82 353 m 64 -196 q 151 -162 158 -190 q 95 -144 113 -160 q 78 -108 78 -129 q 99 -65 78 -83 q 157 -47 119 -47 q 222 -66 199 -47 q 244 -118 244 -85 q 208 -201 244 -165 q 81 -243 172 -236 l 64 -196 z "},"":{"ha":658,"x_min":15,"x_max":636,"o":"m 336 -21 q 111 38 192 -21 q 15 211 31 97 l 161 249 q 208 151 164 188 q 339 115 253 115 q 468 203 468 115 q 434 267 468 243 q 313 308 400 292 q 112 388 175 333 q 49 535 49 443 q 120 695 49 635 q 318 756 192 756 q 530 701 456 756 q 619 538 604 647 l 475 500 q 322 619 461 619 q 244 599 271 619 q 217 543 217 578 q 249 481 217 504 q 364 442 281 458 q 572 359 508 415 q 636 206 636 303 q 558 42 636 104 q 336 -21 479 -21 m 268 867 l 335 1074 l 503 1074 l 374 867 l 268 867 z "},"":{"ha":658,"x_min":15,"x_max":636,"o":"m 336 -21 q 111 38 192 -21 q 15 211 31 97 l 161 249 q 208 151 164 188 q 339 115 253 115 q 468 203 468 115 q 434 267 468 243 q 313 308 400 292 q 112 388 175 333 q 49 535 49 443 q 120 695 49 635 q 318 756 192 756 q 530 701 456 756 q 619 538 604 647 l 475 500 q 322 619 461 619 q 244 599 271 619 q 217 543 217 578 q 249 481 217 504 q 364 442 281 458 q 572 359 508 415 q 636 206 636 303 q 558 42 636 104 q 336 -21 479 -21 m 229 1063 l 326 960 l 424 1063 l 536 1063 l 393 856 l 260 856 l 117 1063 l 229 1063 z "},"":{"ha":658,"x_min":15,"x_max":636,"o":"m 318 -240 q 199 -225 254 -240 l 215 -156 q 281 -164 244 -164 q 317 -157 306 -164 q 329 -133 329 -150 q 310 -106 329 -115 q 240 -87 292 -97 l 269 -17 q 92 53 156 -4 q 15 211 28 111 l 161 249 q 208 151 164 188 q 339 115 253 115 q 468 203 468 115 q 434 267 468 243 q 313 308 400 292 q 112 388 175 333 q 49 535 49 443 q 120 695 49 635 q 318 756 192 756 q 530 701 456 756 q 619 538 604 647 l 475 500 q 322 619 461 619 q 244 599 271 619 q 217 543 217 578 q 249 481 217 504 q 364 442 281 458 q 572 359 508 415 q 636 206 636 303 q 565 47 636 108 q 361 -21 493 -15 l 349 -58 q 434 -86 407 -65 q 461 -146 461 -107 q 422 -217 461 -194 q 318 -240 383 -240 z "},"":{"ha":658,"x_min":15,"x_max":636,"o":"m 336 -21 q 111 38 192 -21 q 15 211 31 97 l 161 249 q 208 151 164 188 q 339 115 253 115 q 468 203 468 115 q 434 267 468 243 q 313 308 400 292 q 112 388 175 333 q 49 535 49 443 q 120 695 49 635 q 318 756 192 756 q 530 701 456 756 q 619 538 604 647 l 475 500 q 322 619 461 619 q 244 599 271 619 q 217 543 217 578 q 249 481 217 504 q 364 442 281 458 q 572 359 508 415 q 636 206 636 303 q 558 42 636 104 q 336 -21 479 -21 m 260 1074 l 393 1074 l 536 867 l 424 867 l 326 969 l 229 867 l 117 867 l 260 1074 z "},"":{"ha":658,"x_min":15,"x_max":636,"o":"m 336 -21 q 111 38 192 -21 q 15 211 31 97 l 161 249 q 208 151 164 188 q 339 115 253 115 q 468 203 468 115 q 434 267 468 243 q 313 308 400 292 q 112 388 175 333 q 49 535 49 443 q 120 695 49 635 q 318 756 192 756 q 530 701 456 756 q 619 538 604 647 l 475 500 q 322 619 461 619 q 244 599 271 619 q 217 543 217 578 q 249 481 217 504 q 364 442 281 458 q 572 359 508 415 q 636 206 636 303 q 558 42 636 104 q 336 -21 479 -21 m 233 -196 q 321 -162 328 -190 q 265 -144 282 -160 q 247 -108 247 -129 q 268 -65 247 -83 q 326 -47 289 -47 q 391 -66 368 -47 q 414 -118 414 -85 q 378 -201 414 -165 q 250 -243 342 -236 l 233 -196 z "},"":{"ha":519,"x_min":0,"x_max":515,"o":"m 350 -21 q 190 19 243 -21 q 122 122 138 58 q 108 289 107 186 l 108 376 l 1 375 l 1 474 l 110 472 l 110 607 l 0 604 l 0 736 l 108 736 l 108 965 l 279 965 l 279 736 l 496 736 l 496 604 l 278 607 l 278 472 l 436 474 l 436 375 l 279 376 l 279 271 q 302 153 279 189 q 383 117 325 117 q 485 133 432 117 l 515 13 q 350 -21 432 -21 z "},"":{"ha":519,"x_min":0,"x_max":531,"o":"m 350 -21 q 190 19 243 -21 q 122 122 138 58 q 108 289 107 186 l 110 607 l 0 604 l 0 736 l 108 736 l 108 965 l 279 965 l 279 736 l 496 736 l 496 604 l 278 607 l 279 271 q 302 153 279 189 q 383 117 325 117 q 485 133 432 117 l 515 13 q 350 -21 432 -21 m 394 1149 l 531 1149 l 513 835 l 413 835 l 394 1149 z "},"":{"ha":519,"x_min":0,"x_max":515,"o":"m 311 -240 q 192 -225 247 -240 l 208 -156 q 274 -164 238 -164 q 310 -157 299 -164 q 322 -133 322 -150 q 303 -106 322 -115 q 233 -87 285 -97 l 264 -12 q 162 44 196 3 q 117 144 128 86 q 108 289 107 201 l 110 607 l 0 604 l 0 736 l 108 736 l 108 965 l 279 965 l 279 736 l 496 736 l 496 604 l 278 607 l 279 271 q 302 153 279 189 q 383 117 325 117 q 485 133 432 117 l 515 13 q 354 -21 435 -21 l 342 -58 q 427 -86 400 -65 q 454 -146 454 -107 q 415 -217 454 -194 q 311 -240 376 -240 z "},"":{"ha":519,"x_min":0,"x_max":515,"o":"m 350 -21 q 190 19 243 -21 q 122 122 138 58 q 108 289 107 186 l 110 607 l 0 604 l 0 736 l 108 736 l 108 965 l 279 965 l 279 736 l 496 736 l 496 604 l 278 607 l 279 271 q 302 153 279 189 q 383 117 325 117 q 485 133 432 117 l 515 13 q 350 -21 432 -21 m 226 -196 q 314 -162 321 -190 q 258 -144 275 -160 q 240 -108 240 -129 q 261 -65 240 -83 q 319 -47 282 -47 q 384 -66 361 -47 q 407 -118 407 -85 q 371 -201 407 -165 q 243 -243 335 -236 l 226 -196 z "},"":{"ha":803,"x_min":75,"x_max":725,"o":"m 722 382 l 725 0 l 554 0 l 557 107 l 554 107 q 463 17 524 51 q 326 -18 401 -18 q 142 56 204 -18 q 79 286 79 129 l 79 382 l 75 736 l 247 736 l 244 382 l 244 304 q 283 172 244 217 q 389 128 321 128 q 473 153 435 128 q 534 224 511 178 q 557 332 557 271 l 557 382 l 554 736 l 725 736 l 722 382 m 349 867 l 415 1074 l 583 1074 l 454 867 l 349 867 z "},"":{"ha":803,"x_min":75,"x_max":725,"o":"m 722 382 l 725 0 l 554 0 l 557 107 l 554 107 q 463 17 524 51 q 326 -18 401 -18 q 142 56 204 -18 q 79 286 79 129 l 79 382 l 75 736 l 247 736 l 244 382 l 244 304 q 283 172 244 217 q 389 128 321 128 q 473 153 435 128 q 534 224 511 178 q 557 332 557 271 l 557 382 l 554 736 l 725 736 l 722 382 m 406 851 q 265 905 315 851 q 215 1061 215 958 l 318 1061 q 340 983 321 1008 q 406 958 358 958 q 473 983 454 958 q 494 1061 492 1008 l 597 1061 q 549 905 599 958 q 406 851 499 851 z "},"":{"ha":803,"x_min":75,"x_max":725,"o":"m 722 382 l 725 0 l 554 0 l 557 107 l 554 107 q 463 17 524 51 q 326 -18 401 -18 q 142 56 204 -18 q 79 286 79 129 l 79 382 l 75 736 l 247 736 l 244 382 l 244 304 q 283 172 244 217 q 389 128 321 128 q 473 153 435 128 q 534 224 511 178 q 557 332 557 271 l 557 382 l 554 736 l 725 736 l 722 382 m 340 1074 l 474 1074 l 617 867 l 504 867 l 407 969 l 310 867 l 197 867 l 340 1074 z "},"":{"ha":803,"x_min":75,"x_max":725,"o":"m 722 382 l 725 0 l 554 0 l 557 107 l 554 107 q 463 17 524 51 q 326 -18 401 -18 q 142 56 204 -18 q 79 286 79 129 l 79 382 l 75 736 l 247 736 l 244 382 l 244 304 q 283 172 244 217 q 389 128 321 128 q 473 153 435 128 q 534 224 511 178 q 557 332 557 271 l 557 382 l 554 736 l 725 736 l 722 382 m 279 863 q 214 885 238 863 q 190 947 190 907 q 214 1007 190 985 q 279 1029 238 1029 q 342 1007 319 1029 q 365 947 365 985 q 342 885 365 907 q 279 863 319 863 m 453 947 q 476 1007 453 985 q 540 1029 500 1029 q 604 1007 581 1029 q 628 947 628 985 q 604 885 628 908 q 540 863 581 863 q 476 885 500 863 q 453 947 453 908 z "},"":{"ha":803,"x_min":75,"x_max":725,"o":"m 722 382 l 725 0 l 554 0 l 557 107 l 554 107 q 463 17 524 51 q 326 -18 401 -18 q 142 56 204 -18 q 79 286 79 129 l 79 382 l 75 736 l 247 736 l 244 382 l 244 304 q 283 172 244 217 q 389 128 321 128 q 473 153 435 128 q 534 224 511 178 q 557 332 557 271 l 557 382 l 554 736 l 725 736 l 722 382 m 224 1074 l 392 1074 l 458 867 l 353 867 l 224 1074 z "},"":{"ha":803,"x_min":75,"x_max":725,"o":"m 722 382 l 725 0 l 554 0 l 557 107 l 554 107 q 463 17 524 51 q 326 -18 401 -18 q 142 56 204 -18 q 79 286 79 129 l 79 382 l 75 736 l 247 736 l 244 382 l 244 304 q 283 172 244 217 q 389 128 321 128 q 473 153 435 128 q 534 224 511 178 q 557 332 557 271 l 557 382 l 554 736 l 725 736 l 722 382 m 526 1074 l 675 1074 l 542 867 l 442 867 l 526 1074 m 317 1074 l 451 1074 l 357 867 l 247 867 l 317 1074 z "},"":{"ha":803,"x_min":75,"x_max":725,"o":"m 722 382 l 725 0 l 554 0 l 557 107 l 554 107 q 463 17 524 51 q 326 -18 401 -18 q 142 56 204 -18 q 79 286 79 129 l 79 382 l 75 736 l 247 736 l 244 382 l 244 304 q 283 172 244 217 q 389 128 321 128 q 473 153 435 128 q 534 224 511 178 q 557 332 557 271 l 557 382 l 554 736 l 725 736 l 722 382 m 207 986 l 608 986 l 608 876 l 207 876 l 207 986 z "},"":{"ha":803,"x_min":75,"x_max":768,"o":"m 722 382 l 725 0 l 722 0 q 658 -53 682 -24 q 633 -106 633 -82 q 686 -142 633 -142 q 744 -132 711 -142 l 768 -215 q 640 -244 707 -244 q 544 -219 579 -244 q 510 -144 510 -193 q 539 -68 510 -103 q 622 0 568 -33 l 554 0 l 557 107 l 554 107 q 463 17 524 51 q 326 -18 401 -18 q 142 56 204 -18 q 79 286 79 129 l 79 382 l 75 736 l 247 736 l 244 382 l 244 304 q 283 172 244 217 q 389 128 321 128 q 473 153 435 128 q 534 224 511 178 q 557 332 557 271 l 557 382 l 554 736 l 725 736 l 722 382 z "},"":{"ha":803,"x_min":75,"x_max":725,"o":"m 722 382 l 725 0 l 554 0 l 557 107 l 554 107 q 463 17 524 51 q 326 -18 401 -18 q 142 56 204 -18 q 79 286 79 129 l 79 382 l 75 736 l 247 736 l 244 382 l 244 304 q 283 172 244 217 q 389 128 321 128 q 473 153 435 128 q 534 224 511 178 q 557 332 557 271 l 557 382 l 554 736 l 725 736 l 722 382 m 407 860 q 314 892 349 860 q 279 978 279 924 q 314 1064 279 1032 q 407 1096 349 1096 q 499 1064 464 1096 q 533 978 533 1032 q 499 892 533 924 q 407 860 464 860 m 349 978 q 365 937 349 951 q 407 922 381 922 q 449 937 433 922 q 464 978 464 951 q 449 1020 464 1004 q 407 1036 433 1036 q 365 1020 381 1036 q 349 978 349 1004 z "},"":{"ha":803,"x_min":75,"x_max":725,"o":"m 722 382 l 725 0 l 554 0 l 557 107 l 554 107 q 463 17 524 51 q 326 -18 401 -18 q 142 56 204 -18 q 79 286 79 129 l 79 382 l 75 736 l 247 736 l 244 382 l 244 304 q 283 172 244 217 q 389 128 321 128 q 473 153 435 128 q 534 224 511 178 q 557 332 557 271 l 557 382 l 554 736 l 725 736 l 722 382 m 190 864 q 219 988 189 939 q 314 1038 249 1038 q 374 1027 349 1038 q 426 999 399 1017 q 457 981 444 986 q 482 975 469 975 q 515 991 507 975 q 524 1038 524 1007 l 622 1038 q 595 913 625 963 q 497 864 565 864 q 439 874 464 864 q 386 903 414 885 q 356 921 368 915 q 331 926 343 926 q 297 910 306 926 q 289 864 289 894 l 190 864 z "},"":{"ha":1043,"x_min":4,"x_max":1040,"o":"m 4 736 l 176 736 l 307 168 l 310 168 l 447 736 l 604 736 l 746 168 l 747 168 l 876 736 l 1040 736 l 846 0 l 651 0 l 525 513 l 522 513 l 393 0 l 197 0 l 4 736 m 464 867 l 531 1074 l 699 1074 l 569 867 l 464 867 z "},"":{"ha":1043,"x_min":4,"x_max":1040,"o":"m 4 736 l 176 736 l 307 168 l 310 168 l 447 736 l 604 736 l 746 168 l 747 168 l 876 736 l 1040 736 l 846 0 l 651 0 l 525 513 l 522 513 l 393 0 l 197 0 l 4 736 m 456 1074 l 589 1074 l 732 867 l 619 867 l 522 969 l 425 867 l 313 867 l 456 1074 z "},"":{"ha":1043,"x_min":4,"x_max":1040,"o":"m 4 736 l 176 736 l 307 168 l 310 168 l 447 736 l 604 736 l 746 168 l 747 168 l 876 736 l 1040 736 l 846 0 l 651 0 l 525 513 l 522 513 l 393 0 l 197 0 l 4 736 m 394 863 q 329 885 353 863 q 306 947 306 907 q 329 1007 306 985 q 394 1029 353 1029 q 458 1007 435 1029 q 481 947 481 985 q 458 885 481 907 q 394 863 435 863 m 568 947 q 592 1007 568 985 q 656 1029 615 1029 q 719 1007 696 1029 q 743 947 743 985 q 719 885 743 908 q 656 863 696 863 q 592 885 615 863 q 568 947 568 908 z "},"":{"ha":1043,"x_min":4,"x_max":1040,"o":"m 4 736 l 176 736 l 307 168 l 310 168 l 447 736 l 604 736 l 746 168 l 747 168 l 876 736 l 1040 736 l 846 0 l 651 0 l 525 513 l 522 513 l 393 0 l 197 0 l 4 736 m 339 1074 l 507 1074 l 574 867 l 468 867 l 339 1074 z "},"":{"ha":722,"x_min":4,"x_max":719,"o":"m 194 -237 q 128 -232 165 -237 q 61 -217 90 -226 l 90 -90 q 172 -100 136 -100 q 240 -78 214 -100 q 289 -6 267 -56 l 4 736 l 182 736 l 372 211 l 375 211 l 546 736 l 719 736 l 460 6 q 347 -183 413 -128 q 194 -237 282 -237 m 304 867 l 371 1074 l 539 1074 l 410 867 l 304 867 z "},"":{"ha":722,"x_min":4,"x_max":719,"o":"m 194 -237 q 128 -232 165 -237 q 61 -217 90 -226 l 90 -90 q 172 -100 136 -100 q 240 -78 214 -100 q 289 -6 267 -56 l 4 736 l 182 736 l 372 211 l 375 211 l 546 736 l 719 736 l 460 6 q 347 -183 413 -128 q 194 -237 282 -237 m 294 1074 l 428 1074 l 571 867 l 458 867 l 361 969 l 264 867 l 151 867 l 294 1074 z "},"":{"ha":722,"x_min":4,"x_max":719,"o":"m 194 -237 q 128 -232 165 -237 q 61 -217 90 -226 l 90 -90 q 172 -100 136 -100 q 240 -78 214 -100 q 289 -6 267 -56 l 4 736 l 182 736 l 372 211 l 375 211 l 546 736 l 719 736 l 460 6 q 347 -183 413 -128 q 194 -237 282 -237 m 235 863 q 169 885 193 863 q 146 947 146 907 q 169 1007 146 985 q 235 1029 193 1029 q 298 1007 275 1029 q 321 947 321 985 q 298 885 321 907 q 235 863 275 863 m 408 947 q 432 1007 408 985 q 496 1029 456 1029 q 560 1007 536 1029 q 583 947 583 985 q 560 885 583 908 q 496 863 536 863 q 432 885 456 863 q 408 947 408 908 z "},"":{"ha":722,"x_min":4,"x_max":719,"o":"m 194 -237 q 128 -232 165 -237 q 61 -217 90 -226 l 90 -90 q 172 -100 136 -100 q 240 -78 214 -100 q 289 -6 267 -56 l 4 736 l 182 736 l 372 211 l 375 211 l 546 736 l 719 736 l 460 6 q 347 -183 413 -128 q 194 -237 282 -237 m 179 1074 l 347 1074 l 414 867 l 308 867 l 179 1074 z "},"":{"ha":664,"x_min":33,"x_max":631,"o":"m 33 126 l 415 597 l 38 597 l 38 736 l 622 736 l 622 608 l 243 139 l 631 139 l 631 0 l 33 0 l 33 126 m 274 867 l 340 1074 l 508 1074 l 379 867 l 274 867 z "},"":{"ha":664,"x_min":33,"x_max":631,"o":"m 33 126 l 415 597 l 38 597 l 38 736 l 622 736 l 622 608 l 243 139 l 631 139 l 631 0 l 33 0 l 33 126 m 235 1063 l 332 960 l 429 1063 l 542 1063 l 399 856 l 265 856 l 122 1063 l 235 1063 z "},"":{"ha":664,"x_min":33,"x_max":631,"o":"m 33 126 l 415 597 l 38 597 l 38 736 l 622 736 l 622 608 l 243 139 l 631 139 l 631 0 l 33 0 l 33 126 m 333 863 q 264 886 289 863 q 239 951 239 910 q 264 1015 239 992 q 333 1039 289 1039 q 401 1015 376 1039 q 426 951 426 992 q 401 886 426 910 q 333 863 376 863 z "},"":{"ha":588,"x_min":78,"x_max":513,"o":"m 81 724 l 78 1089 l 219 1089 l 218 897 l 219 897 q 277 949 238 929 q 358 968 317 968 q 473 926 435 968 q 511 792 511 883 l 511 724 l 513 511 l 371 511 l 372 724 l 372 767 q 354 826 372 806 q 301 847 336 847 q 241 821 264 847 q 218 751 218 794 l 218 724 l 219 511 l 78 511 l 81 724 z "},"":{"ha":268,"x_min":-26,"x_max":215,"o":"m 58 368 q -26 385 18 368 l -8 486 q 28 479 13 479 q 64 538 64 479 l 64 617 l 63 957 q 132 950 93 950 q 204 957 176 950 l 203 615 l 203 543 q 168 408 203 449 q 58 368 133 368 m 51 1053 q 71 1100 51 1085 q 133 1115 90 1115 q 196 1100 176 1115 q 215 1053 215 1085 q 196 1005 215 1019 q 133 990 176 990 q 71 1005 90 990 q 51 1053 51 1019 z "},"":{"ha":297,"x_min":78,"x_max":219,"o":"m 81 804 l 78 1089 l 219 1089 l 218 804 l 219 511 l 78 511 l 81 804 z "},"":{"ha":553,"x_min":63,"x_max":493,"o":"m 64 724 l 63 957 l 204 957 l 203 897 l 204 897 q 260 950 224 931 q 342 969 297 969 q 453 926 415 969 q 490 792 490 883 l 490 724 l 493 511 l 350 511 l 353 724 l 353 767 q 334 826 353 806 q 283 847 315 847 q 225 822 247 847 q 203 751 203 796 l 203 724 l 204 511 l 63 511 l 64 724 z "},"":{"ha":472,"x_min":26,"x_max":439,"o":"m 238 499 q 26 638 51 499 l 144 669 q 239 597 156 597 q 283 608 267 597 q 299 639 299 618 q 279 671 299 658 q 214 689 260 683 q 43 829 43 713 q 94 931 43 894 q 229 968 146 968 q 369 935 319 968 q 432 838 418 903 l 314 806 q 236 869 301 869 q 199 860 213 869 q 185 833 185 850 q 204 802 185 814 q 281 782 224 790 q 401 735 363 768 q 439 642 439 703 q 387 537 439 575 q 238 499 335 499 z "},"":{"ha":671,"x_min":4,"x_max":668,"o":"m 4 957 l 147 957 l 207 649 l 210 649 l 278 957 l 401 957 l 476 649 l 478 649 l 533 957 l 668 957 l 558 511 l 403 511 l 339 788 l 338 788 l 272 511 l 115 511 l 4 957 z "},"":{"ha":482,"x_min":4,"x_max":479,"o":"m 140 739 l 10 957 l 169 957 l 242 808 l 243 808 l 318 957 l 471 957 l 343 739 l 479 511 l 321 511 l 242 667 l 240 667 l 158 511 l 4 511 l 140 739 z "},"":{"ha":471,"x_min":4,"x_max":468,"o":"m 135 368 q 36 385 81 368 l 60 485 q 85 481 71 482 q 110 479 99 479 q 146 486 132 479 q 171 510 160 493 l 4 957 l 151 957 l 242 674 l 243 674 l 325 957 l 468 957 l 339 568 q 257 415 303 463 q 135 368 211 368 z "},"":{"ha":528,"x_min":33,"x_max":517,"o":"m 178 499 q 73 533 113 499 q 33 622 33 568 q 99 738 33 707 q 288 768 165 768 l 313 768 l 313 782 q 295 844 313 824 q 240 864 278 864 q 183 842 201 864 q 164 785 165 819 l 49 811 q 109 926 56 885 q 251 968 163 968 q 399 920 351 968 q 447 783 447 872 l 447 638 q 452 609 447 618 q 469 600 457 600 q 499 607 482 600 l 517 517 q 432 501 483 501 q 365 518 389 501 q 338 578 342 535 l 338 590 l 336 590 q 276 523 318 547 q 178 499 235 499 m 39 422 l 503 422 l 503 314 l 39 314 l 39 422 m 167 642 q 181 608 167 621 q 219 596 196 596 q 284 624 256 596 q 313 694 313 653 l 313 700 l 293 700 q 197 688 226 700 q 167 642 167 675 z "},"":{"ha":532,"x_min":38,"x_max":503,"o":"m 267 499 q 101 563 164 499 q 38 735 38 626 q 101 905 38 842 q 267 968 164 968 q 432 905 369 968 q 494 735 494 842 q 432 563 494 626 q 267 499 369 499 m 39 422 l 503 422 l 503 314 l 39 314 l 39 422 m 181 735 q 203 645 181 676 q 267 614 226 614 q 330 645 307 614 q 353 735 353 676 q 330 822 353 790 q 267 853 307 853 q 203 822 226 853 q 181 735 181 792 z "},"":{"ha":907,"x_min":6,"x_max":901,"o":"m 182 482 l 349 963 l 553 963 l 722 482 l 901 0 l 703 0 l 628 226 l 449 228 l 272 226 l 199 0 l 6 0 l 182 482 m 449 367 l 588 368 l 450 769 l 447 769 l 313 368 l 449 367 z "},"":{"ha":846,"x_min":85,"x_max":818,"o":"m 89 482 l 85 963 l 731 963 l 731 818 l 267 818 l 264 588 l 468 588 q 733 509 647 588 q 818 296 818 431 q 724 75 818 150 q 471 0 631 0 l 85 0 l 89 482 m 267 138 l 456 138 q 589 176 540 138 q 638 293 638 215 q 593 409 638 369 q 461 449 549 449 l 264 449 l 267 138 z "},"":{"ha":874,"x_min":85,"x_max":846,"o":"m 89 482 l 85 963 l 481 963 q 725 905 639 963 q 811 718 811 847 q 767 574 811 629 q 635 499 722 518 l 635 494 q 792 426 738 482 q 846 269 846 369 q 747 67 846 135 q 478 0 647 0 l 85 0 l 89 482 m 267 138 l 461 138 q 665 286 665 138 q 465 428 665 428 l 264 428 l 267 138 m 465 561 q 596 595 556 561 q 636 693 636 629 q 592 796 636 764 q 458 828 547 828 l 267 828 l 264 561 l 465 561 z "},"":{"ha":704,"x_min":85,"x_max":696,"o":"m 89 456 l 85 963 l 696 963 l 696 807 l 269 807 l 267 456 l 271 0 l 85 0 l 89 456 z "},"":{"ha":1015,"x_min":18,"x_max":986,"o":"m 18 157 l 72 157 q 120 175 101 157 q 150 247 139 193 q 188 963 182 431 l 883 963 l 879 482 l 882 157 l 986 157 l 986 -178 l 808 -178 l 808 0 l 196 0 l 196 -178 l 18 -178 l 18 157 m 701 157 l 704 482 l 701 807 l 533 813 l 365 807 q 333 271 347 385 q 317 201 328 229 q 288 160 307 172 l 288 157 l 701 157 z "},"":{"ha":806,"x_min":85,"x_max":764,"o":"m 89 482 l 85 963 l 751 963 l 751 811 l 268 811 l 267 563 l 718 563 l 718 421 l 267 421 l 268 151 l 764 151 l 764 0 l 85 0 l 89 482 z "},"":{"ha":806,"x_min":85,"x_max":764,"o":"m 89 482 l 85 963 l 751 963 l 751 811 l 268 811 l 267 563 l 718 563 l 718 421 l 267 421 l 268 151 l 764 151 l 764 0 l 85 0 l 89 482 m 321 1089 q 256 1111 279 1089 q 232 1174 232 1133 q 256 1233 232 1211 q 321 1256 279 1256 q 384 1233 361 1256 q 407 1174 407 1211 q 384 1111 407 1133 q 321 1089 361 1089 m 494 1174 q 518 1233 494 1211 q 582 1256 542 1256 q 646 1233 622 1256 q 669 1174 669 1211 q 646 1112 669 1135 q 582 1089 622 1089 q 518 1112 542 1089 q 494 1174 494 1135 z "},"":{"ha":1269,"x_min":6,"x_max":1264,"o":"m 778 415 l 724 415 l 726 0 l 542 0 l 546 415 l 492 415 l 210 0 l 6 0 l 347 500 l 31 963 l 240 963 l 492 569 l 544 569 l 542 963 l 726 963 l 724 569 l 778 569 l 1029 963 l 1239 963 l 922 500 l 1264 0 l 1060 0 l 778 415 z "},"":{"ha":815,"x_min":35,"x_max":767,"o":"m 68 717 q 113 843 76 782 q 224 944 150 904 q 411 983 299 983 q 660 917 572 983 q 749 729 749 851 q 702 581 749 643 q 576 500 656 519 q 717 422 667 479 q 767 269 767 364 q 675 56 767 132 q 411 -21 583 -21 q 156 56 253 -21 q 35 264 60 132 l 193 306 q 267 172 214 218 q 403 126 319 126 q 540 165 492 126 q 589 276 589 204 q 372 436 589 436 l 268 436 l 268 558 l 372 558 q 521 592 469 558 q 572 706 572 625 q 528 803 572 769 q 407 836 483 836 q 279 788 322 836 q 226 674 236 739 l 68 717 z "},"":{"ha":947,"x_min":85,"x_max":863,"o":"m 685 0 l 688 417 l 688 701 l 683 701 l 501 383 l 290 0 l 85 0 l 89 482 l 85 963 l 263 963 l 260 547 l 260 263 l 264 263 l 425 546 l 657 963 l 863 963 l 858 481 l 863 0 l 685 0 z "},"":{"ha":947,"x_min":85,"x_max":863,"o":"m 685 0 l 688 417 l 688 701 l 683 701 l 501 383 l 290 0 l 85 0 l 89 482 l 85 963 l 263 963 l 260 547 l 260 263 l 264 263 l 425 546 l 657 963 l 863 963 l 858 481 l 863 0 l 685 0 m 486 1028 q 346 1075 396 1028 q 296 1213 296 1122 l 399 1213 q 420 1143 401 1165 q 486 1121 439 1121 q 553 1143 535 1121 q 575 1213 572 1165 l 678 1213 q 629 1075 679 1122 q 486 1028 579 1028 z "},"":{"ha":885,"x_min":85,"x_max":879,"o":"m 386 415 l 267 415 l 271 0 l 85 0 l 89 482 l 85 963 l 271 963 l 268 569 l 386 569 l 639 963 l 856 963 l 531 499 l 879 0 l 676 0 l 386 415 z "},"":{"ha":994,"x_min":18,"x_max":910,"o":"m 133 -21 q 18 -4 79 -21 l 49 140 q 99 135 78 135 q 144 152 126 135 q 172 222 163 169 q 211 963 206 406 l 910 963 l 906 482 l 910 0 l 725 0 l 728 482 l 725 807 l 557 813 l 392 807 q 351 183 382 367 q 271 19 331 60 q 133 -21 211 -21 z "},"":{"ha":1150,"x_min":85,"x_max":1065,"o":"m 89 469 l 85 963 l 324 963 l 471 514 l 574 210 l 578 210 l 825 963 l 1064 963 l 1063 488 l 1065 0 l 896 0 l 901 422 l 901 722 l 897 722 l 788 399 l 660 0 l 492 0 l 363 397 l 253 722 l 249 722 l 249 422 l 254 0 l 85 0 l 89 469 z "},"":{"ha":960,"x_min":85,"x_max":875,"o":"m 89 482 l 85 963 l 271 963 l 267 565 l 479 563 l 692 565 l 689 963 l 875 963 l 869 482 l 875 0 l 689 0 l 692 410 l 479 413 l 267 410 l 271 0 l 85 0 l 89 482 z "},"":{"ha":976,"x_min":36,"x_max":940,"o":"m 488 -21 q 247 40 349 -21 q 90 213 144 100 q 36 482 36 326 q 91 751 36 638 q 247 924 146 864 q 488 983 349 983 q 730 924 628 983 q 886 751 832 864 q 940 482 940 639 q 885 213 940 326 q 728 40 831 100 q 488 -21 626 -21 m 224 482 q 293 226 224 317 q 488 135 363 135 q 683 226 611 135 q 754 482 754 318 q 684 739 754 649 q 488 829 614 829 q 294 738 364 829 q 224 482 224 647 z "},"":{"ha":960,"x_min":85,"x_max":875,"o":"m 693 482 l 690 807 l 479 813 l 269 807 l 267 482 l 271 0 l 85 0 l 89 482 l 85 963 l 875 963 l 869 482 l 875 0 l 689 0 l 693 482 z "},"":{"ha":857,"x_min":85,"x_max":828,"o":"m 89 482 l 85 963 l 444 963 q 731 884 633 963 q 828 640 828 806 q 733 390 828 469 q 444 310 638 310 l 268 310 l 271 0 l 85 0 l 89 482 m 456 457 q 601 501 554 457 q 649 640 649 546 q 602 770 649 729 q 456 811 556 811 l 268 811 l 268 457 l 456 457 z "},"":{"ha":900,"x_min":36,"x_max":876,"o":"m 474 -21 q 240 40 339 -21 q 89 213 142 100 q 36 481 36 326 q 89 749 36 636 q 241 923 142 863 q 475 983 340 983 q 747 894 644 983 q 872 656 850 806 l 707 611 q 631 771 692 713 q 478 829 571 829 q 291 737 358 829 q 224 481 224 644 q 291 226 224 318 q 476 135 358 135 q 636 196 576 135 q 711 374 696 257 l 876 328 q 748 73 854 167 q 474 -21 642 -21 z "},"":{"ha":725,"x_min":8,"x_max":715,"o":"m 274 451 l 271 811 l 8 811 l 8 963 l 715 963 l 715 811 l 454 811 l 450 451 l 456 0 l 269 0 l 274 451 z "},"":{"ha":824,"x_min":6,"x_max":829,"o":"m 175 -21 q 78 -11 128 -21 l 94 147 q 158 142 132 142 q 238 165 203 142 q 313 260 272 188 l 6 963 l 200 963 l 407 463 l 411 463 l 631 963 l 829 963 l 493 242 q 391 71 440 128 q 293 -3 342 14 q 175 -21 244 -21 z "},"":{"ha":1108,"x_min":36,"x_max":1072,"o":"m 467 94 q 151 203 265 101 q 36 482 36 304 q 151 761 36 660 q 467 869 265 863 l 467 983 l 644 983 l 643 869 q 958 761 844 863 q 1072 482 1072 660 q 958 203 1072 304 q 643 94 844 101 l 644 -21 l 467 -21 l 467 94 m 215 482 q 281 309 215 371 q 468 240 347 247 l 469 482 l 468 722 q 281 653 347 715 q 215 482 215 592 m 642 240 q 828 309 763 247 q 894 482 894 371 q 828 653 894 592 q 642 722 763 715 l 639 482 l 642 240 z "},"":{"ha":885,"x_min":6,"x_max":881,"o":"m 318 503 l 26 963 l 232 963 l 443 629 l 446 629 l 654 963 l 856 963 l 567 504 l 881 0 l 675 0 l 443 374 l 440 374 l 206 0 l 6 0 l 318 503 z "},"":{"ha":878,"x_min":47,"x_max":793,"o":"m 396 344 q 191 381 267 344 q 81 494 115 417 q 47 699 47 571 l 47 963 l 229 963 l 229 700 q 276 545 229 590 q 433 500 324 500 q 610 519 535 500 l 607 963 l 793 963 l 788 482 l 793 0 l 607 0 l 610 374 q 396 344 496 344 z "},"":{"ha":994,"x_min":85,"x_max":965,"o":"m 89 481 l 85 963 l 271 963 l 267 481 l 269 156 l 479 151 l 676 157 l 679 481 l 675 963 l 861 963 l 856 481 l 858 157 l 965 157 l 965 -178 l 788 -178 l 788 0 l 85 0 l 89 481 z "},"":{"ha":1358,"x_min":85,"x_max":1274,"o":"m 89 481 l 85 963 l 269 963 l 264 481 l 267 156 l 429 151 l 589 156 l 592 481 l 589 963 l 771 963 l 765 481 l 768 156 l 929 151 l 1090 156 l 1093 481 l 1090 963 l 1274 963 l 1269 481 l 1274 0 l 85 0 l 89 481 z "},"":{"ha":1393,"x_min":85,"x_max":1364,"o":"m 89 481 l 85 963 l 269 963 l 264 481 l 267 156 l 428 151 l 582 156 l 585 481 l 582 963 l 764 963 l 758 481 l 761 156 l 922 151 l 1076 156 l 1079 481 l 1076 963 l 1260 963 l 1256 481 l 1258 157 l 1364 157 l 1364 -178 l 1186 -178 l 1186 0 l 85 0 l 89 481 z "},"":{"ha":838,"x_min":85,"x_max":818,"o":"m 89 521 l 85 963 l 267 963 l 264 636 l 439 636 q 724 552 631 636 q 818 321 818 468 q 717 81 818 161 q 456 0 617 0 l 85 0 l 89 521 m 267 144 l 439 144 q 583 187 528 144 q 638 319 638 229 q 435 493 638 493 l 264 493 l 267 144 z "},"":{"ha":1199,"x_min":85,"x_max":1113,"o":"m 89 521 l 85 963 l 267 963 l 264 636 l 414 636 q 699 552 606 636 q 793 321 793 468 q 693 81 793 161 q 431 0 593 0 l 85 0 l 89 521 m 267 144 l 415 144 q 558 187 504 144 q 613 319 613 229 q 411 493 613 493 l 264 493 l 267 144 m 931 482 l 928 963 l 1113 963 l 1108 482 l 1113 0 l 928 0 l 931 482 z "},"":{"ha":963,"x_min":8,"x_max":942,"o":"m 232 507 l 231 803 l 8 803 l 8 963 l 410 963 l 407 636 l 564 636 q 848 552 754 636 q 942 321 942 468 q 842 81 942 161 q 579 0 742 0 l 229 0 l 232 507 m 410 144 l 564 144 q 708 187 653 144 q 763 319 763 229 q 560 493 763 493 l 407 493 l 410 144 z "},"":{"ha":900,"x_min":22,"x_max":863,"o":"m 426 -21 q 153 71 260 -21 q 22 314 46 163 l 188 360 q 265 191 204 250 q 428 132 325 132 q 602 204 536 132 q 682 413 668 276 l 503 415 l 301 413 l 301 563 l 503 560 l 681 563 q 601 761 665 692 q 435 831 536 831 q 275 771 336 831 q 199 604 214 711 l 33 649 q 158 893 56 803 q 429 983 260 983 q 660 923 563 983 q 810 749 758 863 q 863 481 863 636 q 810 213 863 326 q 659 40 757 100 q 426 -21 561 -21 z "},"":{"ha":1324,"x_min":85,"x_max":1286,"o":"m 844 -21 q 545 93 658 -21 q 414 410 432 207 l 267 410 l 271 0 l 85 0 l 89 482 l 85 963 l 271 963 l 268 565 l 415 565 q 549 873 436 763 q 844 983 663 983 q 1080 924 981 983 q 1233 751 1179 864 q 1286 482 1286 639 q 1232 214 1286 328 q 1078 40 1178 100 q 844 -21 978 -21 m 592 482 q 660 226 592 318 q 844 135 728 135 q 1031 226 961 135 q 1100 482 1100 318 q 1031 739 1100 649 q 844 829 963 829 q 660 738 729 829 q 592 482 592 646 z "},"":{"ha":893,"x_min":39,"x_max":808,"o":"m 622 0 l 625 340 l 460 340 q 332 301 392 340 q 260 169 272 261 q 231 0 243 47 l 39 0 q 78 203 60 71 q 118 328 88 282 q 213 404 149 375 q 103 498 140 435 q 65 656 65 561 q 439 963 65 963 l 808 963 l 804 482 l 808 0 l 622 0 m 244 647 q 440 482 244 482 l 625 482 l 625 811 l 438 811 q 291 772 338 811 q 244 647 244 732 z "},"":{"ha":786,"x_min":40,"x_max":794,"o":"m 278 -21 q 103 36 165 -21 q 40 188 40 93 q 142 371 40 317 q 460 425 243 425 l 514 425 l 514 446 q 478 578 514 533 q 363 624 443 624 q 239 572 278 624 q 201 454 200 521 l 57 488 q 99 626 61 565 q 207 721 138 686 q 369 756 276 756 q 600 681 525 756 q 675 463 675 606 l 675 174 q 686 122 675 138 q 728 107 697 107 q 772 117 751 107 l 794 4 q 683 -15 742 -15 q 584 17 619 -15 q 544 114 549 49 q 547 147 544 131 l 544 147 q 442 24 510 68 q 278 -21 374 -21 m 206 201 q 235 133 206 158 q 318 107 265 107 q 413 133 367 107 q 486 207 458 160 q 514 315 514 254 l 514 326 l 481 326 q 269 299 333 326 q 206 201 206 272 z "},"":{"ha":792,"x_min":42,"x_max":757,"o":"m 411 -21 q 135 81 229 -21 q 42 396 42 182 q 87 717 42 601 q 217 885 132 833 q 438 951 301 936 l 507 960 q 692 983 613 969 l 692 853 q 630 843 685 851 q 514 829 575 835 l 450 822 q 292 759 350 814 q 218 579 235 704 q 312 654 256 628 q 440 681 368 681 q 602 640 531 681 q 715 522 674 600 q 757 338 757 444 q 715 149 757 231 q 596 24 674 68 q 411 -21 518 -21 m 214 335 q 263 169 214 225 q 408 114 313 114 q 542 169 493 114 q 590 335 590 224 q 541 499 590 442 q 404 556 492 556 q 264 494 314 556 q 214 335 214 432 z "},"":{"ha":746,"x_min":78,"x_max":711,"o":"m 82 368 l 78 736 l 428 736 q 619 692 554 736 q 685 544 685 649 q 649 440 685 481 q 544 382 613 399 l 544 378 q 711 203 711 356 q 635 50 711 100 q 425 0 558 0 l 78 0 l 82 368 m 244 122 l 408 122 q 515 147 482 122 q 547 221 547 171 q 410 321 547 321 l 243 321 l 244 122 m 392 435 q 495 458 464 435 q 526 529 526 482 q 498 597 526 575 q 407 619 469 619 l 244 619 l 243 435 l 392 435 z "},"":{"ha":551,"x_min":78,"x_max":551,"o":"m 82 353 l 78 736 l 551 736 l 551 603 l 247 603 l 247 340 l 250 0 l 78 0 l 82 353 z "},"":{"ha":865,"x_min":22,"x_max":842,"o":"m 22 139 l 75 139 q 124 170 110 139 q 142 276 138 201 q 158 736 156 468 l 739 736 l 735 392 l 738 139 l 842 139 l 842 -178 l 683 -178 l 683 0 l 181 0 l 181 -178 l 22 -178 l 22 139 m 569 139 l 571 368 l 569 594 l 446 597 l 317 594 q 301 264 313 422 q 287 190 297 219 q 257 142 276 161 l 257 139 l 569 139 z "},"":{"ha":750,"x_min":35,"x_max":715,"o":"m 393 -21 q 203 26 285 -21 q 78 162 122 74 q 35 367 35 250 q 128 650 35 546 q 383 754 221 754 q 637 635 558 754 q 715 328 715 517 l 208 326 q 267 170 217 225 q 396 115 318 115 q 505 158 461 115 q 563 275 549 201 l 711 236 q 610 54 692 129 q 393 -21 529 -21 m 549 440 q 503 571 546 522 q 386 619 461 619 q 271 575 317 619 q 213 440 225 531 l 549 440 z "},"":{"ha":750,"x_min":35,"x_max":715,"o":"m 393 -21 q 203 26 285 -21 q 78 162 122 74 q 35 367 35 250 q 128 650 35 546 q 383 754 221 754 q 637 635 558 754 q 715 328 715 517 l 208 326 q 267 170 217 225 q 396 115 318 115 q 505 158 461 115 q 563 275 549 201 l 711 236 q 610 54 692 129 q 393 -21 529 -21 m 549 440 q 503 571 546 522 q 386 619 461 619 q 271 575 317 619 q 213 440 225 531 l 549 440 m 258 863 q 193 885 217 863 q 169 947 169 907 q 193 1007 169 985 q 258 1029 217 1029 q 322 1007 299 1029 q 344 947 344 985 q 322 885 344 907 q 258 863 299 863 m 432 947 q 456 1007 432 985 q 519 1029 479 1029 q 583 1007 560 1029 q 607 947 607 985 q 583 885 607 908 q 519 863 560 863 q 456 885 479 863 q 432 947 432 908 z "},"":{"ha":1074,"x_min":4,"x_max":1071,"o":"m 671 301 l 618 301 l 621 0 l 453 0 l 456 301 l 403 301 l 200 0 l 4 0 l 279 378 l 42 736 l 233 736 l 404 442 l 456 442 l 453 736 l 621 736 l 618 442 l 669 442 l 840 736 l 1033 736 l 794 378 l 1071 0 l 875 0 l 671 301 z "},"":{"ha":681,"x_min":18,"x_max":646,"o":"m 346 -21 q 124 38 207 -21 q 18 200 42 96 l 167 240 q 336 113 199 113 q 443 140 406 113 q 481 215 481 167 q 434 298 481 275 q 314 321 388 321 l 229 321 l 229 436 l 314 436 q 429 457 390 436 q 468 532 468 478 q 434 600 468 576 q 340 624 400 624 q 235 590 269 624 q 192 506 201 556 l 40 549 q 128 694 56 633 q 342 756 200 756 q 553 703 479 756 q 628 553 628 651 q 591 444 628 490 q 489 381 554 399 q 606 318 567 364 q 646 204 646 272 q 568 40 646 100 q 346 -21 490 -21 z "},"":{"ha":807,"x_min":78,"x_max":729,"o":"m 82 368 l 78 736 l 244 736 l 243 439 l 243 238 l 246 238 l 558 736 l 729 736 l 726 368 l 729 0 l 564 0 l 565 297 l 565 499 l 563 499 l 421 274 l 250 0 l 78 0 l 82 368 z "},"":{"ha":807,"x_min":78,"x_max":729,"o":"m 82 368 l 78 736 l 244 736 l 243 439 l 243 238 l 246 238 l 558 736 l 729 736 l 726 368 l 729 0 l 564 0 l 565 297 l 565 499 l 563 499 l 421 274 l 250 0 l 78 0 l 82 368 z "},"":{"ha":751,"x_min":78,"x_max":747,"o":"m 82 374 l 78 736 l 250 736 l 247 446 l 336 446 l 514 736 l 710 736 l 465 381 l 747 0 l 549 0 l 338 303 l 247 303 l 250 0 l 78 0 l 82 374 z "},"":{"ha":842,"x_min":13,"x_max":763,"o":"m 122 -21 q 13 -6 67 -21 l 38 124 q 96 117 67 117 q 138 142 125 117 q 156 231 151 167 q 175 736 172 447 l 763 736 l 758 368 l 763 0 l 590 0 l 594 350 l 593 594 l 458 597 l 336 594 q 318 228 331 428 q 265 38 310 97 q 122 -21 221 -21 z "},"":{"ha":976,"x_min":78,"x_max":897,"o":"m 82 356 l 78 736 l 285 736 l 404 424 l 486 203 l 489 203 l 569 424 l 689 736 l 897 736 l 894 379 l 897 0 l 740 0 l 744 307 l 744 531 l 742 531 l 654 289 l 544 0 l 429 0 l 319 289 l 233 531 l 229 531 l 231 307 l 233 0 l 78 0 l 82 356 z "},"":{"ha":819,"x_min":78,"x_max":742,"o":"m 571 303 l 410 306 l 247 303 l 250 0 l 78 0 l 82 368 l 78 736 l 250 736 l 247 443 l 410 442 l 571 443 l 568 736 l 742 736 l 736 368 l 742 0 l 568 0 l 571 303 z "},"":{"ha":788,"x_min":35,"x_max":753,"o":"m 392 -21 q 203 26 285 -21 q 78 162 122 74 q 35 368 35 250 q 78 574 35 486 q 203 708 122 661 q 392 756 283 756 q 583 708 501 756 q 708 574 664 661 q 753 368 753 486 q 708 162 753 250 q 582 26 664 74 q 392 -21 500 -21 m 207 368 q 256 185 207 250 q 393 119 306 119 q 531 185 481 119 q 581 368 581 250 q 531 549 581 485 q 393 614 481 614 q 256 549 306 614 q 207 368 207 485 z "},"":{"ha":814,"x_min":78,"x_max":736,"o":"m 567 368 l 565 597 l 410 600 l 249 597 l 246 368 l 250 0 l 78 0 l 82 368 l 78 736 l 736 736 l 732 368 l 736 0 l 564 0 l 567 368 z "},"":{"ha":808,"x_min":78,"x_max":774,"o":"m 82 304 l 78 736 l 253 736 l 251 633 l 254 633 q 341 719 282 683 q 479 756 400 756 q 697 657 619 756 q 774 369 774 558 q 697 80 774 181 q 479 -21 619 -21 q 341 17 400 -21 q 253 106 282 54 l 250 106 l 253 -222 l 78 -222 l 82 304 m 250 367 q 302 178 250 235 q 426 121 354 121 q 556 185 511 121 q 601 369 601 250 q 556 551 601 489 q 426 614 511 614 q 300 551 350 614 q 250 367 250 489 z "},"":{"ha":732,"x_min":35,"x_max":714,"o":"m 397 -21 q 206 26 288 -21 q 79 161 124 74 q 35 367 35 249 q 78 573 35 485 q 203 708 122 661 q 393 756 285 756 q 613 683 529 756 q 714 497 696 611 l 561 457 q 506 575 549 533 q 396 617 463 617 q 259 552 310 617 q 208 367 208 488 q 259 183 208 249 q 396 118 310 118 q 505 160 461 118 q 561 279 549 201 l 714 239 q 614 52 696 125 q 397 -21 532 -21 z "},"":{"ha":603,"x_min":0,"x_max":603,"o":"m 221 350 l 219 604 l 0 604 l 0 736 l 603 736 l 603 604 l 389 604 l 388 350 l 390 0 l 219 0 l 221 350 z "},"":{"ha":722,"x_min":4,"x_max":719,"o":"m 194 -237 q 128 -232 165 -237 q 61 -217 90 -226 l 90 -90 q 172 -100 136 -100 q 240 -78 214 -100 q 289 -6 267 -56 l 4 736 l 182 736 l 372 211 l 375 211 l 546 736 l 719 736 l 460 6 q 347 -183 413 -128 q 194 -237 282 -237 z "},"":{"ha":1040,"x_min":35,"x_max":1006,"o":"m 439 -17 q 228 33 319 -14 q 86 167 138 81 q 35 368 35 253 q 86 569 35 483 q 228 701 138 654 q 439 751 319 749 l 438 964 l 603 964 l 601 751 q 813 701 721 749 q 955 569 904 654 q 1006 368 1006 483 q 955 167 1006 253 q 813 33 904 81 q 601 -17 721 -14 l 603 -222 l 438 -222 l 439 -17 m 204 368 q 269 187 204 253 q 440 117 335 121 l 442 381 l 440 618 q 269 548 335 614 q 204 368 204 482 m 601 117 q 772 187 707 121 q 838 368 838 253 q 772 548 838 482 q 601 618 707 614 l 600 381 l 601 117 z "},"":{"ha":728,"x_min":4,"x_max":725,"o":"m 251 379 l 18 736 l 213 736 l 367 479 l 369 479 l 522 736 l 711 736 l 479 379 l 725 0 l 532 0 l 364 275 l 361 275 l 193 0 l 4 0 l 251 379 z "},"":{"ha":740,"x_min":46,"x_max":663,"o":"m 306 232 q 108 301 169 232 q 46 517 46 371 l 46 736 l 214 736 l 214 535 q 226 446 214 479 q 270 395 238 413 q 364 378 303 378 q 494 390 424 378 l 490 736 l 663 736 l 660 369 l 663 0 l 490 0 l 493 257 q 402 240 454 247 q 306 232 350 232 z "},"":{"ha":847,"x_min":78,"x_max":824,"o":"m 82 368 l 78 736 l 250 736 l 246 386 l 249 139 l 407 138 l 550 139 l 551 386 l 549 736 l 721 736 l 717 386 l 719 139 l 824 139 l 824 -178 l 665 -178 l 665 0 l 78 0 l 82 368 z "},"":{"ha":1175,"x_min":78,"x_max":1097,"o":"m 82 368 l 78 736 l 250 736 l 246 382 l 249 139 l 378 138 l 507 139 l 508 382 l 504 736 l 669 736 l 665 382 l 668 139 l 797 138 l 926 139 l 928 382 l 924 736 l 1097 736 l 1092 368 l 1097 0 l 78 0 l 82 368 z "},"":{"ha":1210,"x_min":78,"x_max":1186,"o":"m 1028 0 l 78 0 l 82 368 l 78 736 l 250 736 l 246 382 l 249 139 l 378 138 l 500 139 l 501 382 l 497 736 l 663 736 l 658 382 l 661 139 l 790 138 l 913 139 l 914 382 l 910 736 l 1083 736 l 1078 368 l 1081 139 l 1186 139 l 1186 -178 l 1028 -178 l 1028 0 z "},"":{"ha":708,"x_min":78,"x_max":688,"o":"m 82 368 l 78 736 l 244 736 l 243 479 l 399 479 q 688 240 688 479 q 399 0 688 0 l 78 0 l 82 368 m 244 122 l 388 122 q 522 240 522 122 q 386 360 522 360 l 243 360 l 244 122 z "},"":{"ha":1064,"x_min":78,"x_max":986,"o":"m 82 368 l 78 736 l 244 736 l 243 479 l 385 479 q 674 240 674 479 q 385 0 674 0 l 78 0 l 82 368 m 244 122 l 374 122 q 508 240 508 122 q 372 360 508 360 l 243 360 l 244 122 m 818 369 l 815 736 l 986 736 l 983 369 l 986 0 l 815 0 l 818 369 z "},"":{"ha":821,"x_min":0,"x_max":800,"o":"m 208 368 l 207 601 l 0 601 l 0 736 l 371 736 l 369 479 l 513 479 q 800 240 800 479 q 513 0 800 0 l 206 0 l 208 368 m 371 122 l 500 122 q 635 240 635 122 q 500 360 635 360 l 369 360 l 371 122 z "},"":{"ha":728,"x_min":18,"x_max":693,"o":"m 335 -21 q 119 51 201 -21 q 18 235 36 124 l 164 275 q 221 153 176 196 q 335 111 265 111 q 465 163 414 111 q 528 311 515 214 l 435 313 l 274 310 l 274 436 l 435 435 l 526 436 q 463 576 513 528 q 335 624 413 624 q 221 581 265 624 q 164 460 176 539 l 18 500 q 120 683 36 611 q 339 756 204 756 q 526 708 446 756 q 649 573 606 661 q 693 367 693 485 q 649 161 693 249 q 524 26 606 74 q 335 -21 443 -21 z "},"":{"ha":1110,"x_min":78,"x_max":1075,"o":"m 82 369 l 78 736 l 250 736 l 247 443 l 332 442 l 394 443 q 503 672 414 589 q 732 756 593 756 q 910 708 832 756 q 1031 574 988 661 q 1075 368 1075 486 q 1031 163 1075 250 q 910 27 988 75 q 732 -21 832 -21 q 500 66 590 -21 q 393 304 410 153 l 332 306 l 247 303 l 250 0 l 78 0 l 82 369 m 556 368 q 603 185 556 251 q 728 119 650 119 q 855 185 807 119 q 903 368 903 251 q 855 549 903 483 q 728 614 807 614 q 603 549 650 614 q 556 368 556 483 z "},"":{"ha":758,"x_min":35,"x_max":681,"o":"m 35 0 q 61 115 44 25 l 69 161 q 103 249 78 215 q 175 301 128 282 q 88 374 118 325 q 58 492 58 424 q 374 736 58 736 l 681 736 l 676 368 l 681 0 l 506 0 l 508 246 l 390 246 q 294 218 339 246 q 242 131 250 190 q 215 0 222 17 l 35 0 m 228 485 q 374 369 228 369 l 508 369 l 507 599 l 369 599 q 263 571 297 599 q 228 485 228 543 z "},"":{"ha":847,"x_min":0,"x_max":842,"o":"m 696 -21 q 559 28 603 -21 q 515 183 515 78 l 515 607 l 271 607 l 271 0 l 110 0 l 110 607 l 0 607 l 0 736 l 799 736 l 799 607 l 672 607 l 672 183 q 686 133 672 149 q 726 117 700 117 q 811 133 761 117 l 842 13 q 696 -21 761 -21 z "},"":{"ha":0,"x_min":0,"x_max":0,"o":""},"":{"ha":833,"x_min":0,"x_max":0,"o":""},"":{"ha":1389,"x_min":0,"x_max":0,"o":""},"":{"ha":694,"x_min":0,"x_max":0,"o":""},"":{"ha":833,"x_min":0,"x_max":0,"o":""},"":{"ha":347,"x_min":0,"x_max":0,"o":""},"":{"ha":289,"x_min":0,"x_max":0,"o":""},"":{"ha":328,"x_min":0,"x_max":0,"o":""},"":{"ha":232,"x_min":0,"x_max":0,"o":""},"":{"ha":342,"x_min":0,"x_max":0,"o":""},"":{"ha":463,"x_min":0,"x_max":0,"o":""},"":{"ha":0,"x_min":0,"x_max":0,"o":""},".":{"ha":328,"x_min":53,"x_max":276,"o":"m 164 -21 q 81 6 110 -21 q 53 81 53 32 q 81 154 53 128 q 164 181 110 181 q 247 154 218 181 q 276 81 276 128 q 247 6 276 32 q 164 -21 218 -21 z "},",":{"ha":314,"x_min":29,"x_max":269,"o":"m 29 -115 q 118 -73 89 -103 q 144 -12 147 -43 q 51 88 51 1 q 81 159 51 133 q 161 185 110 185 q 269 65 269 185 q 220 -97 269 -25 q 50 -185 171 -168 l 29 -115 z "},":":{"ha":328,"x_min":53,"x_max":276,"o":"m 164 -21 q 81 6 110 -21 q 53 81 53 32 q 81 154 53 128 q 164 181 110 181 q 247 154 218 181 q 276 81 276 128 q 247 6 276 32 q 164 -21 218 -21 m 164 551 q 81 578 110 551 q 53 653 53 604 q 81 726 53 700 q 164 753 110 753 q 247 726 218 753 q 276 653 276 700 q 247 578 276 604 q 164 551 218 551 z "},";":{"ha":319,"x_min":29,"x_max":275,"o":"m 29 -115 q 118 -73 89 -103 q 144 -12 147 -43 q 51 88 51 1 q 81 159 51 133 q 161 185 110 185 q 269 65 269 185 q 220 -97 269 -25 q 50 -185 171 -168 l 29 -115 m 163 554 q 80 581 108 554 q 51 656 51 607 q 80 729 51 703 q 163 756 108 756 q 246 729 217 756 q 275 656 275 703 q 246 581 275 607 q 163 554 217 554 z "},"":{"ha":983,"x_min":53,"x_max":932,"o":"m 164 -21 q 81 6 110 -21 q 53 81 53 32 q 81 154 53 128 q 164 181 110 181 q 247 154 218 181 q 276 81 276 128 q 247 6 276 32 q 164 -21 218 -21 m 492 -21 q 409 6 438 -21 q 381 81 381 32 q 409 154 381 128 q 492 181 438 181 q 575 154 546 181 q 604 81 604 128 q 575 6 604 32 q 492 -21 546 -21 m 819 -21 q 737 6 765 -21 q 708 81 708 32 q 737 154 708 128 q 819 181 765 181 q 903 154 874 181 q 932 81 932 128 q 903 6 932 32 q 819 -21 874 -21 z "},"!":{"ha":390,"x_min":85,"x_max":306,"o":"m 110 628 l 110 963 l 281 963 l 281 628 l 247 294 l 143 294 l 110 628 m 85 79 q 114 153 85 126 q 196 179 143 179 q 277 153 249 179 q 306 79 306 126 q 277 6 306 32 q 196 -21 249 -21 q 114 6 143 -21 q 85 79 85 32 z "},"":{"ha":390,"x_min":85,"x_max":306,"o":"m 247 442 l 281 108 l 281 -226 l 110 -226 l 110 108 l 143 442 l 247 442 m 85 657 q 114 731 85 704 q 196 757 143 757 q 277 731 249 757 q 306 657 306 704 q 277 583 306 610 q 196 557 249 557 q 114 583 143 557 q 85 657 85 610 z "},"?":{"ha":714,"x_min":47,"x_max":661,"o":"m 251 258 q 249 306 249 292 q 281 453 249 397 q 397 563 313 510 q 494 719 494 622 q 458 802 494 769 q 357 835 421 835 q 194 685 226 835 l 47 724 q 143 904 65 825 q 369 983 221 983 q 527 951 461 983 q 627 862 593 918 q 661 735 661 806 q 613 567 661 632 q 493 460 564 503 q 418 394 440 429 q 396 306 396 360 q 399 258 396 289 l 251 258 m 217 79 q 247 153 217 126 q 329 179 276 179 q 412 153 382 179 q 442 79 442 126 q 412 6 442 32 q 329 -21 382 -21 q 247 6 276 -21 q 217 79 217 32 z "},"":{"ha":714,"x_min":53,"x_max":678,"o":"m 478 239 q 281 168 342 218 q 219 36 219 118 q 256 -59 219 -24 q 357 -94 292 -94 q 474 -53 433 -94 q 529 61 514 -11 l 678 24 q 579 -154 658 -76 q 346 -232 500 -232 q 191 -199 257 -232 q 89 -108 125 -165 q 53 21 53 -51 q 128 213 53 140 q 338 315 204 286 l 347 446 l 468 446 l 478 239 m 292 658 q 322 731 292 706 q 404 757 351 757 q 488 731 458 757 q 518 658 518 706 q 488 585 518 611 q 404 560 458 560 q 322 585 351 560 q 292 658 292 611 z "},"":{"ha":328,"x_min":53,"x_max":276,"o":"m 164 250 q 81 276 110 250 q 53 351 53 303 q 81 425 53 399 q 164 451 110 451 q 247 425 218 451 q 276 351 276 399 q 247 276 276 303 q 164 250 218 250 z "},"":{"ha":428,"x_min":81,"x_max":350,"o":"m 214 246 q 115 277 149 246 q 81 368 81 308 q 115 456 81 425 q 214 488 150 488 q 315 456 279 488 q 350 368 350 425 q 315 277 350 308 q 214 246 279 246 z "},"*":{"ha":550,"x_min":39,"x_max":511,"o":"m 90 593 l 207 724 l 39 756 l 75 867 l 235 793 l 217 967 l 333 967 l 313 793 l 475 867 l 511 754 l 340 724 l 457 593 l 364 524 l 275 672 l 183 524 l 90 593 z "},"#":{"ha":824,"x_min":6,"x_max":819,"o":"m 465 182 l 292 182 l 264 0 l 125 0 l 153 182 l 6 182 l 24 300 l 169 300 l 200 497 l 44 497 l 64 617 l 218 617 l 242 778 l 381 778 l 357 617 l 531 617 l 554 778 l 696 778 l 671 617 l 819 617 l 800 497 l 653 497 l 624 300 l 782 300 l 763 182 l 606 182 l 578 0 l 438 0 l 465 182 m 482 300 l 513 497 l 339 497 l 308 300 l 482 300 z "},"/":{"ha":614,"x_min":6,"x_max":608,"o":"m 447 1007 l 608 1007 l 165 -201 l 6 -201 l 447 1007 z "},"\\":{"ha":614,"x_min":6,"x_max":608,"o":"m 449 -201 l 6 1007 l 167 1007 l 608 -201 l 449 -201 z "},"-":{"ha":529,"x_min":63,"x_max":467,"o":"m 63 478 l 467 478 l 467 335 l 63 335 l 63 478 z "},"":{"ha":0,"x_min":0,"x_max":0,"o":""},"":{"ha":693,"x_min":-1,"x_max":694,"o":"m -1 478 l 694 478 l 694 335 l -1 335 l -1 478 z "},"":{"ha":1389,"x_min":0,"x_max":1389,"o":"m 0 478 l 1389 478 l 1389 335 l 0 335 l 0 478 z "},"":{"ha":819,"x_min":63,"x_max":757,"o":"m 63 478 l 757 478 l 757 335 l 63 335 l 63 478 z "},"":{"ha":529,"x_min":63,"x_max":467,"o":"m 63 478 l 467 478 l 467 335 l 63 335 l 63 478 z "},"_":{"ha":693,"x_min":-1,"x_max":694,"o":"m -1 -71 l 694 -71 l 694 -178 l -1 -178 l -1 -71 z "},"(":{"ha":438,"x_min":78,"x_max":404,"o":"m 322 -193 q 142 93 207 -65 q 78 421 78 251 q 143 749 78 590 q 322 1035 208 907 l 404 979 q 295 715 336 861 q 254 421 254 569 q 295 126 254 272 q 404 -137 336 -19 l 322 -193 z "},")":{"ha":438,"x_min":33,"x_max":360,"o":"m 33 -137 q 142 126 101 -19 q 183 421 183 272 q 142 715 183 569 q 33 979 101 861 l 115 1035 q 294 749 229 907 q 360 421 360 590 q 295 93 360 251 q 115 -193 231 -65 l 33 -137 z "},"{":{"ha":444,"x_min":36,"x_max":411,"o":"m 357 -181 q 197 -131 249 -181 q 144 19 144 -81 l 144 239 q 122 323 144 294 q 36 351 99 351 l 36 479 q 122 508 99 479 q 144 592 144 536 l 144 813 q 197 963 144 913 q 357 1013 249 1013 l 411 1013 l 411 885 l 382 885 q 327 870 346 885 q 308 817 308 856 l 308 628 q 283 480 308 528 q 188 415 258 432 q 283 351 258 399 q 308 203 308 303 l 308 15 q 326 -39 308 -25 q 382 -53 344 -53 l 411 -53 l 411 -181 l 357 -181 z "},"}":{"ha":444,"x_min":33,"x_max":408,"o":"m 33 -181 l 33 -53 l 63 -53 q 118 -39 100 -53 q 136 15 136 -25 l 136 203 q 161 351 136 303 q 257 415 186 399 q 161 480 186 432 q 136 628 136 528 l 136 817 q 117 870 136 856 q 63 885 99 885 l 33 885 l 33 1013 l 88 1013 q 248 963 196 1013 q 300 813 300 913 l 300 592 q 323 508 300 536 q 408 479 346 479 l 408 351 q 323 323 346 351 q 300 239 300 294 l 300 19 q 248 -131 300 -81 q 88 -181 196 -181 l 33 -181 z "},"[":{"ha":450,"x_min":85,"x_max":417,"o":"m 85 1010 l 417 1010 l 417 882 l 246 882 l 246 -51 l 417 -51 l 417 -179 l 85 -179 l 85 1010 z "},"]":{"ha":450,"x_min":33,"x_max":365,"o":"m 33 -179 l 33 -51 l 204 -51 l 204 882 l 33 882 l 33 1010 l 365 1010 l 365 -179 l 33 -179 z "},"":{"ha":307,"x_min":28,"x_max":263,"o":"m 28 -112 q 115 -72 86 -100 q 140 -12 143 -43 q 50 85 50 1 q 78 155 50 129 q 157 181 106 181 q 263 64 263 181 q 215 -94 263 -24 q 49 -181 167 -164 l 28 -112 z "},"":{"ha":550,"x_min":29,"x_max":510,"o":"m 29 -112 q 115 -71 86 -100 q 140 -12 143 -42 q 51 85 51 1 q 79 155 51 129 q 157 181 107 181 q 261 64 261 181 q 214 -94 261 -24 q 50 -181 167 -164 l 29 -112 m 279 -112 q 365 -71 336 -100 q 390 -12 393 -42 q 300 85 300 1 q 328 155 300 129 q 406 181 356 181 q 510 64 510 181 q 463 -94 510 -24 q 299 -181 415 -164 l 279 -112 z "},"":{"ha":550,"x_min":39,"x_max":519,"o":"m 519 926 q 434 886 463 915 q 408 826 406 857 q 499 729 499 813 q 471 660 499 685 q 393 635 443 635 q 289 751 289 635 q 336 909 289 839 q 500 994 383 979 l 519 926 m 39 751 q 86 909 39 839 q 250 994 133 979 l 271 926 q 185 886 213 915 q 160 826 157 857 q 249 729 249 813 q 221 660 249 685 q 143 635 193 635 q 39 751 39 635 z "},"":{"ha":550,"x_min":29,"x_max":510,"o":"m 29 707 q 115 749 86 719 q 140 807 143 778 q 51 904 51 821 q 79 974 51 949 q 157 1000 107 1000 q 261 883 261 1000 q 214 726 261 796 q 50 639 167 656 l 29 707 m 279 707 q 365 749 336 719 q 390 807 393 778 q 300 904 300 821 q 328 974 300 949 q 406 1000 356 1000 q 510 883 510 1000 q 463 726 510 796 q 299 639 415 656 l 279 707 z "},"":{"ha":304,"x_min":40,"x_max":275,"o":"m 275 926 q 189 886 218 915 q 163 826 160 857 q 253 729 253 813 q 225 660 253 685 q 146 635 197 635 q 40 750 40 635 q 88 908 40 839 q 254 994 136 978 l 275 926 z "},"":{"ha":304,"x_min":29,"x_max":264,"o":"m 29 707 q 116 748 88 719 q 142 807 144 776 q 51 904 51 821 q 79 974 51 949 q 158 1000 107 1000 q 264 883 264 1000 q 216 726 264 796 q 50 639 168 656 l 29 707 z "},"":{"ha":789,"x_min":63,"x_max":713,"o":"m 63 314 l 63 400 l 331 667 l 410 597 l 218 357 l 410 118 l 331 46 l 63 314 m 365 393 l 633 667 l 713 597 l 521 357 l 713 118 l 633 46 l 365 321 l 365 393 z "},"":{"ha":789,"x_min":76,"x_max":726,"o":"m 379 118 l 571 357 l 379 597 l 458 667 l 726 400 l 726 314 l 458 46 l 379 118 m 268 357 l 76 597 l 156 667 l 424 393 l 424 321 l 156 46 l 76 118 l 268 357 z "},"":{"ha":486,"x_min":63,"x_max":410,"o":"m 63 314 l 63 400 l 331 667 l 410 597 l 218 357 l 410 118 l 331 46 l 63 314 z "},"":{"ha":486,"x_min":76,"x_max":424,"o":"m 76 118 l 268 357 l 76 597 l 156 667 l 424 400 l 424 314 l 156 46 l 76 118 z "},"\"":{"ha":549,"x_min":92,"x_max":460,"o":"m 92 963 l 231 963 l 231 596 l 92 596 l 92 963 m 319 963 l 460 963 l 460 596 l 319 596 l 319 963 z "},"'":{"ha":326,"x_min":92,"x_max":235,"o":"m 92 963 l 235 963 l 235 596 l 92 596 l 92 963 z "}}}
